  0
SECTION
  2
HEADER
  9
$ACADVER
  1
AC1015
  9
$ACADMAINTVER
 70
6
  9
$DWGCODEPAGE
  3
ANSI_1252
  9
$INSBASE
 10
0.0
 20
0.0
 30
0.0
  9
$EXTMIN
 10
1e+20
 20
1e+20
 30
1e+20
  9
$EXTMAX
 10
-1e+20
 20
-1e+20
 30
-1e+20
  9
$LIMMIN
 10
0.0
 20
0.0
  9
$LIMMAX
 10
420.0
 20
297.0
  9
$ORTHOMODE
 70
0
  9
$REGENMODE
 70
1
  9
$FILLMODE
 70
1
  9
$QTEXTMODE
 70
0
  9
$MIRRTEXT
 70
1
  9
$LTSCALE
 40
1.0
  9
$ATTMODE
 70
1
  9
$TEXTSIZE
 40
2.5
  9
$TRACEWID
 40
1.0
  9
$TEXTSTYLE
  7
Standard
  9
$CLAYER
  8
0
  9
$CELTYPE
  6
ByLayer
  9
$CECOLOR
 62
256
  9
$CELTSCALE
 40
1.0
  9
$DISPSILH
 70
0
  9
$DIMSCALE
 40
1.0
  9
$DIMASZ
 40
2.5
  9
$DIMEXO
 40
0.625
  9
$DIMDLI
 40
3.75
  9
$DIMRND
 40
0.0
  9
$DIMDLE
 40
0.0
  9
$DIMEXE
 40
1.25
  9
$DIMTP
 40
0.0
  9
$DIMTM
 40
0.0
  9
$DIMTXT
 40
2.5
  9
$DIMCEN
 40
2.5
  9
$DIMTSZ
 40
0.0
  9
$DIMTOL
 70
0
  9
$DIMLIM
 70
0
  9
$DIMTIH
 70
0
  9
$DIMTOH
 70
0
  9
$DIMSE1
 70
0
  9
$DIMSE2
 70
0
  9
$DIMTAD
 70
1
  9
$DIMZIN
 70
8
  9
$DIMBLK
  1

  9
$DIMASO
 70
1
  9
$DIMSHO
 70
1
  9
$DIMPOST
  1

  9
$DIMAPOST
  1

  9
$DIMALT
 70
0
  9
$DIMALTD
 70
3
  9
$DIMALTF
 40
0.03937007874
  9
$DIMLFAC
 40
1.0
  9
$DIMTOFL
 70
1
  9
$DIMTVP
 40
0.0
  9
$DIMTIX
 70
0
  9
$DIMSOXD
 70
0
  9
$DIMSAH
 70
0
  9
$DIMBLK1
  1

  9
$DIMBLK2
  1

  9
$DIMSTYLE
  2
ISO-25
  9
$DIMCLRD
 70
0
  9
$DIMCLRE
 70
0
  9
$DIMCLRT
 70
0
  9
$DIMTFAC
 40
1.0
  9
$DIMGAP
 40
0.625
  9
$DIMJUST
 70
0
  9
$DIMSD1
 70
0
  9
$DIMSD2
 70
0
  9
$DIMTOLJ
 70
0
  9
$DIMTZIN
 70
8
  9
$DIMALTZ
 70
0
  9
$DIMALTTZ
 70
0
  9
$DIMUPT
 70
0
  9
$DIMDEC
 70
2
  9
$DIMTDEC
 70
2
  9
$DIMALTU
 70
2
  9
$DIMALTTD
 70
3
  9
$DIMTXSTY
  7
Standard
  9
$DIMAUNIT
 70
0
  9
$DIMADEC
 70
0
  9
$DIMALTRND
 40
0.0
  9
$DIMAZIN
 70
0
  9
$DIMDSEP
 70
44
  9
$DIMATFIT
 70
3
  9
$DIMFRAC
 70
0
  9
$DIMLDRBLK
  1

  9
$DIMLUNIT
 70
2
  9
$DIMLWD
 70
-2
  9
$DIMLWE
 70
-2
  9
$DIMTMOVE
 70
0
  9
$LUNITS
 70
2
  9
$LUPREC
 70
4
  9
$SKETCHINC
 40
1.0
  9
$FILLETRAD
 40
10.0
  9
$AUNITS
 70
0
  9
$AUPREC
 70
2
  9
$MENU
  1
.
  9
$ELEVATION
 40
0.0
  9
$PELEVATION
 40
0.0
  9
$THICKNESS
 40
0.0
  9
$LIMCHECK
 70
0
  9
$CHAMFERA
 40
0.0
  9
$CHAMFERB
 40
0.0
  9
$CHAMFERC
 40
0.0
  9
$CHAMFERD
 40
0.0
  9
$SKPOLY
 70
0
  9
$TDCREATE
 40
2459992.3530324074
  9
$TDUCREATE
 40
2458532.153996898
  9
$TDUPDATE
 40
2459992.3530439814
  9
$TDUUPDATE
 40
2458532.1544311
  9
$TDINDWG
 40
0.0
  9
$TDUSRTIMER
 40
0.0
  9
$USRTIMER
 70
1
  9
$ANGBASE
 50
0.0
  9
$ANGDIR
 70
0
  9
$PDMODE
 70
0
  9
$PDSIZE
 40
0.0
  9
$PLINEWID
 40
0.0
  9
$SPLFRAME
 70
0
  9
$SPLINETYPE
 70
6
  9
$SPLINESEGS
 70
8
  9
$HANDSEED
  5
1EC
  9
$SURFTAB1
 70
6
  9
$SURFTAB2
 70
6
  9
$SURFTYPE
 70
6
  9
$SURFU
 70
6
  9
$SURFV
 70
6
  9
$UCSBASE
  2

  9
$UCSNAME
  2

  9
$UCSORG
 10
0.0
 20
0.0
 30
0.0
  9
$UCSXDIR
 10
1.0
 20
0.0
 30
0.0
  9
$UCSYDIR
 10
0.0
 20
1.0
 30
0.0
  9
$UCSORTHOREF
  2

  9
$UCSORTHOVIEW
 70
0
  9
$UCSORGTOP
 10
0.0
 20
0.0
 30
0.0
  9
$UCSORGBOTTOM
 10
0.0
 20
0.0
 30
0.0
  9
$UCSORGLEFT
 10
0.0
 20
0.0
 30
0.0
  9
$UCSORGRIGHT
 10
0.0
 20
0.0
 30
0.0
  9
$UCSORGFRONT
 10
0.0
 20
0.0
 30
0.0
  9
$UCSORGBACK
 10
0.0
 20
0.0
 30
0.0
  9
$PUCSBASE
  2

  9
$PUCSNAME
  2

  9
$PUCSORG
 10
0.0
 20
0.0
 30
0.0
  9
$PUCSXDIR
 10
1.0
 20
0.0
 30
0.0
  9
$PUCSYDIR
 10
0.0
 20
1.0
 30
0.0
  9
$PUCSORTHOREF
  2

  9
$PUCSORTHOVIEW
 70
0
  9
$PUCSORGTOP
 10
0.0
 20
0.0
 30
0.0
  9
$PUCSORGBOTTOM
 10
0.0
 20
0.0
 30
0.0
  9
$PUCSORGLEFT
 10
0.0
 20
0.0
 30
0.0
  9
$PUCSORGRIGHT
 10
0.0
 20
0.0
 30
0.0
  9
$PUCSORGFRONT
 10
0.0
 20
0.0
 30
0.0
  9
$PUCSORGBACK
 10
0.0
 20
0.0
 30
0.0
  9
$USERI1
 70
0
  9
$USERI2
 70
0
  9
$USERI3
 70
0
  9
$USERI4
 70
0
  9
$USERI5
 70
0
  9
$USERR1
 40
0.0
  9
$USERR2
 40
0.0
  9
$USERR3
 40
0.0
  9
$USERR4
 40
0.0
  9
$USERR5
 40
0.0
  9
$WORLDVIEW
 70
1
  9
$SHADEDGE
 70
3
  9
$SHADEDIF
 70
70
  9
$TILEMODE
 70
1
  9
$MAXACTVP
 70
64
  9
$PINSBASE
 10
0.0
 20
0.0
 30
0.0
  9
$PLIMCHECK
 70
0
  9
$PEXTMIN
 10
1e+20
 20
1e+20
 30
1e+20
  9
$PEXTMAX
 10
-1e+20
 20
-1e+20
 30
-1e+20
  9
$PLIMMIN
 10
0.0
 20
0.0
  9
$PLIMMAX
 10
420.0
 20
297.0
  9
$UNITMODE
 70
0
  9
$VISRETAIN
 70
1
  9
$PLINEGEN
 70
0
  9
$PSLTSCALE
 70
1
  9
$TREEDEPTH
 70
3020
  9
$CMLSTYLE
  2
Standard
  9
$CMLJUST
 70
0
  9
$CMLSCALE
 40
20.0
  9
$PROXYGRAPHICS
 70
1
  9
$MEASUREMENT
 70
1
  9
$CELWEIGHT
370
-1
  9
$ENDCAPS
280
0
  9
$JOINSTYLE
280
0
  9
$LWDISPLAY
290
0
  9
$INSUNITS
 70
6
  9
$HYPERLINKBASE
  1

  9
$STYLESHEET
  1

  9
$XEDIT
290
1
  9
$CEPSNTYPE
380
0
  9
$PSTYLEMODE
290
1
  9
$FINGERPRINTGUID
  2
{DB234599-5AD9-4ABA-8B5A-FF143DD56BA4}
  9
$VERSIONGUID
  2
{8CAC4FDC-6066-48ED-A43D-AA56D0BF4B27}
  9
$EXTNAMES
290
1
  9
$PSVPSCALE
 40
0.0
  9
$OLESTARTUP
290
0
  0
ENDSEC
  0
SECTION
  2
CLASSES
  0
CLASS
  1
ACDBDICTIONARYWDFLT
  2
AcDbDictionaryWithDefault
  3
ObjectDBX Classes
 90
0
280
0
281
0
  0
CLASS
  1
SUN
  2
AcDbSun
  3
SCENEOE
 90
1153
280
0
281
0
  0
CLASS
  1
VISUALSTYLE
  2
AcDbVisualStyle
  3
ObjectDBX Classes
 90
4095
280
0
281
0
  0
CLASS
  1
MATERIAL
  2
AcDbMaterial
  3
ObjectDBX Classes
 90
1153
280
0
281
0
  0
CLASS
  1
SCALE
  2
AcDbScale
  3
ObjectDBX Classes
 90
1153
280
0
281
0
  0
CLASS
  1
TABLESTYLE
  2
AcDbTableStyle
  3
ObjectDBX Classes
 90
4095
280
0
281
0
  0
CLASS
  1
MLEADERSTYLE
  2
AcDbMLeaderStyle
  3
ACDB_MLEADERSTYLE_CLASS
 90
4095
280
0
281
0
  0
CLASS
  1
DICTIONARYVAR
  2
AcDbDictionaryVar
  3
ObjectDBX Classes
 90
0
280
0
281
0
  0
CLASS
  1
CELLSTYLEMAP
  2
AcDbCellStyleMap
  3
ObjectDBX Classes
 90
1152
280
0
281
0
  0
CLASS
  1
MENTALRAYRENDERSETTINGS
  2
AcDbMentalRayRenderSettings
  3
SCENEOE
 90
1024
280
0
281
0
  0
CLASS
  1
ACDBDETAILVIEWSTYLE
  2
AcDbDetailViewStyle
  3
ObjectDBX Classes
 90
1025
280
0
281
0
  0
CLASS
  1
ACDBSECTIONVIEWSTYLE
  2
AcDbSectionViewStyle
  3
ObjectDBX Classes
 90
1025
280
0
281
0
  0
CLASS
  1
RASTERVARIABLES
  2
AcDbRasterVariables
  3
ISM
 90
0
280
0
281
0
  0
CLASS
  1
ACDBPLACEHOLDER
  2
AcDbPlaceHolder
  3
ObjectDBX Classes
 90
0
280
0
281
0
  0
CLASS
  1
LAYOUT
  2
AcDbLayout
  3
ObjectDBX Classes
 90
0
280
0
281
0
  0
ENDSEC
  0
SECTION
  2
TABLES
  0
TABLE
  2
VPORT
  5
8
330
0
100
AcDbSymbolTable
 70
1
  0
VPORT
  5
23
330
8
100
AcDbSymbolTableRecord
100
AcDbViewportTableRecord
  2
*Active
 70
0
 10
0.0
 20
0.0
 11
1.0
 21
1.0
 12
344.2
 22
148.5
 13
0.0
 23
0.0
 14
0.5
 24
0.5
 15
0.5
 25
0.5
 16
0.0
 26
0.0
 36
1.0
 17
0.0
 27
0.0
 37
0.0
 40
297.0
 41
1.34
 42
50.0
 43
0.0
 44
0.0
 50
0.0
 51
0.0
 71
0
 72
1000
 73
1
 74
3
 75
0
 76
0
 77
0
 78
0
281
0
 65
0
146
0.0
  0
ENDTAB
  0
TABLE
  2
LTYPE
  5
2
330
0
100
AcDbSymbolTable
 70
3
  0
LTYPE
  5
24
330
2
100
AcDbSymbolTableRecord
100
AcDbLinetypeTableRecord
  2
ByBlock
 70
0
  3

 72
65
 73
0
 40
0.0
  0
LTYPE
  5
25
330
2
100
AcDbSymbolTableRecord
100
AcDbLinetypeTableRecord
  2
ByLayer
 70
0
  3

 72
65
 73
0
 40
0.0
  0
LTYPE
  5
26
330
2
100
AcDbSymbolTableRecord
100
AcDbLinetypeTableRecord
  2
Continuous
 70
0
  3

 72
65
 73
0
 40
0.0
  0
ENDTAB
  0
TABLE
  2
LAYER
  5
1
330
0
100
AcDbSymbolTable
 70
2
  0
LAYER
  5
27
330
1
100
AcDbSymbolTableRecord
100
AcDbLayerTableRecord
  2
0
 70
0
 62
7
  6
Continuous
370
-3
390
13
  0
LAYER
  5
28
330
1
100
AcDbSymbolTableRecord
100
AcDbLayerTableRecord
  2
Defpoints
 70
0
 62
7
  6
Continuous
290
0
370
-3
390
13
  0
ENDTAB
  0
TABLE
  2
STYLE
  5
5
330
0
100
AcDbSymbolTable
 70
1
  0
STYLE
  5
29
330
5
100
AcDbSymbolTableRecord
100
AcDbTextStyleTableRecord
  2
Standard
 70
0
 40
0.0
 41
1.0
 50
0.0
 71
0
 42
2.5
  3
txt
  4

  0
ENDTAB
  0
TABLE
  2
VIEW
  5
7
330
0
100
AcDbSymbolTable
 70
0
  0
ENDTAB
  0
TABLE
  2
UCS
  5
6
330
0
100
AcDbSymbolTable
 70
0
  0
ENDTAB
  0
TABLE
  2
APPID
  5
3
330
0
100
AcDbSymbolTable
 70
3
  0
APPID
  5
2A
330
3
100
AcDbSymbolTableRecord
100
AcDbRegAppTableRecord
  2
ACAD
 70
0
  0
APPID
  5
1E9
330
3
100
AcDbSymbolTableRecord
100
AcDbRegAppTableRecord
  2
HATCHBACKGROUNDCOLOR
 70
0
  0
APPID
  5
1EA
330
3
100
AcDbSymbolTableRecord
100
AcDbRegAppTableRecord
  2
EZDXF
 70
0
  0
ENDTAB
  0
TABLE
  2
DIMSTYLE
  5
4
330
0
100
AcDbSymbolTable
 70
1
100
AcDbDimStyleTable
  0
DIMSTYLE
105
2B
330
4
100
AcDbSymbolTableRecord
100
AcDbDimStyleTableRecord
  2
Standard
 70
0
  3

  4

 40
1.0
 41
2.5
 42
0.625
 43
3.75
 44
1.25
 45
0.0
 46
0.0
 47
0.0
 48
0.0
140
2.5
141
2.5
142
0.0
143
0.03937007874
144
1.0
145
0.0
146
1.0
147
0.625
148
0.0
 71
0
 72
0
 73
0
 74
0
 75
0
 76
0
 77
1
 78
8
 79
0
170
0
171
3
172
1
173
0
174
0
175
0
176
0
177
0
178
0
179
0
271
0
272
2
273
2
274
3
275
0
276
0
277
2
278
44
279
0
280
0
281
0
282
0
283
0
284
8
285
0
286
0
288
0
289
3
371
-2
372
-2
  0
ENDTAB
  0
TABLE
  2
BLOCK_RECORD
  5
9
330
0
100
AcDbSymbolTable
 70
5
  0
BLOCK_RECORD
  5
17
330
9
100
AcDbSymbolTableRecord
100
AcDbBlockTableRecord
  2
*Model_Space
340
1A
  0
BLOCK_RECORD
  5
1B
330
9
100
AcDbSymbolTableRecord
100
AcDbBlockTableRecord
  2
*Paper_Space
340
1E
  0
BLOCK_RECORD
  5
2F
330
9
100
AcDbSymbolTableRecord
100
AcDbBlockTableRecord
  2
PROFILE
340
0
  0
BLOCK_RECORD
  5
35
330
9
100
AcDbSymbolTableRecord
100
AcDbBlockTableRecord
  2
TIP
340
0
  0
BLOCK_RECORD
  5
39
330
9
100
AcDbSymbolTableRecord
100
AcDbBlockTableRecord
  2
FRAME
340
0
  0
ENDTAB
  0
ENDSEC
  0
SECTION
  2
BLOCKS
  0
BLOCK
  5
18
330
17
100
AcDbEntity
  8
0
100
AcDbBlockBegin
  2
*Model_Space
 70
0
 10
0.0
 20
0.0
 30
0.0
  3
*Model_Space
  1

  0
ENDBLK
  5
19
330
17
100
AcDbEntity
  8
0
100
AcDbBlockEnd
  0
BLOCK
  5
1C
330
1B
100
AcDbEntity
  8
0
100
AcDbBlockBegin
  2
*Paper_Space
 70
0
 10
0.0
 20
0.0
 30
0.0
  3
*Paper_Space
  1

  0
ENDBLK
  5
1D
330
1B
100
AcDbEntity
  8
0
100
AcDbBlockEnd
  0
BLOCK
  5
30
330
2F
100
AcDbEntity
  8
0
100
AcDbBlockBegin
  2
PROFILE
 70
0
 10
0.0
 20
0.0
 30
0.0
  3
PROFILE
  1

  0
LWPOLYLINE
  5
32
330
2F
100
AcDbEntity
  8
0
100
AcDbPolyline
 90
7
 70
0
 10
-2.071
 20
0.0
 10
0.0
 20
5.0
 10
50.0
 20
5.0
 10
50.0
 20
5.0
 10
99.0
 20
5.0
 10
100.0
 20
4.0
 10
100.0
 20
0.0
  0
LINE
  5
33
330
2F
100
AcDbEntity
  8
0
100
AcDbLine
 10
0.0
 20
0.0
 30
0.0
 11
100.0
 21
0.0
 31
0.0
  0
LWPOLYLINE
  5
34
330
2F
100
AcDbEntity
  8
0
100
AcDbPolyline
 90
7
 70
0
 10
2.071
 20
0.0
 10
0.0
 20
-5.0
 10
-50.0
 20
-5.0
 10
-50.0
 20
-5.0
 10
-99.0
 20
-5.0
 10
-100.0
 20
-4.0
 10
-100.0
 20
0.0
210
0.0
220
0.0
230
-1.0
  0
ENDBLK
  5
31
330
2F
100
AcDbEntity
  8
0
100
AcDbBlockEnd
  0
BLOCK
  5
36
330
35
100
AcDbEntity
  8
0
100
AcDbBlockBegin
  2
TIP
 70
0
 10
0.0
 20
0.0
 30
0.0
  3
TIP
  1

  0
CIRCLE
  5
38
330
35
100
AcDbEntity
  8
0
100
AcDbCircle
 10
0.0
 20
0.0
 30
0.0
 40
5.0
  0
ENDBLK
  5
37
330
35
100
AcDbEntity
  8
0
100
AcDbBlockEnd
  0
BLOCK
  5
3A
330
39
100
AcDbEntity
  8
0
100
AcDbBlockBegin
  2
FRAME
 70
0
 10
0.0
 20
0.0
 30
0.0
  3
FRAME
  1

  0
HATCH
  5
3C
330
39
100
AcDbEntity
  8
0
100
AcDbHatch
 10
0.0
 20
0.0
 30
0.0
210
0.0
220
0.0
230
1.0
  2

 70
1
 71
0
 91
1
 92
1
 93
4
 72
1
 10
137.4058261308732
 20
-91.83953665976294
 11
137.8081276115596
 21
-91.83953665976294
 72
1
 10
137.8081276115596
 20
-91.83953665976294
 11
137.8081276115596
 21
-91.42747461276984
 72
1
 10
137.8081276115596
 20
-91.42747461276984
 11
137.4058261308732
 21
-91.42747461276984
 72
1
 10
137.4058261308732
 20
-91.42747461276984
 11
137.4058261308732
 21
-91.83953665976294
 97
0
 75
0
 76
0
 98
1
 10
0.0
 20
0.0
  0
HATCH
  5
3D
330
39
100
AcDbEntity
  8
0
100
AcDbHatch
 10
0.0
 20
0.0
 30
0.0
210
0.0
220
0.0
230
1.0
  2

 70
1
 71
0
 91
1
 92
1
 93
4
 72
1
 10
136.99602348403957
 20
-92.64347859158845
 11
137.4058261308732
 21
-92.64347859158845
 72
1
 10
137.4058261308732
 20
-92.64347859158845
 11
137.4058261308732
 21
-92.24150762567572
 72
1
 10
137.4058261308732
 20
-92.24150762567572
 11
136.99602348403957
 21
-92.24150762567572
 72
1
 10
136.99602348403957
 20
-92.24150762567572
 11
136.99602348403957
 21
-92.64347859158845
 97
0
 75
0
 76
0
 98
1
 10
0.0
 20
0.0
  0
HATCH
  5
3E
330
39
100
AcDbEntity
  8
0
100
AcDbHatch
 10
0.0
 20
0.0
 30
0.0
210
0.0
220
0.0
230
1.0
  2

 70
1
 71
0
 91
1
 92
1
 93
4
 72
1
 10
136.99602348403957
 20
-93.79770950799512
 11
136.99602348403957
 21
-93.3957385420824
 72
1
 10
136.99602348403957
 20
-93.3957385420824
 11
137.4058261308732
 21
-93.3957385420824
 72
1
 10
137.4058261308732
 20
-93.3957385420824
 11
137.4058261308732
 21
-93.79770950799512
 72
1
 10
137.4058261308732
 20
-93.79770950799512
 11
136.99602348403957
 21
-93.79770950799512
 97
0
 75
0
 76
0
 98
1
 10
0.0
 20
0.0
  0
HATCH
  5
3F
330
39
100
AcDbEntity
  8
0
100
AcDbHatch
 10
0.0
 20
0.0
 30
0.0
210
0.0
220
0.0
230
1.0
  2

 70
1
 71
0
 91
1
 92
1
 93
4
 72
1
 10
137.4058261308732
 20
-93.00014806769215
 11
137.4058261308732
 21
-94.21180340780047
 72
1
 10
137.4058261308732
 20
-94.21180340780047
 11
137.8081276115596
 21
-94.21180340780047
 72
1
 10
137.8081276115596
 20
-94.21180340780047
 11
137.8081276115596
 21
-93.00014806769215
 72
1
 10
137.8081276115596
 20
-93.00014806769215
 11
137.4058261308732
 21
-93.00014806769215
 97
0
 75
0
 76
0
 98
1
 10
0.0
 20
0.0
  0
HATCH
  5
40
330
39
100
AcDbEntity
  8
0
100
AcDbHatch
 10
0.0
 20
0.0
 30
0.0
210
0.0
220
0.0
230
1.0
  2

 70
1
 71
0
 91
1
 92
1
 93
4
 72
1
 10
136.5858291833983
 20
-94.21180340780047
 11
136.5858291833983
 21
-93.79770950799512
 72
1
 10
136.5858291833983
 20
-93.79770950799512
 11
136.99602348403957
 21
-93.79770950799512
 72
1
 10
136.99602348403957
 20
-93.79770950799512
 11
136.99602348403957
 21
-94.21180340780047
 72
1
 10
136.99602348403957
 20
-94.21180340780047
 11
136.5858291833983
 21
-94.21180340780047
 97
0
 75
0
 76
0
 98
1
 10
0.0
 20
0.0
  0
HATCH
  5
41
330
39
100
AcDbEntity
  8
0
100
AcDbHatch
 10
0.0
 20
0.0
 30
0.0
210
0.0
220
0.0
230
1.0
  2

 70
1
 71
0
 91
1
 92
1
 93
4
 72
1
 10
137.8081276115596
 20
-93.00014806769215
 11
137.8081276115596
 21
-92.64347859158845
 72
1
 10
137.8081276115596
 20
-92.64347859158845
 11
136.5858291833983
 21
-92.64347859158845
 72
1
 10
136.5858291833983
 20
-92.64347859158845
 11
136.5858291833983
 21
-93.00014806769215
 72
1
 10
136.5858291833983
 20
-93.00014806769215
 11
137.8081276115596
 21
-93.00014806769215
 97
0
 75
0
 76
0
 98
1
 10
0.0
 20
0.0
  0
HATCH
  5
42
330
39
100
AcDbEntity
  8
0
100
AcDbHatch
 10
0.0
 20
0.0
 30
0.0
210
0.0
220
0.0
230
1.0
  2

 70
1
 71
0
 91
1
 92
1
 93
4
 72
1
 10
136.5858291833983
 20
-92.24150762567572
 11
137.4058261308732
 21
-92.24150762567572
 72
1
 10
137.4058261308732
 20
-92.24150762567572
 11
137.4058261308732
 21
-91.42747461276984
 72
1
 10
137.4058261308732
 20
-91.42747461276984
 11
136.5858291833983
 21
-91.42747461276984
 72
1
 10
136.5858291833983
 20
-91.42747461276984
 11
136.5858291833983
 21
-92.24150762567572
 97
0
 75
0
 76
0
 98
1
 10
0.0
 20
0.0
  0
HATCH
  5
43
330
39
100
AcDbEntity
  8
0
100
AcDbHatch
 10
0.0
 20
0.0
 30
0.0
210
0.0
220
0.0
230
1.0
  2

 70
1
 71
0
 91
1
 92
1
 93
4
 72
1
 10
136.5858291833983
 20
-93.3957385420824
 11
136.1813636494694
 21
-93.3957385420824
 72
1
 10
136.1813636494694
 20
-93.3957385420824
 11
136.1813636494694
 21
-93.00014806769215
 72
1
 10
136.1813636494694
 20
-93.00014806769215
 11
136.5858291833983
 21
-93.00014806769215
 72
1
 10
136.5858291833983
 20
-93.00014806769215
 11
136.5858291833983
 21
-93.3957385420824
 97
0
 75
0
 76
0
 98
1
 10
0.0
 20
0.0
  0
HATCH
  5
44
330
39
100
AcDbEntity
  8
0
100
AcDbHatch
 10
0.0
 20
0.0
 30
0.0
210
0.0
220
0.0
230
1.0
  2

 70
1
 71
0
 91
1
 92
1
 93
4
 72
1
 10
136.1813636494694
 20
-92.24150762567572
 11
136.1813636494694
 21
-92.64347859158845
 72
1
 10
136.1813636494694
 20
-92.64347859158845
 11
136.5858291833983
 21
-92.64347859158845
 72
1
 10
136.5858291833983
 20
-92.64347859158845
 11
136.5858291833983
 21
-92.24150762567572
 72
1
 10
136.5858291833983
 20
-92.24150762567572
 11
136.1813636494694
 21
-92.24150762567572
 97
0
 75
0
 76
0
 98
1
 10
0.0
 20
0.0
  0
HATCH
  5
45
330
39
100
AcDbEntity
  8
0
100
AcDbHatch
 10
0.0
 20
0.0
 30
0.0
210
0.0
220
0.0
230
1.0
  2

 70
1
 71
0
 91
1
 92
1
 93
4
 72
1
 10
136.1813636494694
 20
-91.83953665976294
 11
136.1813636494694
 21
-92.24150762567572
 72
1
 10
136.1813636494694
 20
-92.24150762567572
 11
136.5858291833983
 21
-92.24150762567572
 72
1
 10
136.5858291833983
 20
-92.24150762567572
 11
136.5858291833983
 21
-91.83953665976294
 72
1
 10
136.5858291833983
 20
-91.83953665976294
 11
136.1813636494694
 21
-91.83953665976294
 97
0
 75
0
 76
0
 98
1
 10
0.0
 20
0.0
  0
HATCH
  5
46
330
39
100
AcDbEntity
  8
0
100
AcDbHatch
 10
0.0
 20
0.0
 30
0.0
210
0.0
220
0.0
230
1.0
  2

 70
1
 71
0
 91
1
 92
1
 93
6
 72
1
 10
134.62325937255267
 20
-91.83953665976294
 11
134.21228510496599
 21
-91.83953665976294
 72
1
 10
134.21228510496599
 20
-91.83953665976294
 11
134.21228510496599
 21
-92.64347859158845
 72
1
 10
134.21228510496599
 20
-92.64347859158845
 11
135.42902419925605
 21
-92.64347859158845
 72
1
 10
135.42902419925605
 20
-92.64347859158845
 11
135.42902419925605
 21
-92.24150762567572
 72
1
 10
135.42902419925605
 20
-92.24150762567572
 11
134.62325937255267
 21
-92.24150762567572
 72
1
 10
134.62325937255267
 20
-92.24150762567572
 11
134.62325937255267
 21
-91.83953665976294
 97
0
 75
0
 76
0
 98
1
 10
0.0
 20
0.0
  0
HATCH
  5
47
330
39
100
AcDbEntity
  8
0
100
AcDbHatch
 10
0.0
 20
0.0
 30
0.0
210
0.0
220
0.0
230
1.0
  2

 70
1
 71
0
 91
1
 92
1
 93
4
 72
1
 10
135.83653940960266
 20
-94.21180340780047
 11
135.83653940960266
 21
-93.79770950799512
 72
1
 10
135.83653940960266
 20
-93.79770950799512
 11
136.1813636494694
 21
-93.79770950799512
 72
1
 10
136.1813636494694
 20
-93.79770950799512
 11
136.1813636494694
 21
-94.21180340780047
 72
1
 10
136.1813636494694
 20
-94.21180340780047
 11
135.83653940960266
 21
-94.21180340780047
 97
0
 75
0
 76
0
 98
1
 10
0.0
 20
0.0
  0
HATCH
  5
48
330
39
100
AcDbEntity
  8
0
100
AcDbHatch
 10
0.0
 20
0.0
 30
0.0
210
0.0
220
0.0
230
1.0
  2

 70
1
 71
0
 91
1
 92
1
 93
4
 72
1
 10
135.42902419925605
 20
-93.00014806769215
 11
135.42902419925605
 21
-93.79770950799512
 72
1
 10
135.42902419925605
 20
-93.79770950799512
 11
135.83653940960266
 21
-93.79770950799512
 72
1
 10
135.83653940960266
 20
-93.79770950799512
 11
135.83653940960266
 21
-93.00014806769215
 72
1
 10
135.83653940960266
 20
-93.00014806769215
 11
135.42902419925605
 21
-93.00014806769215
 97
0
 75
0
 76
0
 98
1
 10
0.0
 20
0.0
  0
HATCH
  5
49
330
39
100
AcDbEntity
  8
0
100
AcDbHatch
 10
0.0
 20
0.0
 30
0.0
210
0.0
220
0.0
230
1.0
  2

 70
1
 71
0
 91
1
 92
1
 93
4
 72
1
 10
134.62325937255267
 20
-92.64347859158845
 11
134.62325937255267
 21
-93.00014806769215
 72
1
 10
134.62325937255267
 20
-93.00014806769215
 11
135.83653940960266
 21
-93.00014806769215
 72
1
 10
135.83653940960266
 20
-93.00014806769215
 11
135.83653940960266
 21
-92.64347859158845
 72
1
 10
135.83653940960266
 20
-92.64347859158845
 11
134.62325937255267
 21
-92.64347859158845
 97
0
 75
0
 76
0
 98
1
 10
0.0
 20
0.0
  0
HATCH
  5
4A
330
39
100
AcDbEntity
  8
0
100
AcDbHatch
 10
0.0
 20
0.0
 30
0.0
210
0.0
220
0.0
230
1.0
  2

 70
1
 71
0
 91
1
 92
1
 93
6
 72
1
 10
135.83653940960266
 20
-91.83953665976294
 11
135.83653940960266
 21
-91.42747461276984
 72
1
 10
135.83653940960266
 20
-91.42747461276984
 11
136.1813636494694
 21
-91.42747461276984
 72
1
 10
136.1813636494694
 20
-91.42747461276984
 11
136.1813636494694
 21
-92.24150762567572
 72
1
 10
136.1813636494694
 20
-92.24150762567572
 11
135.42902419925605
 21
-92.24150762567572
 72
1
 10
135.42902419925605
 20
-92.24150762567572
 11
135.42902419925605
 21
-91.83953665976294
 72
1
 10
135.42902419925605
 20
-91.83953665976294
 11
135.83653940960266
 21
-91.83953665976294
 97
0
 75
0
 76
0
 98
1
 10
0.0
 20
0.0
  0
HATCH
  5
4B
330
39
100
AcDbEntity
  8
0
100
AcDbHatch
 10
0.0
 20
0.0
 30
0.0
210
0.0
220
0.0
230
1.0
  2

 70
1
 71
0
 91
1
 92
1
 93
4
 72
1
 10
134.62325937255267
 20
-93.79770950799512
 11
134.62325937255267
 21
-93.3957385420824
 72
1
 10
134.62325937255267
 20
-93.3957385420824
 11
135.01821869753093
 21
-93.3957385420824
 72
1
 10
135.01821869753093
 20
-93.3957385420824
 11
135.01821869753093
 21
-93.79770950799512
 72
1
 10
135.01821869753093
 20
-93.79770950799512
 11
134.62325937255267
 21
-93.79770950799512
 97
0
 75
0
 76
0
 98
1
 10
0.0
 20
0.0
  0
HATCH
  5
4C
330
39
100
AcDbEntity
  8
0
100
AcDbHatch
 10
0.0
 20
0.0
 30
0.0
210
0.0
220
0.0
230
1.0
  2

 70
1
 71
0
 91
1
 92
1
 93
4
 72
1
 10
135.01821869753093
 20
-91.83953665976294
 11
135.01821869753093
 21
-91.42747461276984
 72
1
 10
135.01821869753093
 20
-91.42747461276984
 11
135.42902419925605
 21
-91.42747461276984
 72
1
 10
135.42902419925605
 20
-91.42747461276984
 11
135.42902419925605
 21
-91.83953665976294
 72
1
 10
135.42902419925605
 20
-91.83953665976294
 11
135.01821869753093
 21
-91.83953665976294
 97
0
 75
0
 76
0
 98
1
 10
0.0
 20
0.0
  0
HATCH
  5
4D
330
39
100
AcDbEntity
  8
0
100
AcDbHatch
 10
0.0
 20
0.0
 30
0.0
210
0.0
220
0.0
230
1.0
  2

 70
1
 71
0
 91
1
 92
1
 93
4
 72
1
 10
136.99602348403957
 20
-99.89724672038246
 11
136.99602348403957
 21
-101.46657793202031
 72
1
 10
136.99602348403957
 20
-101.46657793202031
 11
137.4058261308732
 21
-101.46657793202031
 72
1
 10
137.4058261308732
 20
-101.46657793202031
 11
137.4058261308732
 21
-99.89724672038246
 72
1
 10
137.4058261308732
 20
-99.89724672038246
 11
136.99602348403957
 21
-99.89724672038246
 97
0
 75
0
 76
0
 98
1
 10
0.0
 20
0.0
  0
HATCH
  5
4E
330
39
100
AcDbEntity
  8
0
100
AcDbHatch
 10
0.0
 20
0.0
 30
0.0
210
0.0
220
0.0
230
1.0
  2

 70
1
 71
0
 91
1
 92
1
 93
4
 72
1
 10
134.21228510496599
 20
-101.46657793202031
 11
134.21228510496599
 21
-100.64872683302362
 72
1
 10
134.21228510496599
 20
-100.64872683302362
 11
134.62325937255267
 21
-100.64872683302362
 72
1
 10
134.62325937255267
 20
-100.64872683302362
 11
134.62325937255267
 21
-101.46657793202031
 72
1
 10
134.62325937255267
 20
-101.46657793202031
 11
134.21228510496599
 21
-101.46657793202031
 97
0
 75
0
 76
0
 98
1
 10
0.0
 20
0.0
  0
HATCH
  5
4F
330
39
100
AcDbEntity
  8
0
100
AcDbHatch
 10
0.0
 20
0.0
 30
0.0
210
0.0
220
0.0
230
1.0
  2

 70
1
 71
0
 91
1
 92
1
 93
4
 72
1
 10
139.01872289289156
 20
-101.46657793202031
 11
139.01872289289156
 21
-101.05991406446874
 72
1
 10
139.01872289289156
 20
-101.05991406446874
 11
139.4320968913952
 21
-101.05991406446874
 72
1
 10
139.4320968913952
 20
-101.05991406446874
 11
139.4320968913952
 21
-101.46657793202031
 72
1
 10
139.4320968913952
 20
-101.46657793202031
 11
139.01872289289156
 21
-101.46657793202031
 97
0
 75
0
 76
0
 98
1
 10
0.0
 20
0.0
  0
HATCH
  5
50
330
39
100
AcDbEntity
  8
0
100
AcDbHatch
 10
0.0
 20
0.0
 30
0.0
210
0.0
220
0.0
230
1.0
  2

 70
1
 71
0
 91
1
 92
1
 93
4
 72
1
 10
134.21228510496599
 20
-100.23753960157838
 11
134.21228510496599
 21
-99.89724672038246
 72
1
 10
134.21228510496599
 20
-99.89724672038246
 11
135.01821869753093
 21
-99.89724672038246
 72
1
 10
135.01821869753093
 20
-99.89724672038246
 11
135.01821869753093
 21
-100.23753960157838
 72
1
 10
135.01821869753093
 20
-100.23753960157838
 11
134.21228510496599
 21
-100.23753960157838
 97
0
 75
0
 76
0
 98
1
 10
0.0
 20
0.0
  0
HATCH
  5
51
330
39
100
AcDbEntity
  8
0
100
AcDbHatch
 10
0.0
 20
0.0
 30
0.0
210
0.0
220
0.0
230
1.0
  2

 70
1
 71
0
 91
1
 92
1
 93
4
 72
1
 10
135.01821869753093
 20
-100.23753960157838
 11
135.83653940960266
 21
-100.23753960157838
 72
1
 10
135.83653940960266
 20
-100.23753960157838
 11
135.83653940960266
 21
-101.05991406446874
 72
1
 10
135.83653940960266
 20
-101.05991406446874
 11
135.01821869753093
 21
-101.05991406446874
 72
1
 10
135.01821869753093
 20
-101.05991406446874
 11
135.01821869753093
 21
-100.23753960157838
 97
0
 75
0
 76
0
 98
1
 10
0.0
 20
0.0
  0
HATCH
  5
52
330
39
100
AcDbEntity
  8
0
100
AcDbHatch
 10
0.0
 20
0.0
 30
0.0
210
0.0
220
0.0
230
1.0
  2

 70
1
 71
0
 91
1
 92
1
 93
4
 72
1
 10
136.1813636494694
 20
-100.64872683302362
 11
137.8081276115596
 21
-100.64872683302362
 72
1
 10
137.8081276115596
 20
-100.64872683302362
 11
137.8081276115596
 21
-101.05991406446874
 72
1
 10
137.8081276115596
 20
-101.05991406446874
 11
136.1813636494694
 21
-101.05991406446874
 72
1
 10
136.1813636494694
 20
-101.05991406446874
 11
136.1813636494694
 21
-100.64872683302362
 97
0
 75
0
 76
0
 98
1
 10
0.0
 20
0.0
  0
HATCH
  5
53
330
39
100
AcDbEntity
  8
0
100
AcDbHatch
 10
0.0
 20
0.0
 30
0.0
210
0.0
220
0.0
230
1.0
  2

 70
1
 71
0
 91
1
 92
1
 93
4
 72
1
 10
137.8081276115596
 20
-100.64872683302362
 11
137.8081276115596
 21
-100.23753960157838
 72
1
 10
137.8081276115596
 20
-100.23753960157838
 11
138.21042909224616
 21
-100.23753960157838
 72
1
 10
138.21042909224616
 20
-100.23753960157838
 11
138.21042909224616
 21
-100.64872683302362
 72
1
 10
138.21042909224616
 20
-100.64872683302362
 11
137.8081276115596
 21
-100.64872683302362
 97
0
 75
0
 76
0
 98
1
 10
0.0
 20
0.0
  0
HATCH
  5
54
330
39
100
AcDbEntity
  8
0
100
AcDbHatch
 10
0.0
 20
0.0
 30
0.0
210
0.0
220
0.0
230
1.0
  2

 70
1
 71
0
 91
1
 92
1
 93
4
 72
1
 10
138.6238030907497
 20
-101.05991406446874
 11
138.6238030907497
 21
-100.64872683302362
 72
1
 10
138.6238030907497
 20
-100.64872683302362
 11
139.01872289289156
 21
-100.64872683302362
 72
1
 10
139.01872289289156
 20
-100.64872683302362
 11
139.01872289289156
 21
-101.05991406446874
 72
1
 10
139.01872289289156
 20
-101.05991406446874
 11
138.6238030907497
 21
-101.05991406446874
 97
0
 75
0
 76
0
 98
1
 10
0.0
 20
0.0
  0
HATCH
  5
55
330
39
100
AcDbEntity
  8
0
100
AcDbHatch
 10
0.0
 20
0.0
 30
0.0
210
0.0
220
0.0
230
1.0
  2

 70
1
 71
0
 91
1
 92
1
 93
4
 72
1
 10
135.83653940960266
 20
-100.64872683302362
 11
135.83653940960266
 21
-98.67999072660434
 72
1
 10
135.83653940960266
 20
-98.67999072660434
 11
136.1813636494694
 21
-98.67999072660434
 72
1
 10
136.1813636494694
 20
-98.67999072660434
 11
136.1813636494694
 21
-100.64872683302362
 72
1
 10
136.1813636494694
 20
-100.64872683302362
 11
135.83653940960266
 21
-100.64872683302362
 97
0
 75
0
 76
0
 98
1
 10
0.0
 20
0.0
  0
HATCH
  5
56
330
39
100
AcDbEntity
  8
0
100
AcDbHatch
 10
0.0
 20
0.0
 30
0.0
210
0.0
220
0.0
230
1.0
  2

 70
1
 71
0
 91
1
 92
1
 93
4
 72
1
 10
137.4058261308732
 20
-99.48818631944475
 11
136.99602348403957
 21
-99.48818631944475
 72
1
 10
136.99602348403957
 20
-99.48818631944475
 11
136.99602348403957
 21
-99.09117795804947
 72
1
 10
136.99602348403957
 20
-99.09117795804947
 11
137.4058261308732
 21
-99.09117795804947
 72
1
 10
137.4058261308732
 20
-99.09117795804947
 11
137.4058261308732
 21
-99.48818631944475
 97
0
 75
0
 76
0
 98
1
 10
0.0
 20
0.0
  0
HATCH
  5
57
330
39
100
AcDbEntity
  8
0
100
AcDbHatch
 10
0.0
 20
0.0
 30
0.0
210
0.0
220
0.0
230
1.0
  2

 70
1
 71
0
 91
1
 92
1
 93
6
 72
1
 10
136.1813636494694
 20
-99.48818631944475
 11
136.5858291833983
 21
-99.48818631944475
 72
1
 10
136.5858291833983
 20
-99.48818631944475
 11
136.5858291833983
 21
-99.89724672038246
 72
1
 10
136.5858291833983
 20
-99.89724672038246
 11
137.4058261308732
 21
-99.89724672038246
 72
1
 10
137.4058261308732
 20
-99.89724672038246
 11
137.4058261308732
 21
-100.23753960157838
 72
1
 10
137.4058261308732
 20
-100.23753960157838
 11
136.1813636494694
 21
-100.23753960157838
 72
1
 10
136.1813636494694
 20
-100.23753960157838
 11
136.1813636494694
 21
-99.48818631944475
 97
0
 75
0
 76
0
 98
1
 10
0.0
 20
0.0
  0
HATCH
  5
58
330
39
100
AcDbEntity
  8
0
100
AcDbHatch
 10
0.0
 20
0.0
 30
0.0
210
0.0
220
0.0
230
1.0
  2

 70
1
 71
0
 91
1
 92
1
 93
4
 72
1
 10
135.01821869753093
 20
-99.48818631944475
 11
135.01821869753093
 21
-99.89724672038246
 72
1
 10
135.01821869753093
 20
-99.89724672038246
 11
135.83653940960266
 21
-99.89724672038246
 72
1
 10
135.83653940960266
 20
-99.89724672038246
 11
135.83653940960266
 21
-99.48818631944475
 72
1
 10
135.83653940960266
 20
-99.48818631944475
 11
135.01821869753093
 21
-99.48818631944475
 97
0
 75
0
 76
0
 98
1
 10
0.0
 20
0.0
  0
HATCH
  5
59
330
39
100
AcDbEntity
  8
0
100
AcDbHatch
 10
0.0
 20
0.0
 30
0.0
210
0.0
220
0.0
230
1.0
  2

 70
1
 71
0
 91
1
 92
1
 93
4
 72
1
 10
134.62325937255267
 20
-99.48818631944475
 11
134.62325937255267
 21
-99.09117795804947
 72
1
 10
134.62325937255267
 20
-99.09117795804947
 11
135.42902419925605
 21
-99.09117795804947
 72
1
 10
135.42902419925605
 20
-99.09117795804947
 11
135.42902419925605
 21
-99.48818631944475
 72
1
 10
135.42902419925605
 20
-99.48818631944475
 11
134.62325937255267
 21
-99.48818631944475
 97
0
 75
0
 76
0
 98
1
 10
0.0
 20
0.0
  0
HATCH
  5
5A
330
39
100
AcDbEntity
  8
0
100
AcDbHatch
 10
0.0
 20
0.0
 30
0.0
210
0.0
220
0.0
230
1.0
  2

 70
1
 71
0
 91
1
 92
1
 93
4
 72
1
 10
137.4058261308732
 20
-99.89724672038246
 11
139.01872289289156
 21
-99.89724672038246
 72
1
 10
139.01872289289156
 20
-99.89724672038246
 11
139.01872289289156
 21
-99.48818631944475
 72
1
 10
139.01872289289156
 20
-99.48818631944475
 11
137.4058261308732
 21
-99.48818631944475
 72
1
 10
137.4058261308732
 20
-99.48818631944475
 11
137.4058261308732
 21
-99.89724672038246
 97
0
 75
0
 76
0
 98
1
 10
0.0
 20
0.0
  0
HATCH
  5
5B
330
39
100
AcDbEntity
  8
0
100
AcDbHatch
 10
0.0
 20
0.0
 30
0.0
210
0.0
220
0.0
230
1.0
  2

 70
1
 71
0
 91
1
 92
1
 93
4
 72
1
 10
138.21042909224616
 20
-99.09117795804947
 11
138.21042909224616
 21
-98.67999072660434
 72
1
 10
138.21042909224616
 20
-98.67999072660434
 11
138.6238030907497
 21
-98.67999072660434
 72
1
 10
138.6238030907497
 20
-98.67999072660434
 11
138.6238030907497
 21
-99.09117795804947
 72
1
 10
138.6238030907497
 20
-99.09117795804947
 11
138.21042909224616
 21
-99.09117795804947
 97
0
 75
0
 76
0
 98
1
 10
0.0
 20
0.0
  0
HATCH
  5
5C
330
39
100
AcDbEntity
  8
0
100
AcDbHatch
 10
0.0
 20
0.0
 30
0.0
210
0.0
220
0.0
230
1.0
  2

 70
1
 71
0
 91
1
 92
1
 93
4
 72
1
 10
139.4320968913952
 20
-99.48818631944475
 11
139.4320968913952
 21
-98.67999072660434
 72
1
 10
139.4320968913952
 20
-98.67999072660434
 11
139.83518417576767
 21
-98.67999072660434
 72
1
 10
139.83518417576767
 20
-98.67999072660434
 11
139.83518417576767
 21
-99.48818631944475
 72
1
 10
139.83518417576767
 20
-99.48818631944475
 11
139.4320968913952
 21
-99.48818631944475
 97
0
 75
0
 76
0
 98
1
 10
0.0
 20
0.0
  0
HATCH
  5
5D
330
39
100
AcDbEntity
  8
0
100
AcDbHatch
 10
0.0
 20
0.0
 30
0.0
210
0.0
220
0.0
230
1.0
  2

 70
1
 71
0
 91
1
 92
1
 93
6
 72
1
 10
139.4320968913952
 20
-99.89724672038246
 11
139.4320968913952
 21
-101.05991406446874
 72
1
 10
139.4320968913952
 20
-101.05991406446874
 11
140.24837965784815
 21
-101.05991406446874
 72
1
 10
140.24837965784815
 20
-101.05991406446874
 11
140.24837965784815
 21
-100.23753960157838
 72
1
 10
140.24837965784815
 20
-100.23753960157838
 11
139.83518417576767
 21
-100.23753960157838
 72
1
 10
139.83518417576767
 20
-100.23753960157838
 11
139.83518417576767
 21
-99.89724672038246
 72
1
 10
139.83518417576767
 20
-99.89724672038246
 11
139.4320968913952
 21
-99.89724672038246
 97
0
 75
0
 76
0
 98
1
 10
0.0
 20
0.0
  0
HATCH
  5
5E
330
39
100
AcDbEntity
  8
0
100
AcDbHatch
 10
0.0
 20
0.0
 30
0.0
210
0.0
220
0.0
230
1.0
  2

 70
1
 71
0
 91
1
 92
1
 93
4
 72
1
 10
139.83518417576767
 20
-99.89724672038246
 11
139.83518417576767
 21
-99.48818631944475
 72
1
 10
139.83518417576767
 20
-99.48818631944475
 11
140.64464089885985
 21
-99.48818631944475
 72
1
 10
140.64464089885985
 20
-99.48818631944475
 11
140.64464089885985
 21
-99.89724672038246
 72
1
 10
140.64464089885985
 20
-99.89724672038246
 11
139.83518417576767
 21
-99.89724672038246
 97
0
 75
0
 76
0
 98
1
 10
0.0
 20
0.0
  0
HATCH
  5
5F
330
39
100
AcDbEntity
  8
0
100
AcDbHatch
 10
0.0
 20
0.0
 30
0.0
210
0.0
220
0.0
230
1.0
  2

 70
1
 71
0
 91
1
 92
1
 93
4
 72
1
 10
133.402225153328
 20
-97.46202578932376
 11
133.402225153328
 21
-97.06501742792842
 72
1
 10
133.402225153328
 20
-97.06501742792842
 11
134.62325937255267
 21
-97.06501742792842
 72
1
 10
134.62325937255267
 20
-97.06501742792842
 11
134.62325937255267
 21
-97.46202578932376
 72
1
 10
134.62325937255267
 20
-97.46202578932376
 11
133.402225153328
 21
-97.46202578932376
 97
0
 75
0
 76
0
 98
1
 10
0.0
 20
0.0
  0
HATCH
  5
60
330
39
100
AcDbEntity
  8
0
100
AcDbHatch
 10
0.0
 20
0.0
 30
0.0
210
0.0
220
0.0
230
1.0
  2

 70
1
 71
0
 91
1
 92
1
 93
4
 72
1
 10
136.1813636494694
 20
-97.06501742792842
 11
136.5858291833983
 21
-97.06501742792842
 72
1
 10
136.5858291833983
 20
-97.06501742792842
 11
136.5858291833983
 21
-97.46202578932376
 72
1
 10
136.5858291833983
 20
-97.46202578932376
 11
136.1813636494694
 21
-97.46202578932376
 72
1
 10
136.1813636494694
 20
-97.46202578932376
 11
136.1813636494694
 21
-97.06501742792842
 97
0
 75
0
 76
0
 98
1
 10
0.0
 20
0.0
  0
HATCH
  5
61
330
39
100
AcDbEntity
  8
0
100
AcDbHatch
 10
0.0
 20
0.0
 30
0.0
210
0.0
220
0.0
230
1.0
  2

 70
1
 71
0
 91
1
 92
1
 93
4
 72
1
 10
139.01872289289156
 20
-97.46202578932376
 11
139.01872289289156
 21
-97.06501742792842
 72
1
 10
139.01872289289156
 20
-97.06501742792842
 11
139.83518417576767
 21
-97.06501742792842
 72
1
 10
139.83518417576767
 20
-97.06501742792842
 11
139.83518417576767
 21
-97.46202578932376
 72
1
 10
139.83518417576767
 20
-97.46202578932376
 11
139.01872289289156
 21
-97.46202578932376
 97
0
 75
0
 76
0
 98
1
 10
0.0
 20
0.0
  0
HATCH
  5
62
330
39
100
AcDbEntity
  8
0
100
AcDbHatch
 10
0.0
 20
0.0
 30
0.0
210
0.0
220
0.0
230
1.0
  2

 70
1
 71
0
 91
1
 92
1
 93
4
 72
1
 10
132.58411789769013
 20
-97.46202578932376
 11
132.58411789769013
 21
-97.06501742792842
 72
1
 10
132.58411789769013
 20
-97.06501742792842
 11
132.17844487836544
 21
-97.06501742792842
 72
1
 10
132.17844487836544
 20
-97.06501742792842
 11
132.17844487836544
 21
-97.46202578932376
 72
1
 10
132.17844487836544
 20
-97.46202578932376
 11
132.58411789769013
 21
-97.46202578932376
 97
0
 75
0
 76
0
 98
1
 10
0.0
 20
0.0
  0
HATCH
  5
63
330
39
100
AcDbEntity
  8
0
100
AcDbHatch
 10
0.0
 20
0.0
 30
0.0
210
0.0
220
0.0
230
1.0
  2

 70
1
 71
0
 91
1
 92
1
 93
4
 72
1
 10
136.1813636494694
 20
-99.09117795804947
 11
136.1813636494694
 21
-97.86612358574392
 72
1
 10
136.1813636494694
 20
-97.86612358574392
 11
136.5858291833983
 21
-97.86612358574392
 72
1
 10
136.5858291833983
 20
-97.86612358574392
 11
136.5858291833983
 21
-99.09117795804947
 72
1
 10
136.5858291833983
 20
-99.09117795804947
 11
136.1813636494694
 21
-99.09117795804947
 97
0
 75
0
 76
0
 98
1
 10
0.0
 20
0.0
  0
HATCH
  5
64
330
39
100
AcDbEntity
  8
0
100
AcDbHatch
 10
0.0
 20
0.0
 30
0.0
210
0.0
220
0.0
230
1.0
  2

 70
1
 71
0
 91
1
 92
1
 93
4
 72
1
 10
132.58411789769013
 20
-97.86612358574392
 11
132.99655213400342
 21
-97.86612358574392
 72
1
 10
132.99655213400342
 20
-97.86612358574392
 11
132.99655213400342
 21
-97.46202578932376
 72
1
 10
132.99655213400342
 20
-97.46202578932376
 11
132.58411789769013
 21
-97.46202578932376
 72
1
 10
132.58411789769013
 20
-97.46202578932376
 11
132.58411789769013
 21
-97.86612358574392
 97
0
 75
0
 76
0
 98
1
 10
0.0
 20
0.0
  0
HATCH
  5
65
330
39
100
AcDbEntity
  8
0
100
AcDbHatch
 10
0.0
 20
0.0
 30
0.0
210
0.0
220
0.0
230
1.0
  2

 70
1
 71
0
 91
1
 92
1
 93
4
 72
1
 10
139.01872289289156
 20
-100.23753960157838
 11
139.01872289289156
 21
-97.86612358574392
 72
1
 10
139.01872289289156
 20
-97.86612358574392
 11
139.4320968913952
 21
-97.86612358574392
 72
1
 10
139.4320968913952
 20
-97.86612358574392
 11
139.4320968913952
 21
-100.23753960157838
 72
1
 10
139.4320968913952
 20
-100.23753960157838
 11
139.01872289289156
 21
-100.23753960157838
 97
0
 75
0
 76
0
 98
1
 10
0.0
 20
0.0
  0
HATCH
  5
66
330
39
100
AcDbEntity
  8
0
100
AcDbHatch
 10
0.0
 20
0.0
 30
0.0
210
0.0
220
0.0
230
1.0
  2

 70
1
 71
0
 91
1
 92
1
 93
4
 72
1
 10
135.42902419925605
 20
-98.67999072660434
 11
135.42902419925605
 21
-98.27731081718908
 72
1
 10
135.42902419925605
 20
-98.27731081718908
 11
135.83653940960266
 21
-98.27731081718908
 72
1
 10
135.83653940960266
 20
-98.27731081718908
 11
135.83653940960266
 21
-98.67999072660434
 72
1
 10
135.83653940960266
 20
-98.67999072660434
 11
135.42902419925605
 21
-98.67999072660434
 97
0
 75
0
 76
0
 98
1
 10
0.0
 20
0.0
  0
HATCH
  5
67
330
39
100
AcDbEntity
  8
0
100
AcDbHatch
 10
0.0
 20
0.0
 30
0.0
210
0.0
220
0.0
230
1.0
  2

 70
1
 71
0
 91
1
 92
1
 93
4
 72
1
 10
134.21228510496599
 20
-99.09117795804947
 11
134.21228510496599
 21
-98.27731081718908
 72
1
 10
134.21228510496599
 20
-98.27731081718908
 11
135.01821869753093
 21
-98.27731081718908
 72
1
 10
135.01821869753093
 20
-98.27731081718908
 11
135.01821869753093
 21
-99.09117795804947
 72
1
 10
135.01821869753093
 20
-99.09117795804947
 11
134.21228510496599
 21
-99.09117795804947
 97
0
 75
0
 76
0
 98
1
 10
0.0
 20
0.0
  0
HATCH
  5
68
330
39
100
AcDbEntity
  8
0
100
AcDbHatch
 10
0.0
 20
0.0
 30
0.0
210
0.0
220
0.0
230
1.0
  2

 70
1
 71
0
 91
1
 92
1
 93
6
 72
1
 10
132.99655213400342
 20
-98.27731081718908
 11
134.21228510496599
 21
-98.27731081718908
 72
1
 10
134.21228510496599
 20
-98.27731081718908
 11
134.21228510496599
 21
-97.46202578932376
 72
1
 10
134.21228510496599
 20
-97.46202578932376
 11
133.80113695566394
 21
-97.46202578932376
 72
1
 10
133.80113695566394
 20
-97.46202578932376
 11
133.80113695566394
 21
-97.86612358574392
 72
1
 10
133.80113695566394
 20
-97.86612358574392
 11
132.99655213400342
 21
-97.86612358574392
 72
1
 10
132.99655213400342
 20
-97.86612358574392
 11
132.99655213400342
 21
-98.27731081718908
 97
0
 75
0
 76
0
 98
1
 10
0.0
 20
0.0
  0
HATCH
  5
69
330
39
100
AcDbEntity
  8
0
100
AcDbHatch
 10
0.0
 20
0.0
 30
0.0
210
0.0
220
0.0
230
1.0
  2

 70
1
 71
0
 91
1
 92
1
 93
4
 72
1
 10
138.21042909224616
 20
-97.86612358574392
 11
137.8081276115596
 21
-97.86612358574392
 72
1
 10
137.8081276115596
 20
-97.86612358574392
 11
137.8081276115596
 21
-98.27731081718908
 72
1
 10
137.8081276115596
 20
-98.27731081718908
 11
138.21042909224616
 21
-98.27731081718908
 72
1
 10
138.21042909224616
 20
-98.27731081718908
 11
138.21042909224616
 21
-97.86612358574392
 97
0
 75
0
 76
0
 98
1
 10
0.0
 20
0.0
  0
HATCH
  5
6A
330
39
100
AcDbEntity
  8
0
100
AcDbHatch
 10
0.0
 20
0.0
 30
0.0
210
0.0
220
0.0
230
1.0
  2

 70
1
 71
0
 91
1
 92
1
 93
4
 72
1
 10
138.6238030907497
 20
-98.27731081718908
 11
138.6238030907497
 21
-97.46202578932376
 72
1
 10
138.6238030907497
 20
-97.46202578932376
 11
139.01872289289156
 21
-97.46202578932376
 72
1
 10
139.01872289289156
 20
-97.46202578932376
 11
139.01872289289156
 21
-98.27731081718908
 72
1
 10
139.01872289289156
 20
-98.27731081718908
 11
138.6238030907497
 21
-98.27731081718908
 97
0
 75
0
 76
0
 98
1
 10
0.0
 20
0.0
  0
HATCH
  5
6B
330
39
100
AcDbEntity
  8
0
100
AcDbHatch
 10
0.0
 20
0.0
 30
0.0
210
0.0
220
0.0
230
1.0
  2

 70
1
 71
0
 91
1
 92
1
 93
4
 72
1
 10
132.99655213400342
 20
-97.06501742792842
 11
132.99655213400342
 21
-96.65524808348827
 72
1
 10
132.99655213400342
 20
-96.65524808348827
 11
133.402225153328
 21
-96.65524808348827
 72
1
 10
133.402225153328
 20
-96.65524808348827
 11
133.402225153328
 21
-97.06501742792842
 72
1
 10
133.402225153328
 20
-97.06501742792842
 11
132.99655213400342
 21
-97.06501742792842
 97
0
 75
0
 76
0
 98
1
 10
0.0
 20
0.0
  0
HATCH
  5
6C
330
39
100
AcDbEntity
  8
0
100
AcDbHatch
 10
0.0
 20
0.0
 30
0.0
210
0.0
220
0.0
230
1.0
  2

 70
1
 71
0
 91
1
 92
1
 93
4
 72
1
 10
132.17844487836544
 20
-97.06501742792842
 11
132.17844487836544
 21
-96.65524808348827
 72
1
 10
132.17844487836544
 20
-96.65524808348827
 11
132.58411789769013
 21
-96.65524808348827
 72
1
 10
132.58411789769013
 20
-96.65524808348827
 11
132.58411789769013
 21
-97.06501742792842
 72
1
 10
132.58411789769013
 20
-97.06501742792842
 11
132.17844487836544
 21
-97.06501742792842
 97
0
 75
0
 76
0
 98
1
 10
0.0
 20
0.0
  0
HATCH
  5
6D
330
39
100
AcDbEntity
  8
0
100
AcDbHatch
 10
0.0
 20
0.0
 30
0.0
210
0.0
220
0.0
230
1.0
  2

 70
1
 71
0
 91
1
 92
1
 93
4
 72
1
 10
135.01821869753093
 20
-97.46202578932376
 11
135.01821869753093
 21
-96.65524808348827
 72
1
 10
135.01821869753093
 20
-96.65524808348827
 11
135.42902419925605
 21
-96.65524808348827
 72
1
 10
135.42902419925605
 20
-96.65524808348827
 11
135.42902419925605
 21
-97.46202578932376
 72
1
 10
135.42902419925605
 20
-97.46202578932376
 11
135.01821869753093
 21
-97.46202578932376
 97
0
 75
0
 76
0
 98
1
 10
0.0
 20
0.0
  0
HATCH
  5
6E
330
39
100
AcDbEntity
  8
0
100
AcDbHatch
 10
0.0
 20
0.0
 30
0.0
210
0.0
220
0.0
230
1.0
  2

 70
1
 71
0
 91
1
 92
1
 93
4
 72
1
 10
136.5858291833983
 20
-97.06501742792842
 11
136.5858291833983
 21
-96.65524808348827
 72
1
 10
136.5858291833983
 20
-96.65524808348827
 11
136.99602348403957
 21
-96.65524808348827
 72
1
 10
136.99602348403957
 20
-96.65524808348827
 11
136.99602348403957
 21
-97.06501742792842
 72
1
 10
136.99602348403957
 20
-97.06501742792842
 11
136.5858291833983
 21
-97.06501742792842
 97
0
 75
0
 76
0
 98
1
 10
0.0
 20
0.0
  0
HATCH
  5
6F
330
39
100
AcDbEntity
  8
0
100
AcDbHatch
 10
0.0
 20
0.0
 30
0.0
210
0.0
220
0.0
230
1.0
  2

 70
1
 71
0
 91
1
 92
1
 93
4
 72
1
 10
135.83653940960266
 20
-97.86612358574392
 11
135.83653940960266
 21
-96.65524808348827
 72
1
 10
135.83653940960266
 20
-96.65524808348827
 11
136.1813636494694
 21
-96.65524808348827
 72
1
 10
136.1813636494694
 20
-96.65524808348827
 11
136.1813636494694
 21
-97.86612358574392
 72
1
 10
136.1813636494694
 20
-97.86612358574392
 11
135.83653940960266
 21
-97.86612358574392
 97
0
 75
0
 76
0
 98
1
 10
0.0
 20
0.0
  0
HATCH
  5
70
330
39
100
AcDbEntity
  8
0
100
AcDbHatch
 10
0.0
 20
0.0
 30
0.0
210
0.0
220
0.0
230
1.0
  2

 70
1
 71
0
 91
1
 92
1
 93
4
 72
1
 10
137.4058261308732
 20
-100.23753960157838
 11
137.8081276115596
 21
-100.23753960157838
 72
1
 10
137.8081276115596
 20
-100.23753960157838
 11
137.8081276115596
 21
-96.65524808348827
 72
1
 10
137.8081276115596
 20
-96.65524808348827
 11
137.4058261308732
 21
-96.65524808348827
 72
1
 10
137.4058261308732
 20
-96.65524808348827
 11
137.4058261308732
 21
-100.23753960157838
 97
0
 75
0
 76
0
 98
1
 10
0.0
 20
0.0
  0
HATCH
  5
71
330
39
100
AcDbEntity
  8
0
100
AcDbHatch
 10
0.0
 20
0.0
 30
0.0
210
0.0
220
0.0
230
1.0
  2

 70
1
 71
0
 91
1
 92
1
 93
4
 72
1
 10
138.6238030907497
 20
-97.06501742792842
 11
138.6238030907497
 21
-96.65524808348827
 72
1
 10
138.6238030907497
 20
-96.65524808348827
 11
139.4320968913952
 21
-96.65524808348827
 72
1
 10
139.4320968913952
 20
-96.65524808348827
 11
139.4320968913952
 21
-97.06501742792842
 72
1
 10
139.4320968913952
 20
-97.06501742792842
 11
138.6238030907497
 21
-97.06501742792842
 97
0
 75
0
 76
0
 98
1
 10
0.0
 20
0.0
  0
HATCH
  5
72
330
39
100
AcDbEntity
  8
0
100
AcDbHatch
 10
0.0
 20
0.0
 30
0.0
210
0.0
220
0.0
230
1.0
  2

 70
1
 71
0
 91
1
 92
1
 93
4
 72
1
 10
134.21228510496599
 20
-96.65524808348827
 11
132.58411789769013
 21
-96.65524808348827
 72
1
 10
132.58411789769013
 20
-96.65524808348827
 11
132.58411789769013
 21
-96.23697141701821
 72
1
 10
132.58411789769013
 20
-96.23697141701821
 11
134.21228510496599
 21
-96.23697141701821
 72
1
 10
134.21228510496599
 20
-96.23697141701821
 11
134.21228510496599
 21
-96.65524808348827
 97
0
 75
0
 76
0
 98
1
 10
0.0
 20
0.0
  0
HATCH
  5
73
330
39
100
AcDbEntity
  8
0
100
AcDbHatch
 10
0.0
 20
0.0
 30
0.0
210
0.0
220
0.0
230
1.0
  2

 70
1
 71
0
 91
1
 92
1
 93
4
 72
1
 10
138.6238030907497
 20
-96.65524808348827
 11
138.6238030907497
 21
-96.23697141701821
 72
1
 10
138.6238030907497
 20
-96.23697141701821
 11
139.01872289289156
 21
-96.23697141701821
 72
1
 10
139.01872289289156
 20
-96.23697141701821
 11
139.01872289289156
 21
-96.65524808348827
 72
1
 10
139.01872289289156
 20
-96.65524808348827
 11
138.6238030907497
 21
-96.65524808348827
 97
0
 75
0
 76
0
 98
1
 10
0.0
 20
0.0
  0
HATCH
  5
74
330
39
100
AcDbEntity
  8
0
100
AcDbHatch
 10
0.0
 20
0.0
 30
0.0
210
0.0
220
0.0
230
1.0
  2

 70
1
 71
0
 91
1
 92
1
 93
4
 72
1
 10
132.58411789769013
 20
-96.23697141701821
 11
132.58411789769013
 21
-95.83996305562282
 72
1
 10
132.58411789769013
 20
-95.83996305562282
 11
133.402225153328
 21
-95.83996305562282
 72
1
 10
133.402225153328
 20
-95.83996305562282
 11
133.402225153328
 21
-96.23697141701821
 72
1
 10
133.402225153328
 20
-96.23697141701821
 11
132.58411789769013
 21
-96.23697141701821
 97
0
 75
0
 76
0
 98
1
 10
0.0
 20
0.0
  0
HATCH
  5
75
330
39
100
AcDbEntity
  8
0
100
AcDbHatch
 10
0.0
 20
0.0
 30
0.0
210
0.0
220
0.0
230
1.0
  2

 70
1
 71
0
 91
1
 92
1
 93
4
 72
1
 10
134.62325937255267
 20
-95.83996305562282
 11
134.62325937255267
 21
-96.65524808348827
 72
1
 10
134.62325937255267
 20
-96.65524808348827
 11
134.21228510496599
 21
-96.65524808348827
 72
1
 10
134.21228510496599
 20
-96.65524808348827
 11
134.21228510496599
 21
-95.83996305562282
 72
1
 10
134.21228510496599
 20
-95.83996305562282
 11
134.62325937255267
 21
-95.83996305562282
 97
0
 75
0
 76
0
 98
1
 10
0.0
 20
0.0
  0
HATCH
  5
76
330
39
100
AcDbEntity
  8
0
100
AcDbHatch
 10
0.0
 20
0.0
 30
0.0
210
0.0
220
0.0
230
1.0
  2

 70
1
 71
0
 91
1
 92
1
 93
6
 72
1
 10
137.4058261308732
 20
-95.83996305562282
 11
138.21042909224616
 21
-95.83996305562282
 72
1
 10
138.21042909224616
 20
-95.83996305562282
 11
138.21042909224616
 21
-96.65524808348827
 72
1
 10
138.21042909224616
 20
-96.65524808348827
 11
137.8081276115596
 21
-96.65524808348827
 72
1
 10
137.8081276115596
 20
-96.65524808348827
 11
137.8081276115596
 21
-96.23697141701821
 72
1
 10
137.8081276115596
 20
-96.23697141701821
 11
137.4058261308732
 21
-96.23697141701821
 72
1
 10
137.4058261308732
 20
-96.23697141701821
 11
137.4058261308732
 21
-95.83996305562282
 97
0
 75
0
 76
0
 98
1
 10
0.0
 20
0.0
  0
HATCH
  5
77
330
39
100
AcDbEntity
  8
0
100
AcDbHatch
 10
0.0
 20
0.0
 30
0.0
210
0.0
220
0.0
230
1.0
  2

 70
1
 71
0
 91
1
 92
1
 93
4
 72
1
 10
136.5858291833983
 20
-96.23697141701821
 11
136.5858291833983
 21
-95.83996305562282
 72
1
 10
136.5858291833983
 20
-95.83996305562282
 11
136.99602348403957
 21
-95.83996305562282
 72
1
 10
136.99602348403957
 20
-95.83996305562282
 11
136.99602348403957
 21
-96.23697141701821
 72
1
 10
136.99602348403957
 20
-96.23697141701821
 11
136.5858291833983
 21
-96.23697141701821
 97
0
 75
0
 76
0
 98
1
 10
0.0
 20
0.0
  0
HATCH
  5
78
330
39
100
AcDbEntity
  8
0
100
AcDbHatch
 10
0.0
 20
0.0
 30
0.0
210
0.0
220
0.0
230
1.0
  2

 70
1
 71
0
 91
1
 92
1
 93
4
 72
1
 10
139.01872289289156
 20
-96.23697141701821
 11
139.01872289289156
 21
-95.83996305562282
 72
1
 10
139.01872289289156
 20
-95.83996305562282
 11
139.4320968913952
 21
-95.83996305562282
 72
1
 10
139.4320968913952
 20
-95.83996305562282
 11
139.4320968913952
 21
-96.23697141701821
 72
1
 10
139.4320968913952
 20
-96.23697141701821
 11
139.01872289289156
 21
-96.23697141701821
 97
0
 75
0
 76
0
 98
1
 10
0.0
 20
0.0
  0
HATCH
  5
79
330
39
100
AcDbEntity
  8
0
100
AcDbHatch
 10
0.0
 20
0.0
 30
0.0
210
0.0
220
0.0
230
1.0
  2

 70
1
 71
0
 91
1
 92
1
 93
4
 72
1
 10
133.402225153328
 20
-95.83996305562282
 11
133.402225153328
 21
-95.4358652592026
 72
1
 10
133.402225153328
 20
-95.4358652592026
 11
133.80113695566394
 21
-95.4358652592026
 72
1
 10
133.80113695566394
 20
-95.4358652592026
 11
133.80113695566394
 21
-95.83996305562282
 72
1
 10
133.80113695566394
 20
-95.83996305562282
 11
133.402225153328
 21
-95.83996305562282
 97
0
 75
0
 76
0
 98
1
 10
0.0
 20
0.0
  0
HATCH
  5
7A
330
39
100
AcDbEntity
  8
0
100
AcDbHatch
 10
0.0
 20
0.0
 30
0.0
210
0.0
220
0.0
230
1.0
  2

 70
1
 71
0
 91
1
 92
1
 93
4
 72
1
 10
139.4320968913952
 20
-95.83996305562282
 11
139.4320968913952
 21
-95.4358652592026
 72
1
 10
139.4320968913952
 20
-95.4358652592026
 11
140.24837965784815
 21
-95.4358652592026
 72
1
 10
140.24837965784815
 20
-95.4358652592026
 11
140.24837965784815
 21
-95.83996305562282
 72
1
 10
140.24837965784815
 20
-95.83996305562282
 11
139.4320968913952
 21
-95.83996305562282
 97
0
 75
0
 76
0
 98
1
 10
0.0
 20
0.0
  0
HATCH
  5
7B
330
39
100
AcDbEntity
  8
0
100
AcDbHatch
 10
0.0
 20
0.0
 30
0.0
210
0.0
220
0.0
230
1.0
  2

 70
1
 71
0
 91
1
 92
1
 93
4
 72
1
 10
137.8081276115596
 20
-95.83996305562282
 11
137.8081276115596
 21
-95.4358652592026
 72
1
 10
137.8081276115596
 20
-95.4358652592026
 11
138.21042909224616
 21
-95.4358652592026
 72
1
 10
138.21042909224616
 20
-95.4358652592026
 11
138.21042909224616
 21
-95.83996305562282
 72
1
 10
138.21042909224616
 20
-95.83996305562282
 11
137.8081276115596
 21
-95.83996305562282
 97
0
 75
0
 76
0
 98
1
 10
0.0
 20
0.0
  0
HATCH
  5
7C
330
39
100
AcDbEntity
  8
0
100
AcDbHatch
 10
0.0
 20
0.0
 30
0.0
210
0.0
220
0.0
230
1.0
  2

 70
1
 71
0
 91
1
 92
1
 93
4
 72
1
 10
131.36709883971628
 20
-97.86612358574392
 11
131.36709883971628
 21
-97.46202578932376
 72
1
 10
131.36709883971628
 20
-97.46202578932376
 11
131.78629429301836
 21
-97.46202578932376
 72
1
 10
131.78629429301836
 20
-97.46202578932376
 11
131.78629429301836
 21
-97.86612358574392
 72
1
 10
131.78629429301836
 20
-97.86612358574392
 11
131.36709883971628
 21
-97.86612358574392
 97
0
 75
0
 76
0
 98
1
 10
0.0
 20
0.0
  0
HATCH
  5
7D
330
39
100
AcDbEntity
  8
0
100
AcDbHatch
 10
0.0
 20
0.0
 30
0.0
210
0.0
220
0.0
230
1.0
  2

 70
1
 71
0
 91
1
 92
1
 93
4
 72
1
 10
131.78629429301836
 20
-96.65524808348827
 11
131.78629429301836
 21
-96.23697141701821
 72
1
 10
131.78629429301836
 20
-96.23697141701821
 11
132.17844487836544
 21
-96.23697141701821
 72
1
 10
132.17844487836544
 20
-96.23697141701821
 11
132.17844487836544
 21
-96.65524808348827
 72
1
 10
132.17844487836544
 20
-96.65524808348827
 11
131.78629429301836
 21
-96.65524808348827
 97
0
 75
0
 76
0
 98
1
 10
0.0
 20
0.0
  0
HATCH
  5
7E
330
39
100
AcDbEntity
  8
0
100
AcDbHatch
 10
0.0
 20
0.0
 30
0.0
210
0.0
220
0.0
230
1.0
  2

 70
1
 71
0
 91
1
 92
1
 93
4
 72
1
 10
131.36709883971628
 20
-96.23697141701821
 11
131.36709883971628
 21
-95.83996305562282
 72
1
 10
131.36709883971628
 20
-95.83996305562282
 11
131.78629429301836
 21
-95.83996305562282
 72
1
 10
131.78629429301836
 20
-95.83996305562282
 11
131.78629429301836
 21
-96.23697141701821
 72
1
 10
131.78629429301836
 20
-96.23697141701821
 11
131.36709883971628
 21
-96.23697141701821
 97
0
 75
0
 76
0
 98
1
 10
0.0
 20
0.0
  0
HATCH
  5
7F
330
39
100
AcDbEntity
  8
0
100
AcDbHatch
 10
0.0
 20
0.0
 30
0.0
210
0.0
220
0.0
230
1.0
  2

 70
1
 71
0
 91
1
 92
1
 93
4
 72
1
 10
131.78629429301836
 20
-95.83996305562282
 11
131.78629429301836
 21
-95.4358652592026
 72
1
 10
131.78629429301836
 20
-95.4358652592026
 11
132.58411789769013
 21
-95.4358652592026
 72
1
 10
132.58411789769013
 20
-95.4358652592026
 11
132.58411789769013
 21
-95.83996305562282
 72
1
 10
132.58411789769013
 20
-95.83996305562282
 11
131.78629429301836
 21
-95.83996305562282
 97
0
 75
0
 76
0
 98
1
 10
0.0
 20
0.0
  0
HATCH
  5
80
330
39
100
AcDbEntity
  8
0
100
AcDbHatch
 10
0.0
 20
0.0
 30
0.0
210
0.0
220
0.0
230
1.0
  2

 70
1
 71
0
 91
1
 92
1
 93
4
 72
1
 10
136.5858291833983
 20
-95.4358652592026
 11
136.5858291833983
 21
-94.61951681608342
 72
1
 10
136.5858291833983
 20
-94.61951681608342
 11
136.99602348403957
 21
-94.61951681608342
 72
1
 10
136.99602348403957
 20
-94.61951681608342
 11
136.99602348403957
 21
-95.4358652592026
 72
1
 10
136.99602348403957
 20
-95.4358652592026
 11
136.5858291833983
 21
-95.4358652592026
 97
0
 75
0
 76
0
 98
1
 10
0.0
 20
0.0
  0
HATCH
  5
81
330
39
100
AcDbEntity
  8
0
100
AcDbHatch
 10
0.0
 20
0.0
 30
0.0
210
0.0
220
0.0
230
1.0
  2

 70
1
 71
0
 91
1
 92
1
 93
4
 72
1
 10
136.1813636494694
 20
-94.61951681608342
 11
136.1813636494694
 21
-94.21180340780047
 72
1
 10
136.1813636494694
 20
-94.21180340780047
 11
136.5858291833983
 21
-94.21180340780047
 72
1
 10
136.5858291833983
 20
-94.21180340780047
 11
136.5858291833983
 21
-94.61951681608342
 72
1
 10
136.5858291833983
 20
-94.61951681608342
 11
136.1813636494694
 21
-94.61951681608342
 97
0
 75
0
 76
0
 98
1
 10
0.0
 20
0.0
  0
HATCH
  5
82
330
39
100
AcDbEntity
  8
0
100
AcDbHatch
 10
0.0
 20
0.0
 30
0.0
210
0.0
220
0.0
230
1.0
  2

 70
1
 71
0
 91
1
 92
1
 93
6
 72
1
 10
134.62325937255267
 20
-94.61951681608342
 11
135.42902419925605
 21
-94.61951681608342
 72
1
 10
135.42902419925605
 20
-94.61951681608342
 11
135.42902419925605
 21
-93.79770950799512
 72
1
 10
135.42902419925605
 20
-93.79770950799512
 11
135.01821869753093
 21
-93.79770950799512
 72
1
 10
135.01821869753093
 20
-93.79770950799512
 11
135.01821869753093
 21
-94.21180340780047
 72
1
 10
135.01821869753093
 20
-94.21180340780047
 11
134.62325937255267
 21
-94.21180340780047
 72
1
 10
134.62325937255267
 20
-94.21180340780047
 11
134.62325937255267
 21
-94.61951681608342
 97
0
 75
0
 76
0
 98
1
 10
0.0
 20
0.0
  0
HATCH
  5
83
330
39
100
AcDbEntity
  8
0
100
AcDbHatch
 10
0.0
 20
0.0
 30
0.0
210
0.0
220
0.0
230
1.0
  2

 70
1
 71
0
 91
1
 92
1
 93
4
 72
1
 10
134.21228510496599
 20
-93.00014806769215
 11
134.21228510496599
 21
-94.61951681608342
 72
1
 10
134.21228510496599
 20
-94.61951681608342
 11
134.62325937255267
 21
-94.61951681608342
 72
1
 10
134.62325937255267
 20
-94.61951681608342
 11
134.62325937255267
 21
-93.00014806769215
 72
1
 10
134.62325937255267
 20
-93.00014806769215
 11
134.21228510496599
 21
-93.00014806769215
 97
0
 75
0
 76
0
 98
1
 10
0.0
 20
0.0
  0
HATCH
  5
84
330
39
100
AcDbEntity
  8
0
100
AcDbHatch
 10
0.0
 20
0.0
 30
0.0
210
0.0
220
0.0
230
1.0
  2

 70
1
 71
0
 91
1
 92
1
 93
4
 72
1
 10
132.17844487836544
 20
-95.03176746278238
 11
132.17844487836544
 21
-94.61951681608342
 72
1
 10
132.17844487836544
 20
-94.61951681608342
 11
132.58411789769013
 21
-94.61951681608342
 72
1
 10
132.58411789769013
 20
-94.61951681608342
 11
132.58411789769013
 21
-95.03176746278238
 72
1
 10
132.58411789769013
 20
-95.03176746278238
 11
132.17844487836544
 21
-95.03176746278238
 97
0
 75
0
 76
0
 98
1
 10
0.0
 20
0.0
  0
HATCH
  5
85
330
39
100
AcDbEntity
  8
0
100
AcDbHatch
 10
0.0
 20
0.0
 30
0.0
210
0.0
220
0.0
230
1.0
  2

 70
1
 71
0
 91
1
 92
1
 93
4
 72
1
 10
133.402225153328
 20
-95.03176746278238
 11
133.402225153328
 21
-94.61951681608342
 72
1
 10
133.402225153328
 20
-94.61951681608342
 11
134.21228510496599
 21
-94.61951681608342
 72
1
 10
134.21228510496599
 20
-94.61951681608342
 11
134.21228510496599
 21
-95.03176746278238
 72
1
 10
134.21228510496599
 20
-95.03176746278238
 11
133.402225153328
 21
-95.03176746278238
 97
0
 75
0
 76
0
 98
1
 10
0.0
 20
0.0
  0
HATCH
  5
86
330
39
100
AcDbEntity
  8
0
100
AcDbHatch
 10
0.0
 20
0.0
 30
0.0
210
0.0
220
0.0
230
1.0
  2

 70
1
 71
0
 91
1
 92
1
 93
4
 72
1
 10
133.402225153328
 20
-95.4358652592026
 11
131.78629429301836
 21
-95.4358652592026
 72
1
 10
131.78629429301836
 20
-95.4358652592026
 11
131.78629429301836
 21
-95.03176746278238
 72
1
 10
131.78629429301836
 20
-95.03176746278238
 11
133.402225153328
 21
-95.03176746278238
 72
1
 10
133.402225153328
 20
-95.03176746278238
 11
133.402225153328
 21
-95.4358652592026
 97
0
 75
0
 76
0
 98
1
 10
0.0
 20
0.0
  0
HATCH
  5
87
330
39
100
AcDbEntity
  8
0
100
AcDbHatch
 10
0.0
 20
0.0
 30
0.0
210
0.0
220
0.0
230
1.0
  2

 70
1
 71
0
 91
1
 92
1
 93
6
 72
1
 10
135.42902419925605
 20
-95.83996305562282
 11
134.21228510496599
 21
-95.83996305562282
 72
1
 10
134.21228510496599
 20
-95.83996305562282
 11
134.21228510496599
 21
-95.03176746278238
 72
1
 10
134.21228510496599
 20
-95.03176746278238
 11
134.62325937255267
 21
-95.03176746278238
 72
1
 10
134.62325937255267
 20
-95.03176746278238
 11
134.62325937255267
 21
-95.4358652592026
 72
1
 10
134.62325937255267
 20
-95.4358652592026
 11
135.42902419925605
 21
-95.4358652592026
 72
1
 10
135.42902419925605
 20
-95.4358652592026
 11
135.42902419925605
 21
-95.83996305562282
 97
0
 75
0
 76
0
 98
1
 10
0.0
 20
0.0
  0
HATCH
  5
88
330
39
100
AcDbEntity
  8
0
100
AcDbHatch
 10
0.0
 20
0.0
 30
0.0
210
0.0
220
0.0
230
1.0
  2

 70
1
 71
0
 91
1
 92
1
 93
4
 72
1
 10
138.21042909224616
 20
-95.03176746278238
 11
138.21042909224616
 21
-98.27731081718908
 72
1
 10
138.21042909224616
 20
-98.27731081718908
 11
138.6238030907497
 21
-98.27731081718908
 72
1
 10
138.6238030907497
 20
-98.27731081718908
 11
138.6238030907497
 21
-95.03176746278238
 72
1
 10
138.6238030907497
 20
-95.03176746278238
 11
138.21042909224616
 21
-95.03176746278238
 97
0
 75
0
 76
0
 98
1
 10
0.0
 20
0.0
  0
HATCH
  5
89
330
39
100
AcDbEntity
  8
0
100
AcDbHatch
 10
0.0
 20
0.0
 30
0.0
210
0.0
220
0.0
230
1.0
  2

 70
1
 71
0
 91
1
 92
1
 93
6
 72
1
 10
139.83518417576767
 20
-95.03176746278238
 11
139.83518417576767
 21
-94.61951681608342
 72
1
 10
139.83518417576767
 20
-94.61951681608342
 11
140.64464089885985
 21
-94.61951681608342
 72
1
 10
140.64464089885985
 20
-94.61951681608342
 11
140.64464089885985
 21
-95.4358652592026
 72
1
 10
140.64464089885985
 20
-95.4358652592026
 11
140.24837965784815
 21
-95.4358652592026
 72
1
 10
140.24837965784815
 20
-95.4358652592026
 11
140.24837965784815
 21
-95.03176746278238
 72
1
 10
140.24837965784815
 20
-95.03176746278238
 11
139.83518417576767
 21
-95.03176746278238
 97
0
 75
0
 76
0
 98
1
 10
0.0
 20
0.0
  0
HATCH
  5
8A
330
39
100
AcDbEntity
  8
0
100
AcDbHatch
 10
0.0
 20
0.0
 30
0.0
210
0.0
220
0.0
230
1.0
  2

 70
1
 71
0
 91
1
 92
1
 93
4
 72
1
 10
138.21042909224616
 20
-95.03176746278238
 11
138.21042909224616
 21
-94.61951681608342
 72
1
 10
138.21042909224616
 20
-94.61951681608342
 11
139.4320968913952
 21
-94.61951681608342
 72
1
 10
139.4320968913952
 20
-94.61951681608342
 11
139.4320968913952
 21
-95.03176746278238
 72
1
 10
139.4320968913952
 20
-95.03176746278238
 11
138.21042909224616
 21
-95.03176746278238
 97
0
 75
0
 76
0
 98
1
 10
0.0
 20
0.0
  0
HATCH
  5
8B
330
39
100
AcDbEntity
  8
0
100
AcDbHatch
 10
0.0
 20
0.0
 30
0.0
210
0.0
220
0.0
230
1.0
  2

 70
1
 71
0
 91
1
 92
1
 93
4
 72
1
 10
136.1813636494694
 20
-95.03176746278238
 11
136.1813636494694
 21
-95.4358652592026
 72
1
 10
136.1813636494694
 20
-95.4358652592026
 11
136.5858291833983
 21
-95.4358652592026
 72
1
 10
136.5858291833983
 20
-95.4358652592026
 11
136.5858291833983
 21
-95.03176746278238
 72
1
 10
136.5858291833983
 20
-95.03176746278238
 11
136.1813636494694
 21
-95.03176746278238
 97
0
 75
0
 76
0
 98
1
 10
0.0
 20
0.0
  0
HATCH
  5
8C
330
39
100
AcDbEntity
  8
0
100
AcDbHatch
 10
0.0
 20
0.0
 30
0.0
210
0.0
220
0.0
230
1.0
  2

 70
1
 71
0
 91
1
 92
1
 93
4
 72
1
 10
135.42902419925605
 20
-95.03176746278238
 11
135.42902419925605
 21
-96.23697141701821
 72
1
 10
135.42902419925605
 20
-96.23697141701821
 11
136.1813636494694
 21
-96.23697141701821
 72
1
 10
136.1813636494694
 20
-96.23697141701821
 11
136.1813636494694
 21
-95.03176746278238
 72
1
 10
136.1813636494694
 20
-95.03176746278238
 11
135.42902419925605
 21
-95.03176746278238
 97
0
 75
0
 76
0
 98
1
 10
0.0
 20
0.0
  0
HATCH
  5
8D
330
39
100
AcDbEntity
  8
0
100
AcDbHatch
 10
0.0
 20
0.0
 30
0.0
210
0.0
220
0.0
230
1.0
  2

 70
1
 71
0
 91
1
 92
1
 93
4
 72
1
 10
135.83653940960266
 20
-94.61951681608342
 11
135.01821869753093
 21
-94.61951681608342
 72
1
 10
135.01821869753093
 20
-94.61951681608342
 11
135.01821869753093
 21
-95.03176746278238
 72
1
 10
135.01821869753093
 20
-95.03176746278238
 11
135.83653940960266
 21
-95.03176746278238
 72
1
 10
135.83653940960266
 20
-95.03176746278238
 11
135.83653940960266
 21
-94.61951681608342
 97
0
 75
0
 76
0
 98
1
 10
0.0
 20
0.0
  0
HATCH
  5
8E
330
39
100
AcDbEntity
  8
0
100
AcDbHatch
 10
0.0
 20
0.0
 30
0.0
210
0.0
220
0.0
230
1.0
  2

 70
1
 71
0
 91
1
 92
1
 93
4
 72
1
 10
130.96250341721114
 20
-101.07290058069954
 11
130.96250341721114
 21
-99.03637834544794
 72
1
 10
130.96250341721114
 20
-99.03637834544794
 11
131.32759423809654
 21
-99.03637834544794
 72
1
 10
131.32759423809654
 20
-99.03637834544794
 11
131.32759423809654
 21
-101.07290058069954
 72
1
 10
131.32759423809654
 20
-101.07290058069954
 11
130.96250341721114
 21
-101.07290058069954
 97
0
 75
0
 76
0
 98
1
 10
0.0
 20
0.0
  0
HATCH
  5
8F
330
39
100
AcDbEntity
  8
0
100
AcDbHatch
 10
0.0
 20
0.0
 30
0.0
210
0.0
220
0.0
230
1.0
  2

 70
1
 71
0
 91
1
 92
1
 93
4
 72
1
 10
130.96250341721114
 20
-98.67699206863894
 11
133.75773001461505
 21
-98.67699206863894
 72
1
 10
133.75773001461505
 20
-98.67699206863894
 11
133.75773001461505
 21
-99.03637834544794
 72
1
 10
133.75773001461505
 20
-99.03637834544794
 11
130.96250341721114
 21
-99.03637834544794
 72
1
 10
130.96250341721114
 20
-99.03637834544794
 11
130.96250341721114
 21
-98.67699206863894
 97
0
 75
0
 76
0
 98
1
 10
0.0
 20
0.0
  0
HATCH
  5
90
330
39
100
AcDbEntity
  8
0
100
AcDbHatch
 10
0.0
 20
0.0
 30
0.0
210
0.0
220
0.0
230
1.0
  2

 70
1
 71
0
 91
1
 92
1
 93
4
 72
1
 10
140.64464089885985
 20
-98.27731081718908
 11
140.64464089885985
 21
-97.86612358574392
 72
1
 10
140.64464089885985
 20
-97.86612358574392
 11
141.05702877243505
 21
-97.86612358574392
 72
1
 10
141.05702877243505
 20
-97.86612358574392
 11
141.05702877243505
 21
-98.27731081718908
 72
1
 10
141.05702877243505
 20
-98.27731081718908
 11
140.64464089885985
 21
-98.27731081718908
 97
0
 75
0
 76
0
 98
1
 10
0.0
 20
0.0
  0
HATCH
  5
91
330
39
100
AcDbEntity
  8
0
100
AcDbHatch
 10
0.0
 20
0.0
 30
0.0
210
0.0
220
0.0
230
1.0
  2

 70
1
 71
0
 91
1
 92
1
 93
6
 72
1
 10
140.24837965784815
 20
-101.46657793202031
 11
140.24837965784815
 21
-100.64872683302362
 72
1
 10
140.24837965784815
 20
-100.64872683302362
 11
140.64464089885985
 21
-100.64872683302362
 72
1
 10
140.64464089885985
 20
-100.64872683302362
 11
140.64464089885985
 21
-100.23753960157838
 72
1
 10
140.64464089885985
 20
-100.23753960157838
 11
141.05702877243505
 21
-100.23753960157838
 72
1
 10
141.05702877243505
 20
-100.23753960157838
 11
141.05702877243505
 21
-101.46657793202031
 72
1
 10
141.05702877243505
 20
-101.46657793202031
 11
140.24837965784815
 21
-101.46657793202031
 97
0
 75
0
 76
0
 98
1
 10
0.0
 20
0.0
  0
HATCH
  5
92
330
39
100
AcDbEntity
  8
0
100
AcDbHatch
 10
0.0
 20
0.0
 30
0.0
210
0.0
220
0.0
230
1.0
  2

 70
1
 71
0
 91
1
 92
1
 93
4
 72
1
 10
140.24837965784815
 20
-99.09117795804947
 11
140.24837965784815
 21
-98.67999072660434
 72
1
 10
140.24837965784815
 20
-98.67999072660434
 11
141.05702877243505
 21
-98.67999072660434
 72
1
 10
141.05702877243505
 20
-98.67999072660434
 11
141.05702877243505
 21
-99.09117795804947
 72
1
 10
141.05702877243505
 20
-99.09117795804947
 11
140.24837965784815
 21
-99.09117795804947
 97
0
 75
0
 76
0
 98
1
 10
0.0
 20
0.0
  0
HATCH
  5
93
330
39
100
AcDbEntity
  8
0
100
AcDbHatch
 10
0.0
 20
0.0
 30
0.0
210
0.0
220
0.0
230
1.0
  2

 70
1
 71
0
 91
1
 92
1
 93
4
 72
1
 10
139.83518417576767
 20
-99.48818631944475
 11
139.83518417576767
 21
-99.09117795804947
 72
1
 10
139.83518417576767
 20
-99.09117795804947
 11
141.05702877243505
 21
-99.09117795804947
 72
1
 10
141.05702877243505
 20
-99.09117795804947
 11
141.05702877243505
 21
-99.48818631944475
 72
1
 10
141.05702877243505
 20
-99.48818631944475
 11
139.83518417576767
 21
-99.48818631944475
 97
0
 75
0
 76
0
 98
1
 10
0.0
 20
0.0
  0
HATCH
  5
94
330
39
100
AcDbEntity
  8
0
100
AcDbHatch
 10
0.0
 20
0.0
 30
0.0
210
0.0
220
0.0
230
1.0
  2

 70
1
 71
0
 91
1
 92
1
 93
8
 72
1
 10
140.64464089885985
 20
-96.23697141701821
 11
140.64464089885985
 21
-95.83996305562282
 72
1
 10
140.64464089885985
 20
-95.83996305562282
 11
141.05702877243505
 21
-95.83996305562282
 72
1
 10
141.05702877243505
 20
-95.83996305562282
 11
141.05702877243505
 21
-96.65524808348827
 72
1
 10
141.05702877243505
 20
-96.65524808348827
 11
140.24837965784815
 21
-96.65524808348827
 72
1
 10
140.24837965784815
 20
-96.65524808348827
 11
140.24837965784815
 21
-97.06501742792842
 72
1
 10
140.24837965784815
 20
-97.06501742792842
 11
139.83518417576767
 21
-97.06501742792842
 72
1
 10
139.83518417576767
 20
-97.06501742792842
 11
139.83518417576767
 21
-96.23697141701821
 72
1
 10
139.83518417576767
 20
-96.23697141701821
 11
140.64464089885985
 21
-96.23697141701821
 97
0
 75
0
 76
0
 98
1
 10
0.0
 20
0.0
  0
HATCH
  5
95
330
39
100
AcDbEntity
  8
0
100
AcDbHatch
 10
0.0
 20
0.0
 30
0.0
210
0.0
220
0.0
230
1.0
  2

 70
1
 71
0
 91
1
 92
1
 93
4
 72
1
 10
130.96766903798166
 20
-97.46202578932376
 11
130.96766903798166
 21
-97.06501742792842
 72
1
 10
130.96766903798166
 20
-97.06501742792842
 11
131.36709883971628
 21
-97.06501742792842
 72
1
 10
131.36709883971628
 20
-97.06501742792842
 11
131.36709883971628
 21
-97.46202578932376
 72
1
 10
131.36709883971628
 20
-97.46202578932376
 11
130.96766903798166
 21
-97.46202578932376
 97
0
 75
0
 76
0
 98
1
 10
0.0
 20
0.0
  0
HATCH
  5
96
330
39
100
AcDbEntity
  8
0
100
AcDbHatch
 10
0.0
 20
0.0
 30
0.0
210
0.0
220
0.0
230
1.0
  2

 70
1
 71
0
 91
1
 92
1
 93
4
 72
1
 10
132.17844487836544
 20
-98.27731081718908
 11
130.96766903798166
 21
-98.27731081718908
 72
1
 10
130.96766903798166
 20
-98.27731081718908
 11
130.96766903798166
 21
-97.86612358574392
 72
1
 10
130.96766903798166
 20
-97.86612358574392
 11
132.17844487836544
 21
-97.86612358574392
 72
1
 10
132.17844487836544
 20
-97.86612358574392
 11
132.17844487836544
 21
-98.27731081718908
 97
0
 75
0
 76
0
 98
1
 10
0.0
 20
0.0
  0
HATCH
  5
97
330
39
100
AcDbEntity
  8
0
100
AcDbHatch
 10
0.0
 20
0.0
 30
0.0
210
0.0
220
0.0
230
1.0
  2

 70
1
 71
0
 91
1
 92
1
 93
4
 72
1
 10
130.96766903798166
 20
-96.65524808348827
 11
130.96766903798166
 21
-96.23697141701821
 72
1
 10
130.96766903798166
 20
-96.23697141701821
 11
131.36709883971628
 21
-96.23697141701821
 72
1
 10
131.36709883971628
 20
-96.23697141701821
 11
131.36709883971628
 21
-96.65524808348827
 72
1
 10
131.36709883971628
 20
-96.65524808348827
 11
130.96766903798166
 21
-96.65524808348827
 97
0
 75
0
 76
0
 98
1
 10
0.0
 20
0.0
  0
HATCH
  5
98
330
39
100
AcDbEntity
  8
0
100
AcDbHatch
 10
0.0
 20
0.0
 30
0.0
210
0.0
220
0.0
230
1.0
  2

 70
1
 71
0
 91
1
 92
1
 93
4
 72
1
 10
130.96766903798166
 20
-95.83996305562282
 11
130.96766903798166
 21
-95.4358652592026
 72
1
 10
130.96766903798166
 20
-95.4358652592026
 11
131.36709883971628
 21
-95.4358652592026
 72
1
 10
131.36709883971628
 20
-95.4358652592026
 11
131.36709883971628
 21
-95.83996305562282
 72
1
 10
131.36709883971628
 20
-95.83996305562282
 11
130.96766903798166
 21
-95.83996305562282
 97
0
 75
0
 76
0
 98
1
 10
0.0
 20
0.0
  0
HATCH
  5
99
330
39
100
AcDbEntity
  8
0
100
AcDbHatch
 10
0.0
 20
0.0
 30
0.0
210
0.0
220
0.0
230
1.0
  2

 70
1
 71
0
 91
1
 92
1
 93
4
 72
1
 10
131.78629429301836
 20
-95.03176746278238
 11
130.96766903798166
 21
-95.03176746278238
 72
1
 10
130.96766903798166
 20
-95.03176746278238
 11
130.96766903798166
 21
-94.61951681608342
 72
1
 10
130.96766903798166
 20
-94.61951681608342
 11
131.78629429301836
 21
-94.61951681608342
 72
1
 10
131.78629429301836
 20
-94.61951681608342
 11
131.78629429301836
 21
-95.03176746278238
 97
0
 75
0
 76
0
 98
1
 10
0.0
 20
0.0
  0
HATCH
  5
9A
330
39
100
AcDbEntity
  8
0
100
AcDbHatch
 10
0.0
 20
0.0
 30
0.0
210
0.0
220
0.0
230
1.0
  2

 70
1
 71
0
 91
1
 92
1
 93
4
 72
1
 10
131.76684413197432
 20
-99.48133278340204
 11
132.9533892998519
 21
-99.48133278340204
 72
1
 10
132.9533892998519
 20
-99.48133278340204
 11
132.9533892998519
 21
-100.6450597749744
 72
1
 10
132.9533892998519
 20
-100.6450597749744
 11
131.76684413197432
 21
-100.6450597749744
 72
1
 10
131.76684413197432
 20
-100.6450597749744
 11
131.76684413197432
 21
-99.48133278340204
 97
0
 75
0
 76
0
 98
1
 10
0.0
 20
0.0
  0
HATCH
  5
9B
330
39
100
AcDbEntity
  8
0
100
AcDbHatch
 10
0.0
 20
0.0
 30
0.0
210
0.0
220
0.0
230
1.0
  2

 70
1
 71
0
 91
1
 92
1
 93
4
 72
1
 10
130.96250341721114
 20
-101.07290058069954
 11
133.40404828188235
 21
-101.07290058069954
 72
1
 10
133.40404828188235
 20
-101.07290058069954
 11
133.40404828188235
 21
-101.46651412196657
 72
1
 10
133.40404828188235
 20
-101.46651412196657
 11
130.96250341721114
 21
-101.46651412196657
 72
1
 10
130.96250341721114
 20
-101.46651412196657
 11
130.96250341721114
 21
-101.07290058069954
 97
0
 75
0
 76
0
 98
1
 10
0.0
 20
0.0
  0
HATCH
  5
9C
330
39
100
AcDbEntity
  8
0
100
AcDbHatch
 10
0.0
 20
0.0
 30
0.0
210
0.0
220
0.0
230
1.0
  2

 70
1
 71
0
 91
1
 92
1
 93
4
 72
1
 10
133.40404828188235
 20
-101.46651412196657
 11
133.40404828188235
 21
-99.03637834544794
 72
1
 10
133.40404828188235
 20
-99.03637834544794
 11
133.75773001461505
 21
-99.03637834544794
 72
1
 10
133.75773001461505
 20
-99.03637834544794
 11
133.75773001461505
 21
-101.46651412196657
 72
1
 10
133.75773001461505
 20
-101.46651412196657
 11
133.40404828188235
 21
-101.46651412196657
 97
0
 75
0
 76
0
 98
1
 10
0.0
 20
0.0
  0
HATCH
  5
9D
330
39
100
AcDbEntity
  8
0
100
AcDbHatch
 10
0.0
 20
0.0
 30
0.0
210
0.0
220
0.0
230
1.0
  2

 70
1
 71
0
 91
1
 92
1
 93
4
 72
1
 10
139.0358553376876
 20
-92.193386980445
 11
140.25152444513964
 21
-92.193386980445
 72
1
 10
140.25152444513964
 20
-92.193386980445
 11
140.25152444513964
 21
-93.3957385420824
 72
1
 10
140.25152444513964
 20
-93.3957385420824
 11
139.0358553376876
 21
-93.3957385420824
 72
1
 10
139.0358553376876
 20
-93.3957385420824
 11
139.0358553376876
 21
-92.193386980445
 97
0
 75
0
 76
0
 98
1
 10
0.0
 20
0.0
  0
HATCH
  5
9E
330
39
100
AcDbEntity
  8
0
100
AcDbHatch
 10
0.0
 20
0.0
 30
0.0
210
0.0
220
0.0
230
1.0
  2

 70
1
 71
0
 91
1
 92
1
 93
4
 72
1
 10
140.70616492434942
 20
-91.43235835220257
 11
141.05702877243505
 21
-91.43235835220257
 72
1
 10
141.05702877243505
 20
-91.43235835220257
 11
141.05702877243505
 21
-94.21950215953161
 72
1
 10
141.05702877243505
 20
-94.21950215953161
 11
140.70616492434942
 21
-94.21950215953161
 72
1
 10
140.70616492434942
 20
-94.21950215953161
 11
140.70616492434942
 21
-91.43235835220257
 97
0
 75
0
 76
0
 98
1
 10
0.0
 20
0.0
  0
HATCH
  5
9F
330
39
100
AcDbEntity
  8
0
100
AcDbHatch
 10
0.0
 20
0.0
 30
0.0
210
0.0
220
0.0
230
1.0
  2

 70
1
 71
0
 91
1
 92
1
 93
4
 72
1
 10
138.63557404620946
 20
-91.78816394462761
 11
140.70616492434942
 21
-91.78816394462761
 72
1
 10
140.70616492434942
 20
-91.78816394462761
 11
140.70616492434942
 21
-91.43235835220257
 72
1
 10
140.70616492434942
 20
-91.43235835220257
 11
138.63557404620946
 21
-91.43235835220257
 72
1
 10
138.63557404620946
 20
-91.43235835220257
 11
138.63557404620946
 21
-91.78816394462761
 97
0
 75
0
 76
0
 98
1
 10
0.0
 20
0.0
  0
HATCH
  5
A0
330
39
100
AcDbEntity
  8
0
100
AcDbHatch
 10
0.0
 20
0.0
 30
0.0
210
0.0
220
0.0
230
1.0
  2

 70
1
 71
0
 91
1
 92
1
 93
4
 72
1
 10
138.25011798774915
 20
-93.85381307842817
 11
138.25011798774915
 21
-91.43235835220257
 72
1
 10
138.25011798774915
 20
-91.43235835220257
 11
138.63557404620946
 21
-91.43235835220257
 72
1
 10
138.63557404620946
 20
-91.43235835220257
 11
138.63557404620946
 21
-93.85381307842817
 72
1
 10
138.63557404620946
 20
-93.85381307842817
 11
138.25011798774915
 21
-93.85381307842817
 97
0
 75
0
 76
0
 98
1
 10
0.0
 20
0.0
  0
HATCH
  5
A1
330
39
100
AcDbEntity
  8
0
100
AcDbHatch
 10
0.0
 20
0.0
 30
0.0
210
0.0
220
0.0
230
1.0
  2

 70
1
 71
0
 91
1
 92
1
 93
4
 72
1
 10
138.25011798774915
 20
-93.85381307842817
 11
140.70616492434942
 21
-93.85381307842817
 72
1
 10
140.70616492434942
 20
-93.85381307842817
 11
140.70616492434942
 21
-94.21950215953161
 72
1
 10
140.70616492434942
 20
-94.21950215953161
 11
138.25011798774915
 21
-94.21950215953161
 72
1
 10
138.25011798774915
 20
-94.21950215953161
 11
138.25011798774915
 21
-93.85381307842817
 97
0
 75
0
 76
0
 98
1
 10
0.0
 20
0.0
  0
HATCH
  5
A2
330
39
100
AcDbEntity
  8
0
100
AcDbHatch
 10
0.0
 20
0.0
 30
0.0
210
0.0
220
0.0
230
1.0
  2

 70
1
 71
0
 91
1
 92
1
 93
4
 72
1
 10
131.7420548256003
 20
-92.19883663681098
 11
132.97596624543218
 21
-92.19883663681098
 72
1
 10
132.97596624543218
 20
-92.19883663681098
 11
132.97596624543218
 21
-93.41572858878313
 72
1
 10
132.97596624543218
 20
-93.41572858878313
 11
131.7420548256003
 21
-93.41572858878313
 72
1
 10
131.7420548256003
 20
-93.41572858878313
 11
131.7420548256003
 21
-92.19883663681098
 97
0
 75
0
 76
0
 98
1
 10
0.0
 20
0.0
  0
HATCH
  5
A3
330
39
100
AcDbEntity
  8
0
100
AcDbHatch
 10
0.0
 20
0.0
 30
0.0
210
0.0
220
0.0
230
1.0
  2

 70
1
 71
0
 91
1
 92
1
 93
4
 72
1
 10
131.3420973308962
 20
-94.22415331212132
 11
130.96766903798166
 21
-94.22415331212132
 72
1
 10
130.96766903798166
 20
-94.22415331212132
 11
130.96766903798166
 21
-91.78185967424717
 72
1
 10
130.96766903798166
 20
-91.78185967424717
 11
131.3420973308962
 21
-91.78185967424717
 72
1
 10
131.3420973308962
 20
-91.78185967424717
 11
131.3420973308962
 21
-94.22415331212132
 97
0
 75
0
 76
0
 98
1
 10
0.0
 20
0.0
  0
HATCH
  5
A4
330
39
100
AcDbEntity
  8
0
100
AcDbHatch
 10
0.0
 20
0.0
 30
0.0
210
0.0
220
0.0
230
1.0
  2

 70
1
 71
0
 91
1
 92
1
 93
4
 72
1
 10
133.75886176698077
 20
-94.22415331212132
 11
133.75886176698077
 21
-93.82419581741712
 72
1
 10
133.75886176698077
 20
-93.82419581741712
 11
131.3420973308962
 21
-93.82419581741712
 72
1
 10
131.3420973308962
 20
-93.82419581741712
 11
131.3420973308962
 21
-94.22415331212132
 72
1
 10
131.3420973308962
 20
-94.22415331212132
 11
133.75886176698077
 21
-94.22415331212132
 97
0
 75
0
 76
0
 98
1
 10
0.0
 20
0.0
  0
HATCH
  5
A5
330
39
100
AcDbEntity
  8
0
100
AcDbHatch
 10
0.0
 20
0.0
 30
0.0
210
0.0
220
0.0
230
1.0
  2

 70
1
 71
0
 91
1
 92
1
 93
4
 72
1
 10
133.37592374013627
 20
-93.82419581741712
 11
133.37592374013627
 21
-91.4414703170522
 72
1
 10
133.37592374013627
 20
-91.4414703170522
 11
133.75886176698077
 21
-91.4414703170522
 72
1
 10
133.75886176698077
 20
-91.4414703170522
 11
133.75886176698077
 21
-93.82419581741712
 72
1
 10
133.75886176698077
 20
-93.82419581741712
 11
133.37592374013627
 21
-93.82419581741712
 97
0
 75
0
 76
0
 98
1
 10
0.0
 20
0.0
  0
HATCH
  5
A6
330
39
100
AcDbEntity
  8
0
100
AcDbHatch
 10
0.0
 20
0.0
 30
0.0
210
0.0
220
0.0
230
1.0
  2

 70
1
 71
0
 91
1
 92
1
 93
4
 72
1
 10
130.96766903798166
 20
-91.4414703170522
 11
133.37592374013627
 21
-91.4414703170522
 72
1
 10
133.37592374013627
 20
-91.4414703170522
 11
133.37592374013627
 21
-91.78185967424717
 72
1
 10
133.37592374013627
 20
-91.78185967424717
 11
130.96766903798166
 21
-91.78185967424717
 72
1
 10
130.96766903798166
 20
-91.78185967424717
 11
130.96766903798166
 21
-91.4414703170522
 97
0
 75
0
 76
0
 98
1
 10
0.0
 20
0.0
  0
LINE
  5
A7
330
39
100
AcDbEntity
  8
0
  6
CONTINUOUS
100
AcDbLine
 10
132.953389
 20
-100.64506
 30
0.0
 11
132.953389
 21
-99.481333
 31
0.0
  0
LINE
  5
A8
330
39
100
AcDbEntity
  8
0
  6
CONTINUOUS
100
AcDbLine
 10
132.953389
 20
-100.64506
 30
0.0
 11
131.766844
 21
-100.64506
 31
0.0
  0
LINE
  5
A9
330
39
100
AcDbEntity
  8
0
  6
CONTINUOUS
100
AcDbLine
 10
131.766844
 20
-99.481333
 30
0.0
 11
132.953389
 21
-99.481333
 31
0.0
  0
LINE
  5
AA
330
39
100
AcDbEntity
  8
0
  6
CONTINUOUS
100
AcDbLine
 10
131.766844
 20
-99.481333
 30
0.0
 11
131.766844
 21
-100.64506
 31
0.0
  0
LINE
  5
AB
330
39
100
AcDbEntity
  8
0
  6
CONTINUOUS
100
AcDbLine
 10
133.75773
 20
-101.466514
 30
0.0
 11
130.962503
 21
-101.466514
 31
0.0
  0
LINE
  5
AC
330
39
100
AcDbEntity
  8
0
  6
CONTINUOUS
100
AcDbLine
 10
140.251524
 20
-93.409056
 30
0.0
 11
140.251524
 21
-92.193387
 31
0.0
  0
LINE
  5
AD
330
39
100
AcDbEntity
  8
0
  6
CONTINUOUS
100
AcDbLine
 10
140.251524
 20
-93.409056
 30
0.0
 11
139.035855
 21
-93.409056
 31
0.0
  0
LINE
  5
AE
330
39
100
AcDbEntity
  8
0
  6
CONTINUOUS
100
AcDbLine
 10
139.035855
 20
-92.193387
 30
0.0
 11
140.251524
 21
-92.193387
 31
0.0
  0
LINE
  5
AF
330
39
100
AcDbEntity
  8
0
  6
CONTINUOUS
100
AcDbLine
 10
139.035855
 20
-92.193387
 30
0.0
 11
139.035855
 21
-93.409056
 31
0.0
  0
LINE
  5
B0
330
39
100
AcDbEntity
  8
0
  6
CONTINUOUS
100
AcDbLine
 10
138.635574
 20
-91.788164
 30
0.0
 11
140.706165
 21
-91.788164
 31
0.0
  0
LINE
  5
B1
330
39
100
AcDbEntity
  8
0
  6
CONTINUOUS
100
AcDbLine
 10
141.057029
 20
-94.219502
 30
0.0
 11
138.250118
 21
-94.219502
 31
0.0
  0
LINE
  5
B2
330
39
100
AcDbEntity
  8
0
  6
CONTINUOUS
100
AcDbLine
 10
138.250118
 20
-91.432358
 30
0.0
 11
141.057029
 21
-91.432358
 31
0.0
  0
LINE
  5
B3
330
39
100
AcDbEntity
  8
0
  6
CONTINUOUS
100
AcDbLine
 10
138.250118
 20
-91.432358
 30
0.0
 11
138.250118
 21
-94.219502
 31
0.0
  0
LINE
  5
B4
330
39
100
AcDbEntity
  8
0
  6
CONTINUOUS
100
AcDbLine
 10
132.975966
 20
-93.415729
 30
0.0
 11
132.975966
 21
-92.198837
 31
0.0
  0
LINE
  5
B5
330
39
100
AcDbEntity
  8
0
  6
CONTINUOUS
100
AcDbLine
 10
132.975966
 20
-93.415729
 30
0.0
 11
131.742055
 21
-93.415729
 31
0.0
  0
LINE
  5
B6
330
39
100
AcDbEntity
  8
0
  6
CONTINUOUS
100
AcDbLine
 10
131.742055
 20
-92.198837
 30
0.0
 11
132.975966
 21
-92.198837
 31
0.0
  0
LINE
  5
B7
330
39
100
AcDbEntity
  8
0
  6
CONTINUOUS
100
AcDbLine
 10
131.742055
 20
-92.198837
 30
0.0
 11
131.742055
 21
-93.415729
 31
0.0
  0
LINE
  5
B8
330
39
100
AcDbEntity
  8
0
  6
CONTINUOUS
100
AcDbLine
 10
133.758862
 20
-94.224153
 30
0.0
 11
133.758862
 21
-91.44147
 31
0.0
  0
LINE
  5
B9
330
39
100
AcDbEntity
  8
0
  6
CONTINUOUS
100
AcDbLine
 10
133.758862
 20
-94.224153
 30
0.0
 11
130.967669
 21
-94.224153
 31
0.0
  0
LINE
  5
BA
330
39
100
AcDbEntity
  8
0
  6
CONTINUOUS
100
AcDbLine
 10
130.967669
 20
-91.44147
 30
0.0
 11
133.758862
 21
-91.44147
 31
0.0
  0
POINT
  5
BB
330
39
100
AcDbEntity
  8
0
  6
CONTINUOUS
100
AcDbPoint
 10
34.201833
 20
-56.791442
 30
0.0
  0
POINT
  5
BC
330
39
100
AcDbEntity
  8
0
  6
CONTINUOUS
100
AcDbPoint
 10
34.201833
 20
-64.791442
 30
0.0
  0
POINT
  5
BD
330
39
100
AcDbEntity
  8
0
  6
CONTINUOUS
100
AcDbPoint
 10
34.201833
 20
-72.791442
 30
0.0
  0
POINT
  5
BE
330
39
100
AcDbEntity
  8
0
  6
CONTINUOUS
100
AcDbPoint
 10
23.001833
 20
-52.791442
 30
0.0
  0
POINT
  5
BF
330
39
100
AcDbEntity
  8
0
  6
CONTINUOUS
100
AcDbPoint
 10
23.001833
 20
-60.791442
 30
0.0
  0
POINT
  5
C0
330
39
100
AcDbEntity
  8
0
  6
CONTINUOUS
100
AcDbPoint
 10
23.001833
 20
-68.791442
 30
0.0
  0
LINE
  5
C1
330
39
100
AcDbEntity
  8
0
  6
CONTINUOUS
100
AcDbLine
 10
-128.298167
 20
86.908558
 30
0.0
 11
-128.298167
 21
66.908558
 31
0.0
  0
LINE
  5
C2
330
39
100
AcDbEntity
  8
0
  6
CONTINUOUS
100
AcDbLine
 10
-49.589996
 20
86.908558
 30
0.0
 11
-49.589996
 21
72.508558
 31
0.0
  0
LINE
  5
C3
330
39
100
AcDbEntity
  8
0
  6
CONTINUOUS
100
AcDbLine
 10
-69.589996
 20
86.908558
 30
0.0
 11
-69.589996
 21
72.508558
 31
0.0
  0
LINE
  5
C4
330
39
100
AcDbEntity
  8
0
  6
CONTINUOUS
100
AcDbLine
 10
-17.589996
 20
86.908558
 30
0.0
 11
-17.589996
 21
72.508558
 31
0.0
  0
LINE
  5
C5
330
39
100
AcDbEntity
  8
0
  6
CONTINUOUS
100
AcDbLine
 10
-69.589996
 20
77.308558
 30
0.0
 11
-17.589996
 21
77.308558
 31
0.0
  0
LINE
  5
C6
330
39
100
AcDbEntity
  8
0
  6
CONTINUOUS
100
AcDbLine
 10
-69.589996
 20
86.908558
 30
0.0
 11
-17.589996
 21
86.908558
 31
0.0
  0
LINE
  5
C7
330
39
100
AcDbEntity
  8
0
  6
CONTINUOUS
100
AcDbLine
 10
-69.589996
 20
82.108558
 30
0.0
 11
-17.589996
 21
82.108558
 31
0.0
  0
LINE
  5
C8
330
39
100
AcDbEntity
  8
0
  6
CONTINUOUS
100
AcDbLine
 10
-70.589996
 20
86.908558
 30
0.0
 11
-70.589996
 21
66.908558
 31
0.0
  0
LINE
  5
C9
330
39
100
AcDbEntity
  8
0
  6
CONTINUOUS
100
AcDbLine
 10
-70.589996
 20
81.908558
 30
0.0
 11
-128.298167
 21
81.908558
 31
0.0
  0
LINE
  5
CA
330
39
100
AcDbEntity
  8
0
  6
CONTINUOUS
100
AcDbLine
 10
-70.589996
 20
86.908558
 30
0.0
 11
-128.298167
 21
86.908558
 31
0.0
  0
LINE
  5
CB
330
39
100
AcDbEntity
  8
0
  6
CONTINUOUS
100
AcDbLine
 10
-123.399941
 20
80.773558
 30
0.0
 11
-123.399941
 21
77.746496
 31
0.0
  0
LINE
  5
CC
330
39
100
AcDbEntity
  8
0
  6
CONTINUOUS
100
AcDbLine
 10
-123.399941
 20
77.746496
 30
0.0
 11
-126.429941
 21
77.746496
 31
0.0
  0
LINE
  5
CD
330
39
100
AcDbEntity
  8
0
  6
CONTINUOUS
100
AcDbLine
 10
-123.399941
 20
80.773558
 30
0.0
 11
-126.429941
 21
80.773558
 31
0.0
  0
LINE
  5
CE
330
39
100
AcDbEntity
  8
0
  6
CONTINUOUS
100
AcDbLine
 10
-126.429941
 20
80.773558
 30
0.0
 11
-126.429941
 21
77.746496
 31
0.0
  0
LINE
  5
CF
330
39
100
AcDbEntity
  8
0
  6
CONTINUOUS
100
AcDbLine
 10
-123.399941
 20
85.923558
 30
0.0
 11
-126.429941
 21
85.923558
 31
0.0
  0
LINE
  5
D0
330
39
100
AcDbEntity
  8
0
  6
CONTINUOUS
100
AcDbLine
 10
-123.399941
 20
85.923558
 30
0.0
 11
-123.399941
 21
82.896496
 31
0.0
  0
LINE
  5
D1
330
39
100
AcDbEntity
  8
0
  6
CONTINUOUS
100
AcDbLine
 10
-126.429941
 20
85.923558
 30
0.0
 11
-126.429941
 21
82.896496
 31
0.0
  0
LINE
  5
D2
330
39
100
AcDbEntity
  8
0
  6
CONTINUOUS
100
AcDbLine
 10
-123.399941
 20
82.896496
 30
0.0
 11
-126.429941
 21
82.896496
 31
0.0
  0
LINE
  5
D3
330
39
100
AcDbEntity
  8
0
  6
CONTINUOUS
100
AcDbLine
 10
-70.589996
 20
66.908558
 30
0.0
 11
-128.298167
 21
66.908558
 31
0.0
  0
LINE
  5
D4
330
39
100
AcDbEntity
  8
0
  6
CONTINUOUS
100
AcDbLine
 10
-120.359446
 20
76.908558
 30
0.0
 11
-120.359446
 21
73.408558
 31
0.0
  0
LINE
  5
D5
330
39
100
AcDbEntity
  8
0
  6
CONTINUOUS
100
AcDbLine
 10
-120.359446
 20
73.408558
 30
0.0
 11
-128.298167
 21
73.408558
 31
0.0
  0
LINE
  5
D6
330
39
100
AcDbEntity
  8
0
  6
CONTINUOUS
100
AcDbLine
 10
-81.691546
 20
76.908558
 30
0.0
 11
-81.691546
 21
73.408558
 31
0.0
  0
LINE
  5
D7
330
39
100
AcDbEntity
  8
0
  6
CONTINUOUS
100
AcDbLine
 10
-89.130267
 20
73.408558
 30
0.0
 11
-81.691546
 21
73.408558
 31
0.0
  0
LINE
  5
D8
330
39
100
AcDbEntity
  8
0
  6
CONTINUOUS
100
AcDbLine
 10
-89.130267
 20
66.908558
 30
0.0
 11
-89.130267
 21
76.908558
 31
0.0
  0
LINE
  5
D9
330
39
100
AcDbEntity
  8
0
  6
CONTINUOUS
100
AcDbLine
 10
-70.589996
 20
76.908558
 30
0.0
 11
-128.298167
 21
76.908558
 31
0.0
  0
POINT
  5
DA
330
39
100
AcDbEntity
  8
0
  6
CONTINUOUS
100
AcDbPoint
 10
-87.130267
 20
68.408558
 30
0.0
  0
POINT
  5
DB
330
39
100
AcDbEntity
  8
0
  6
CONTINUOUS
100
AcDbPoint
 10
-126.298167
 20
68.408558
 30
0.0
  0
LINE
  5
DC
330
39
100
AcDbEntity
  8
0
  6
CONTINUOUS
100
AcDbLine
 10
142.201833
 20
87.908558
 30
0.0
 11
-129.298167
 21
87.908558
 31
0.0
  0
POINT
  5
DD
330
39
100
AcDbEntity
  8
0
  6
CONTINUOUS
100
AcDbPoint
 10
-68.589996
 20
77.808558
 30
0.0
  0
POINT
  5
DE
330
39
100
AcDbEntity
  8
0
  6
CONTINUOUS
100
AcDbPoint
 10
-48.589996
 20
77.808558
 30
0.0
  0
LINE
  5
DF
330
39
100
AcDbEntity
  8
0
  6
CONTINUOUS
100
AcDbLine
 10
-69.589996
 20
72.508558
 30
0.0
 11
-17.589996
 21
72.508558
 31
0.0
  0
POINT
  5
E0
330
39
100
AcDbEntity
  8
0
  6
CONTINUOUS
100
AcDbPoint
 10
-48.589996
 20
73.008558
 30
0.0
  0
POINT
  5
E1
330
39
100
AcDbEntity
  8
0
  6
CONTINUOUS
100
AcDbPoint
 10
-68.589996
 20
73.008558
 30
0.0
  0
POINT
  5
E2
330
39
100
AcDbEntity
  8
0
  6
CONTINUOUS
100
AcDbPoint
 10
-134.298167
 20
-96.591442
 30
0.0
  0
POINT
  5
E3
330
39
100
AcDbEntity
  8
0
  6
CONTINUOUS
100
AcDbPoint
 10
-140.298167
 20
-96.591442
 30
0.0
  0
LINE
  5
E4
330
39
100
AcDbEntity
  8
0
  6
CONTINUOUS
100
AcDbLine
 10
-141.298167
 20
-97.591442
 30
0.0
 11
-129.298189
 21
-97.591442
 31
0.0
  0
LINE
  5
E5
330
39
100
AcDbEntity
  8
0
  6
CONTINUOUS
100
AcDbLine
 10
-141.298167
 20
-92.591442
 30
0.0
 11
-129.298167
 21
-92.591442
 31
0.0
  0
POINT
  5
E6
330
39
100
AcDbEntity
  8
0
  6
CONTINUOUS
100
AcDbPoint
 10
-134.298167
 20
-76.591442
 30
0.0
  0
POINT
  5
E7
330
39
100
AcDbEntity
  8
0
  6
CONTINUOUS
100
AcDbPoint
 10
-134.298167
 20
-81.591442
 30
0.0
  0
POINT
  5
E8
330
39
100
AcDbEntity
  8
0
  6
CONTINUOUS
100
AcDbPoint
 10
-134.298167
 20
-86.591442
 30
0.0
  0
POINT
  5
E9
330
39
100
AcDbEntity
  8
0
  6
CONTINUOUS
100
AcDbPoint
 10
-134.298167
 20
-91.591442
 30
0.0
  0
POINT
  5
EA
330
39
100
AcDbEntity
  8
0
  6
CONTINUOUS
100
AcDbPoint
 10
-140.298167
 20
-76.591442
 30
0.0
  0
POINT
  5
EB
330
39
100
AcDbEntity
  8
0
  6
CONTINUOUS
100
AcDbPoint
 10
-140.298167
 20
-81.591442
 30
0.0
  0
POINT
  5
EC
330
39
100
AcDbEntity
  8
0
  6
CONTINUOUS
100
AcDbPoint
 10
-140.298167
 20
-91.591442
 30
0.0
  0
LINE
  5
ED
330
39
100
AcDbEntity
  8
0
  6
CONTINUOUS
100
AcDbLine
 10
-135.298167
 20
-97.591442
 30
0.0
 11
-135.298167
 21
-67.591442
 31
0.0
  0
POINT
  5
EE
330
39
100
AcDbEntity
  8
0
  6
CONTINUOUS
100
AcDbPoint
 10
-140.298167
 20
-71.591442
 30
0.0
  0
POINT
  5
EF
330
39
100
AcDbEntity
  8
0
  6
CONTINUOUS
100
AcDbPoint
 10
-134.298167
 20
-71.591442
 30
0.0
  0
LINE
  5
F0
330
39
100
AcDbEntity
  8
0
  6
CONTINUOUS
100
AcDbLine
 10
-141.298167
 20
-97.591442
 30
0.0
 11
-141.298167
 21
-67.591442
 31
0.0
  0
POINT
  5
F1
330
39
100
AcDbEntity
  8
0
  6
CONTINUOUS
100
AcDbPoint
 10
-140.298167
 20
-86.591442
 30
0.0
  0
LINE
  5
F2
330
39
100
AcDbEntity
  8
0
  6
CONTINUOUS
100
AcDbLine
 10
-141.298167
 20
-87.591442
 30
0.0
 11
-129.298167
 21
-87.591442
 31
0.0
  0
LINE
  5
F3
330
39
100
AcDbEntity
  8
0
  6
CONTINUOUS
100
AcDbLine
 10
-141.298167
 20
-82.591442
 30
0.0
 11
-129.298167
 21
-82.591442
 31
0.0
  0
LINE
  5
F4
330
39
100
AcDbEntity
  8
0
  6
CONTINUOUS
100
AcDbLine
 10
-141.298167
 20
-77.591442
 30
0.0
 11
-129.298167
 21
-77.591442
 31
0.0
  0
LINE
  5
F5
330
39
100
AcDbEntity
  8
0
  6
CONTINUOUS
100
AcDbLine
 10
-141.298167
 20
-72.591442
 30
0.0
 11
-129.298167
 21
-72.591442
 31
0.0
  0
LINE
  5
F6
330
39
100
AcDbEntity
  8
0
  6
CONTINUOUS
100
AcDbLine
 10
-141.298167
 20
-67.591442
 30
0.0
 11
-129.298167
 21
-67.591442
 31
0.0
  0
LINE
  5
F7
330
39
100
AcDbEntity
  8
0
  6
CONTINUOUS
100
AcDbLine
 10
-129.298167
 20
99.908558
 30
0.0
 11
-129.298167
 21
-97.591442
 31
0.0
  0
ARC
  5
F8
330
39
100
AcDbEntity
  8
0
  6
CONTINUOUS
100
AcDbCircle
 10
70.848465
 20
-93.691946
 30
0.0
 40
1.44
100
AcDbArc
 50
0.0
 51
131.810315
  0
LINE
  5
F9
330
39
100
AcDbEntity
  8
0
  6
CONTINUOUS
100
AcDbLine
 10
93.812592
 20
-92.838314
 30
0.0
 11
95.41104
 21
-93.120163
 31
0.0
  0
ARC
  5
FA
330
39
100
AcDbEntity
  8
0
  6
CONTINUOUS
100
AcDbCircle
 10
68.928465
 20
-93.691946
 30
0.0
 40
0.48
100
AcDbArc
 50
0.0
 51
180.0
  0
ARC
  5
FB
330
39
100
AcDbEntity
  8
0
  6
CONTINUOUS
100
AcDbCircle
 10
93.863893
 20
-92.547374
 30
0.0
 40
1.255428
100
AcDbArc
 50
90.0
 51
260.0
  0
ARC
  5
FC
330
39
100
AcDbEntity
  8
0
  6
CONTINUOUS
100
AcDbCircle
 10
70.848465
 20
-93.691946
 30
0.0
 40
0.48
100
AcDbArc
 50
0.0
 51
180.0
  0
LINE
  5
FD
330
39
100
AcDbEntity
  8
0
  6
CONTINUOUS
100
AcDbLine
 10
95.193037
 20
-92.251946
 30
0.0
 11
93.863893
 21
-92.251946
 31
0.0
  0
LINE
  5
FE
330
39
100
AcDbEntity
  8
0
  6
CONTINUOUS
100
AcDbLine
 10
68.448465
 20
-92.334301
 30
0.0
 11
68.448465
 21
-92.251946
 31
0.0
  0
ARC
  5
FF
330
39
100
AcDbEntity
  8
0
  6
CONTINUOUS
100
AcDbCircle
 10
93.863893
 20
-92.547374
 30
0.0
 40
0.295428
100
AcDbArc
 50
90.0
 51
260.0
  0
LINE
  5
100
330
39
100
AcDbEntity
  8
0
  6
CONTINUOUS
100
AcDbLine
 10
77.808465
 20
-95.611946
 30
0.0
 11
76.848465
 21
-95.611946
 31
0.0
  0
LINE
  5
101
330
39
100
AcDbEntity
  8
0
  6
CONTINUOUS
100
AcDbLine
 10
75.888465
 20
-95.611946
 30
0.0
 11
74.928465
 21
-95.611946
 31
0.0
  0
LINE
  5
102
330
39
100
AcDbEntity
  8
0
  6
CONTINUOUS
100
AcDbLine
 10
73.968465
 20
-95.611946
 30
0.0
 11
73.008465
 21
-95.611946
 31
0.0
  0
ARC
  5
103
330
39
100
AcDbEntity
  8
0
  6
CONTINUOUS
100
AcDbCircle
 10
95.193037
 20
-92.547374
 30
0.0
 40
1.255428
100
AcDbArc
 50
0.0
 51
90.0
  0
LINE
  5
104
330
39
100
AcDbEntity
  8
0
  6
CONTINUOUS
100
AcDbLine
 10
73.008465
 20
-95.611946
 30
0.0
 11
73.008465
 21
-92.251946
 31
0.0
  0
ARC
  5
105
330
39
100
AcDbEntity
  8
0
  6
CONTINUOUS
100
AcDbCircle
 10
95.193037
 20
-92.547374
 30
0.0
 40
0.295428
100
AcDbArc
 50
0.0
 51
90.0
  0
LINE
  5
106
330
39
100
AcDbEntity
  8
0
  6
CONTINUOUS
100
AcDbLine
 10
74.928465
 20
-93.691946
 30
0.0
 11
74.928465
 21
-95.611946
 31
0.0
  0
LINE
  5
107
330
39
100
AcDbEntity
  8
0
  6
CONTINUOUS
100
AcDbLine
 10
75.888465
 20
-93.691946
 30
0.0
 11
75.888465
 21
-95.611946
 31
0.0
  0
ARC
  5
108
330
39
100
AcDbEntity
  8
0
  6
CONTINUOUS
100
AcDbCircle
 10
76.368465
 20
-93.691946
 30
0.0
 40
0.48
100
AcDbArc
 50
0.0
 51
180.0
  0
LINE
  5
109
330
39
100
AcDbEntity
  8
0
  6
CONTINUOUS
100
AcDbLine
 10
76.848465
 20
-95.611946
 30
0.0
 11
76.848465
 21
-93.691946
 31
0.0
  0
LINE
  5
10A
330
39
100
AcDbEntity
  8
0
  6
CONTINUOUS
100
AcDbLine
 10
96.448465
 20
-92.547374
 30
0.0
 11
95.488465
 21
-92.547374
 31
0.0
  0
LINE
  5
10B
330
39
100
AcDbEntity
  8
0
  6
CONTINUOUS
100
AcDbLine
 10
77.808465
 20
-95.611946
 30
0.0
 11
77.808465
 21
-93.691946
 31
0.0
  0
ARC
  5
10C
330
39
100
AcDbEntity
  8
0
  6
CONTINUOUS
100
AcDbCircle
 10
76.368465
 20
-93.691946
 30
0.0
 40
1.44
100
AcDbArc
 50
0.0
 51
131.810315
  0
LINE
  5
10D
330
39
100
AcDbEntity
  8
0
  6
CONTINUOUS
100
AcDbLine
 10
73.968465
 20
-92.251946
 30
0.0
 11
73.008465
 21
-92.251946
 31
0.0
  0
LINE
  5
10E
330
39
100
AcDbEntity
  8
0
  6
CONTINUOUS
100
AcDbLine
 10
73.968465
 20
-92.334301
 30
0.0
 11
73.968465
 21
-92.251946
 31
0.0
  0
ARC
  5
10F
330
39
100
AcDbEntity
  8
0
  6
CONTINUOUS
100
AcDbCircle
 10
74.448465
 20
-93.691946
 30
0.0
 40
1.44
100
AcDbArc
 50
48.189685
 51
109.471221
  0
LINE
  5
110
330
39
100
AcDbEntity
  8
0
  6
CONTINUOUS
100
AcDbLine
 10
73.968465
 20
-95.611946
 30
0.0
 11
73.968465
 21
-93.691946
 31
0.0
  0
LINE
  5
111
330
39
100
AcDbEntity
  8
0
  6
CONTINUOUS
100
AcDbLine
 10
92.608465
 20
-94.356519
 30
0.0
 11
93.568465
 21
-94.356519
 31
0.0
  0
ARC
  5
112
330
39
100
AcDbEntity
  8
0
  6
CONTINUOUS
100
AcDbCircle
 10
74.448465
 20
-93.691946
 30
0.0
 40
0.48
100
AcDbArc
 50
0.0
 51
180.0
  0
LINE
  5
113
330
39
100
AcDbEntity
  8
0
  6
CONTINUOUS
100
AcDbLine
 10
104.905955
 20
-92.251946
 30
0.0
 11
107.785955
 21
-92.251946
 31
0.0
  0
LINE
  5
114
330
39
100
AcDbEntity
  8
0
  6
CONTINUOUS
100
AcDbLine
 10
85.568465
 20
-91.291946
 30
0.0
 11
89.408465
 21
-91.291946
 31
0.0
  0
LINE
  5
115
330
39
100
AcDbEntity
  8
0
  6
CONTINUOUS
100
AcDbLine
 10
89.408465
 20
-91.291946
 30
0.0
 11
89.408465
 21
-92.251946
 31
0.0
  0
LINE
  5
116
330
39
100
AcDbEntity
  8
0
  6
CONTINUOUS
100
AcDbLine
 10
86.528465
 20
-92.251946
 30
0.0
 11
89.408465
 21
-92.251946
 31
0.0
  0
LINE
  5
117
330
39
100
AcDbEntity
  8
0
  6
CONTINUOUS
100
AcDbLine
 10
89.408465
 20
-94.651946
 30
0.0
 11
89.408465
 21
-95.611946
 31
0.0
  0
LINE
  5
118
330
39
100
AcDbEntity
  8
0
  6
CONTINUOUS
100
AcDbLine
 10
85.568465
 20
-95.611946
 30
0.0
 11
89.408465
 21
-95.611946
 31
0.0
  0
LINE
  5
119
330
39
100
AcDbEntity
  8
0
  6
CONTINUOUS
100
AcDbLine
 10
137.274161
 20
-86.798131
 30
0.0
 11
140.794146
 21
-87.838126
 31
0.0
  0
LINE
  5
11A
330
39
100
AcDbEntity
  8
0
  6
CONTINUOUS
100
AcDbLine
 10
86.528465
 20
-94.651946
 30
0.0
 11
89.408465
 21
-94.651946
 31
0.0
  0
LINE
  5
11B
330
39
100
AcDbEntity
  8
0
  6
CONTINUOUS
100
AcDbLine
 10
137.274166
 20
-84.478117
 30
0.0
 11
140.794157
 21
-83.438121
 31
0.0
  0
LINE
  5
11C
330
39
100
AcDbEntity
  8
0
  6
CONTINUOUS
100
AcDbLine
 10
86.528465
 20
-93.931946
 30
0.0
 11
86.528465
 21
-94.651946
 31
0.0
  0
LINE
  5
11D
330
39
100
AcDbEntity
  8
0
100
AcDbLine
 10
130.194164
 20
-85.638124
 30
0.0
 11
136.252104
 21
-85.638124
 31
0.0
  0
LINE
  5
11E
330
39
100
AcDbEntity
  8
0
  6
CONTINUOUS
100
AcDbLine
 10
86.528465
 20
-93.931946
 30
0.0
 11
88.448465
 21
-93.931946
 31
0.0
  0
LINE
  5
11F
330
39
100
AcDbEntity
  8
0
100
AcDbLine
 10
132.994156
 20
-82.838117
 30
0.0
 11
132.99415
 21
-88.438111
 31
0.0
  0
LINE
  5
120
330
39
100
AcDbEntity
  8
0
  6
CONTINUOUS
100
AcDbLine
 10
88.448465
 20
-92.971946
 30
0.0
 11
88.448465
 21
-93.931946
 31
0.0
  0
LINE
  5
121
330
39
100
AcDbEntity
  8
0
  6
CONTINUOUS
100
AcDbLine
 10
129.201833
 20
-73.591442
 30
0.0
 11
129.201833
 21
-97.591442
 31
0.0
  0
LINE
  5
122
330
39
100
AcDbEntity
  8
0
  6
CONTINUOUS
100
AcDbLine
 10
86.528465
 20
-92.971946
 30
0.0
 11
88.448465
 21
-92.971946
 31
0.0
  0
LINE
  5
123
330
39
100
AcDbEntity
  8
0
  6
CONTINUOUS
100
AcDbLine
 10
86.528465
 20
-92.251946
 30
0.0
 11
86.528465
 21
-92.971946
 31
0.0
  0
POINT
  5
124
330
39
100
AcDbEntity
  8
0
  6
CONTINUOUS
100
AcDbPoint
 10
130.001833
 20
-76.791442
 30
0.0
  0
LINE
  5
125
330
39
100
AcDbEntity
  8
0
  6
CONTINUOUS
100
AcDbLine
 10
85.568465
 20
-91.291946
 30
0.0
 11
85.568465
 21
-95.611946
 31
0.0
  0
LINE
  5
126
330
39
100
AcDbEntity
  8
0
  6
CONTINUOUS
100
AcDbLine
 10
83.735435
 20
-92.691946
 30
0.0
 11
84.776707
 21
-92.691946
 31
0.0
  0
ARC
  5
127
330
39
100
AcDbEntity
  8
0
  6
CONTINUOUS
100
AcDbCircle
 10
82.928465
 20
-93.211946
 30
0.0
 40
0.96
100
AcDbArc
 50
32.797168
 51
180.0
  0
ARC
  5
128
330
39
100
AcDbEntity
  8
0
  6
CONTINUOUS
100
AcDbCircle
 10
82.928465
 20
-93.211946
 30
0.0
 40
1.92
100
AcDbArc
 50
15.713861
 51
180.0
  0
LINE
  5
129
330
39
100
AcDbEntity
  8
0
  6
CONTINUOUS
100
AcDbLine
 10
81.008465
 20
-93.691946
 30
0.0
 11
81.008465
 21
-93.211946
 31
0.0
  0
LINE
  5
12A
330
39
100
AcDbEntity
  8
0
  6
CONTINUOUS
100
AcDbLine
 10
81.968465
 20
-93.691946
 30
0.0
 11
81.968465
 21
-93.211946
 31
0.0
  0
POINT
  5
12B
330
39
100
AcDbEntity
  8
0
  6
CONTINUOUS
100
AcDbPoint
 10
136.401833
 20
-80.791442
 30
0.0
  0
ARC
  5
12C
330
39
100
AcDbEntity
  8
0
  6
CONTINUOUS
100
AcDbCircle
 10
82.928465
 20
-93.691946
 30
0.0
 40
0.96
100
AcDbArc
 50
180.0
 51
327.202832
  0
LINE
  5
12D
330
39
100
AcDbEntity
  8
0
  6
CONTINUOUS
100
AcDbLine
 10
83.735435
 20
-94.211946
 30
0.0
 11
84.776707
 21
-94.211946
 31
0.0
  0
ARC
  5
12E
330
39
100
AcDbEntity
  8
0
  6
CONTINUOUS
100
AcDbCircle
 10
82.928465
 20
-93.691946
 30
0.0
 40
1.92
100
AcDbArc
 50
180.0
 51
344.286139
  0
LINE
  5
12F
330
39
100
AcDbEntity
  8
0
  6
CONTINUOUS
100
AcDbLine
 10
95.193037
 20
-95.611946
 30
0.0
 11
93.863893
 21
-95.611946
 31
0.0
  0
ARC
  5
130
330
39
100
AcDbEntity
  8
0
  6
CONTINUOUS
100
AcDbCircle
 10
93.863893
 20
-94.356519
 30
0.0
 40
1.255428
100
AcDbArc
 50
180.0
 51
270.0
  0
LINE
  5
131
330
39
100
AcDbEntity
  8
0
  6
CONTINUOUS
100
AcDbLine
 10
95.193037
 20
-91.291946
 30
0.0
 11
93.863893
 21
-91.291946
 31
0.0
  0
LINE
  5
132
330
39
100
AcDbEntity
  8
0
  6
CONTINUOUS
100
AcDbLine
 10
95.244337
 20
-94.065579
 30
0.0
 11
93.64589
 21
-93.783729
 31
0.0
  0
CIRCLE
  5
133
330
39
100
AcDbEntity
  8
0
  6
CONTINUOUS
100
AcDbCircle
 10
115.054701
 20
-95.143201
 30
0.0
 40
0.468745
  0
CIRCLE
  5
134
330
39
100
AcDbEntity
  8
0
  6
CONTINUOUS
100
AcDbCircle
 10
120.312191
 20
-95.143201
 30
0.0
 40
0.468745
  0
ARC
  5
135
330
39
100
AcDbEntity
  8
0
  6
CONTINUOUS
100
AcDbCircle
 10
117.683446
 20
-94.171946
 30
0.0
 40
1.44
100
AcDbArc
 50
180.0
 51
0.0
  0
LINE
  5
136
330
39
100
AcDbEntity
  8
0
  6
CONTINUOUS
100
AcDbLine
 10
119.123446
 20
-94.171946
 30
0.0
 11
119.123446
 21
-93.691946
 31
0.0
  0
ARC
  5
137
330
39
100
AcDbEntity
  8
0
  6
CONTINUOUS
100
AcDbCircle
 10
117.683446
 20
-93.691946
 30
0.0
 40
1.44
100
AcDbArc
 50
0.0
 51
180.0
  0
LINE
  5
138
330
39
100
AcDbEntity
  8
0
  6
CONTINUOUS
100
AcDbLine
 10
116.243446
 20
-94.171946
 30
0.0
 11
116.243446
 21
-93.691946
 31
0.0
  0
ARC
  5
139
330
39
100
AcDbEntity
  8
0
  6
CONTINUOUS
100
AcDbCircle
 10
117.683446
 20
-93.691946
 30
0.0
 40
0.48
100
AcDbArc
 50
0.0
 51
180.0
  0
LINE
  5
13A
330
39
100
AcDbEntity
  8
0
  6
CONTINUOUS
100
AcDbLine
 10
117.203446
 20
-94.171946
 30
0.0
 11
117.203446
 21
-93.691946
 31
0.0
  0
LINE
  5
13B
330
39
100
AcDbEntity
  8
0
  6
CONTINUOUS
100
AcDbLine
 10
118.163446
 20
-94.171946
 30
0.0
 11
118.163446
 21
-93.691946
 31
0.0
  0
ARC
  5
13C
330
39
100
AcDbEntity
  8
0
  6
CONTINUOUS
100
AcDbCircle
 10
117.683446
 20
-94.171946
 30
0.0
 40
0.48
100
AcDbArc
 50
180.0
 51
0.0
  0
LINE
  5
13D
330
39
100
AcDbEntity
  8
0
  6
CONTINUOUS
100
AcDbLine
 10
22.201833
 20
-89.591442
 30
0.0
 11
142.201833
 21
-89.591442
 31
0.0
  0
CIRCLE
  5
13E
330
39
100
AcDbEntity
  8
0
  6
CONTINUOUS
100
AcDbCircle
 10
132.994164
 20
-85.638124
 30
0.0
 40
2.2
  0
CIRCLE
  5
13F
330
39
100
AcDbEntity
  8
0
  6
CONTINUOUS
100
AcDbCircle
 10
132.994164
 20
-85.638124
 30
0.0
 40
1.16
  0
LINE
  5
140
330
39
100
AcDbEntity
  8
0
100
AcDbLine
 10
141.773576
 20
-85.638124
 30
0.0
 11
136.003642
 21
-85.638124
 31
0.0
  0
LINE
  5
141
330
39
100
AcDbEntity
  8
0
  6
CONTINUOUS
100
AcDbLine
 10
112.905955
 20
-94.171946
 30
0.0
 11
112.905955
 21
-93.691946
 31
0.0
  0
LINE
  5
142
330
39
100
AcDbEntity
  8
0
  6
CONTINUOUS
100
AcDbLine
 10
137.274168
 20
-84.478114
 30
0.0
 11
137.274168
 21
-86.798127
 31
0.0
  0
ARC
  5
143
330
39
100
AcDbEntity
  8
0
  6
CONTINUOUS
100
AcDbCircle
 10
112.425955
 20
-94.171946
 30
0.0
 40
0.48
100
AcDbArc
 50
180.0
 51
0.0
  0
LINE
  5
144
330
39
100
AcDbEntity
  8
0
  6
CONTINUOUS
100
AcDbLine
 10
36.371354
 20
-92.541382
 30
0.0
 11
36.554262
 21
-92.541382
 31
0.0
  0
LINE
  5
145
330
39
100
AcDbEntity
  8
0
  6
CONTINUOUS
100
AcDbLine
 10
36.714093
 20
-91.936449
 30
0.0
 11
36.554262
 21
-92.541382
 31
0.0
  0
ARC
  5
146
330
39
100
AcDbEntity
  8
0
  6
CONTINUOUS
100
AcDbCircle
 10
34.945616
 20
-96.174188
 30
0.0
 40
4.591943
100
AcDbArc
 50
67.34843
 51
127.109558
  0
LINE
  5
147
330
39
100
AcDbEntity
  8
0
  6
CONTINUOUS
100
AcDbLine
 10
37.394848
 20
-94.11449
 30
0.0
 11
37.152819
 21
-94.873413
 31
0.0
  0
LINE
  5
148
330
39
100
AcDbEntity
  8
0
  6
CONTINUOUS
100
AcDbLine
 10
37.152819
 20
-94.873413
 30
0.0
 11
39.536987
 21
-94.873413
 31
0.0
  0
LINE
  5
149
330
39
100
AcDbEntity
  8
0
  6
CONTINUOUS
100
AcDbLine
 10
37.905294
 20
-92.486459
 30
0.0
 11
37.649714
 21
-93.287872
 31
0.0
  0
LINE
  5
14A
330
39
100
AcDbEntity
  8
0
  6
CONTINUOUS
100
AcDbLine
 10
39.536987
 20
-94.873413
 30
0.0
 11
39.313031
 21
-95.743294
 31
0.0
  0
LINE
  5
14B
330
39
100
AcDbEntity
  8
0
  6
CONTINUOUS
100
AcDbLine
 10
37.394848
 20
-94.11449
 30
0.0
 11
39.548862
 21
-94.11449
 31
0.0
  0
LINE
  5
14C
330
39
100
AcDbEntity
  8
0
  6
CONTINUOUS
100
AcDbLine
 10
39.760636
 20
-93.29193
 30
0.0
 11
39.548862
 21
-94.11449
 31
0.0
  0
LINE
  5
14D
330
39
100
AcDbEntity
  8
0
  6
CONTINUOUS
100
AcDbLine
 10
37.662439
 20
-93.29193
 30
0.0
 11
39.760636
 21
-93.29193
 31
0.0
  0
LINE
  5
14E
330
39
100
AcDbEntity
  8
0
  6
CONTINUOUS
100
AcDbLine
 10
37.905294
 20
-92.486459
 30
0.0
 11
40.276044
 21
-92.486459
 31
0.0
  0
LINE
  5
14F
330
39
100
AcDbEntity
  8
0
  6
CONTINUOUS
100
AcDbLine
 10
36.372148
 20
-91.58542
 30
0.0
 11
40.508022
 21
-91.58542
 31
0.0
  0
LINE
  5
150
330
39
100
AcDbEntity
  8
0
  6
CONTINUOUS
100
AcDbLine
 10
35.046153
 20
-95.743294
 30
0.0
 11
39.313031
 21
-95.743294
 31
0.0
  0
LINE
  5
151
330
39
100
AcDbEntity
  8
0
  6
CONTINUOUS
100
AcDbLine
 10
40.508022
 20
-91.58542
 30
0.0
 11
40.276044
 21
-92.486459
 31
0.0
  0
LINE
  5
152
330
39
100
AcDbEntity
  8
0
  6
CONTINUOUS
100
AcDbLine
 10
36.103971
 20
-92.426333
 30
0.0
 11
35.323381
 21
-94.874
 31
0.0
  0
ARC
  5
153
330
39
100
AcDbEntity
  8
0
  6
CONTINUOUS
100
AcDbCircle
 10
34.489125
 20
-90.500944
 30
0.0
 40
4.464821
100
AcDbArc
 50
260.362524
 51
284.399957
  0
ARC
  5
154
330
39
100
AcDbEntity
  8
0
  6
CONTINUOUS
100
AcDbCircle
 10
33.921709
 20
-93.968675
 30
0.0
 40
0.951273
100
AcDbArc
 50
162.416328
 51
262.325075
  0
LINE
  5
155
330
39
100
AcDbEntity
  8
0
  6
CONTINUOUS
100
AcDbLine
 10
35.926452
 20
-94.825495
 30
0.0
 11
35.599478
 21
-94.825495
 31
0.0
  0
ARC
  5
156
330
39
100
AcDbEntity
  8
0
  6
CONTINUOUS
100
AcDbCircle
 10
34.95254
 20
-94.491229
 30
0.0
 40
2.10012
100
AcDbArc
 50
117.857976
 51
157.31529
  0
ARC
  5
157
330
39
100
AcDbEntity
  8
0
  6
CONTINUOUS
100
AcDbCircle
 10
35.255764
 20
-94.765862
 30
0.0
 40
2.488544
100
AcDbArc
 50
63.365972
 51
121.0773
  0
LINE
  5
158
330
39
100
AcDbEntity
  8
0
  6
CONTINUOUS
100
AcDbLine
 10
35.078241
 20
-95.642676
 30
0.0
 11
35.046153
 21
-95.743294
 31
0.0
  0
LINE
  5
159
330
39
100
AcDbEntity
  8
0
  6
CONTINUOUS
100
AcDbLine
 10
36.372148
 20
-91.58542
 30
0.0
 11
36.307293
 21
-91.788783
 31
0.0
  0
ARC
  5
15A
330
39
100
AcDbEntity
  8
0
  6
CONTINUOUS
100
AcDbCircle
 10
33.712468
 20
-90.047887
 30
0.0
 40
5.683097
100
AcDbArc
 50
255.193608
 51
275.99673
  0
LINE
  5
15B
330
39
100
AcDbEntity
  8
0
  6
CONTINUOUS
100
AcDbLine
 10
35.736978
 20
-95.542616
 30
0.0
 11
35.926452
 21
-94.825495
 31
0.0
  0
ARC
  5
15C
330
39
100
AcDbEntity
  8
0
  6
CONTINUOUS
100
AcDbCircle
 10
33.999458
 20
-86.322236
 30
0.0
 40
9.382664
100
AcDbArc
 50
271.87342
 51
280.671869
  0
ARC
  5
15D
330
39
100
AcDbEntity
  8
0
  6
CONTINUOUS
100
AcDbCircle
 10
32.71022
 20
-94.260733
 30
0.0
 40
1.358282
100
AcDbArc
 50
180.23137
 51
250.648328
  0
LINE
  5
15E
330
39
100
AcDbEntity
  8
0
  6
CONTINUOUS
100
AcDbLine
 10
28.500266
 20
-96.041778
 30
0.0
 11
29.200651
 21
-94.751462
 31
0.0
  0
LINE
  5
15F
330
39
100
AcDbEntity
  8
0
  6
CONTINUOUS
100
AcDbLine
 10
29.200651
 20
-94.751462
 30
0.0
 11
27.549443
 21
-94.751462
 31
0.0
  0
LINE
  5
160
330
39
100
AcDbEntity
  8
0
  6
CONTINUOUS
100
AcDbLine
 10
28.689925
 20
-93.805737
 30
0.0
 11
29.713993
 21
-93.805737
 31
0.0
  0
LINE
  5
161
330
39
100
AcDbEntity
  8
0
  6
CONTINUOUS
100
AcDbLine
 10
29.713993
 20
-93.805737
 30
0.0
 11
30.63683
 21
-92.105599
 31
0.0
  0
LINE
  5
162
330
39
100
AcDbEntity
  8
0
  6
CONTINUOUS
100
AcDbLine
 10
28.689925
 20
-93.805737
 30
0.0
 11
27.549443
 21
-94.751462
 31
0.0
  0
LINE
  5
163
330
39
100
AcDbEntity
  8
0
  6
CONTINUOUS
100
AcDbLine
 10
28.500266
 20
-96.041778
 30
0.0
 11
30.518684
 21
-96.041778
 31
0.0
  0
LINE
  5
164
330
39
100
AcDbEntity
  8
0
  6
CONTINUOUS
100
AcDbLine
 10
33.174263
 20
-90.383145
 30
0.0
 11
30.518684
 21
-96.041778
 31
0.0
  0
LINE
  5
165
330
39
100
AcDbEntity
  8
0
  6
CONTINUOUS
100
AcDbLine
 10
30.63683
 20
-92.105599
 30
0.0
 11
25.890059
 21
-96.041778
 31
0.0
  0
LINE
  5
166
330
39
100
AcDbEntity
  8
0
  6
CONTINUOUS
100
AcDbLine
 10
23.712212
 20
-96.041778
 30
0.0
 11
25.890059
 21
-96.041778
 31
0.0
  0
LINE
  5
167
330
39
100
AcDbEntity
  8
0
  6
CONTINUOUS
100
AcDbLine
 10
23.712212
 20
-96.041778
 30
0.0
 11
30.981338
 21
-90.383145
 31
0.0
  0
LINE
  5
168
330
39
100
AcDbEntity
  8
0
  6
CONTINUOUS
100
AcDbLine
 10
30.981338
 20
-90.383145
 30
0.0
 11
33.174263
 21
-90.383145
 31
0.0
  0
POINT
  5
169
330
39
100
AcDbEntity
  8
0
  6
CONTINUOUS
100
AcDbPoint
 10
131.001833
 20
-52.791442
 30
0.0
  0
LINE
  5
16A
330
39
100
AcDbEntity
  8
0
  6
CONTINUOUS
100
AcDbLine
 10
130.201833
 20
-49.591442
 30
0.0
 11
130.201833
 21
-57.591442
 31
0.0
  0
POINT
  5
16B
330
39
100
AcDbEntity
  8
0
  6
CONTINUOUS
100
AcDbPoint
 10
67.201833
 20
-80.791442
 30
0.0
  0
LINE
  5
16C
330
39
100
AcDbEntity
  8
0
  6
CONTINUOUS
100
AcDbLine
 10
52.201833
 20
-81.591442
 30
0.0
 11
52.201833
 21
-89.591442
 31
0.0
  0
LINE
  5
16D
330
39
100
AcDbEntity
  8
0
  6
CONTINUOUS
100
AcDbLine
 10
59.201833
 20
-73.591442
 30
0.0
 11
59.201833
 21
-81.591442
 31
0.0
  0
LINE
  5
16E
330
39
100
AcDbEntity
  8
0
  6
CONTINUOUS
100
AcDbLine
 10
22.201833
 20
-49.591442
 30
0.0
 11
22.201833
 21
-73.591442
 31
0.0
  0
POINT
  5
16F
330
39
100
AcDbEntity
  8
0
  6
CONTINUOUS
100
AcDbPoint
 10
23.001833
 20
-76.791442
 30
0.0
  0
POINT
  5
170
330
39
100
AcDbEntity
  8
0
  6
CONTINUOUS
100
AcDbPoint
 10
23.001833
 20
-84.791442
 30
0.0
  0
POINT
  5
171
330
39
100
AcDbEntity
  8
0
  6
CONTINUOUS
100
AcDbPoint
 10
34.201833
 20
-80.791442
 30
0.0
  0
POINT
  5
172
330
39
100
AcDbEntity
  8
0
  6
CONTINUOUS
100
AcDbPoint
 10
75.001833
 20
-84.791442
 30
0.0
  0
POINT
  5
173
330
39
100
AcDbEntity
  8
0
  6
CONTINUOUS
100
AcDbPoint
 10
92.201833
 20
-80.791442
 30
0.0
  0
POINT
  5
174
330
39
100
AcDbEntity
  8
0
  6
CONTINUOUS
100
AcDbPoint
 10
75.001833
 20
-76.791442
 30
0.0
  0
POINT
  5
175
330
39
100
AcDbEntity
  8
0
  6
CONTINUOUS
100
AcDbPoint
 10
92.201833
 20
-72.791442
 30
0.0
  0
POINT
  5
176
330
39
100
AcDbEntity
  8
0
  6
CONTINUOUS
100
AcDbPoint
 10
75.001833
 20
-68.791442
 30
0.0
  0
POINT
  5
177
330
39
100
AcDbEntity
  8
0
  6
CONTINUOUS
100
AcDbPoint
 10
92.201833
 20
-64.791442
 30
0.0
  0
POINT
  5
178
330
39
100
AcDbEntity
  8
0
  6
CONTINUOUS
100
AcDbPoint
 10
75.001833
 20
-60.791442
 30
0.0
  0
POINT
  5
179
330
39
100
AcDbEntity
  8
0
  6
CONTINUOUS
100
AcDbPoint
 10
92.201833
 20
-56.791442
 30
0.0
  0
POINT
  5
17A
330
39
100
AcDbEntity
  8
0
  6
CONTINUOUS
100
AcDbPoint
 10
75.001833
 20
-52.791442
 30
0.0
  0
LINE
  5
17B
330
39
100
AcDbEntity
  8
0
  6
CONTINUOUS
100
AcDbLine
 10
74.201833
 20
-49.591442
 30
0.0
 11
74.201833
 21
-89.591442
 31
0.0
  0
LINE
  5
17C
330
39
100
AcDbEntity
  8
0
  6
CONTINUOUS
100
AcDbLine
 10
22.201833
 20
-49.591442
 30
0.0
 11
142.201833
 21
-49.591442
 31
0.0
  0
LINE
  5
17D
330
39
100
AcDbEntity
  8
0
  6
CONTINUOUS
100
AcDbLine
 10
22.201833
 20
-57.591442
 30
0.0
 11
74.201833
 21
-57.591442
 31
0.0
  0
LINE
  5
17E
330
39
100
AcDbEntity
  8
0
  6
CONTINUOUS
100
AcDbLine
 10
22.201833
 20
-65.591442
 30
0.0
 11
74.201833
 21
-65.591442
 31
0.0
  0
LINE
  5
17F
330
39
100
AcDbEntity
  8
0
  6
CONTINUOUS
100
AcDbLine
 10
22.201833
 20
-73.591442
 30
0.0
 11
142.201833
 21
-73.591442
 31
0.0
  0
LINE
  5
180
330
39
100
AcDbEntity
  8
0
  6
CONTINUOUS
100
AcDbLine
 10
22.201833
 20
-81.591442
 30
0.0
 11
142.201833
 21
-81.591442
 31
0.0
  0
LINE
  5
181
330
39
100
AcDbEntity
  8
0
  6
CONTINUOUS
100
AcDbLine
 10
44.928465
 20
-95.611946
 30
0.0
 11
45.940394
 21
-95.611946
 31
0.0
  0
LINE
  5
182
330
39
100
AcDbEntity
  8
0
  6
CONTINUOUS
100
AcDbLine
 10
46.368465
 20
-91.291946
 30
0.0
 11
47.328465
 21
-91.291946
 31
0.0
  0
LINE
  5
183
330
39
100
AcDbEntity
  8
0
  6
CONTINUOUS
100
AcDbLine
 10
47.328465
 20
-91.291946
 30
0.0
 11
48.768465
 21
-95.611946
 31
0.0
  0
LINE
  5
184
330
39
100
AcDbEntity
  8
0
  6
CONTINUOUS
100
AcDbLine
 10
46.368465
 20
-91.291946
 30
0.0
 11
44.928465
 21
-95.611946
 31
0.0
  0
LINE
  5
185
330
39
100
AcDbEntity
  8
0
  6
CONTINUOUS
100
AcDbLine
 10
46.848465
 20
-92.887733
 30
0.0
 11
46.580394
 21
-93.691946
 31
0.0
  0
LINE
  5
186
330
39
100
AcDbEntity
  8
0
  6
CONTINUOUS
100
AcDbLine
 10
46.848465
 20
-92.887733
 30
0.0
 11
47.116536
 21
-93.691946
 31
0.0
  0
LINE
  5
187
330
39
100
AcDbEntity
  8
0
  6
CONTINUOUS
100
AcDbLine
 10
46.260394
 20
-94.651946
 30
0.0
 11
47.436536
 21
-94.651946
 31
0.0
  0
LINE
  5
188
330
39
100
AcDbEntity
  8
0
  6
CONTINUOUS
100
AcDbLine
 10
46.580394
 20
-93.691946
 30
0.0
 11
47.116536
 21
-93.691946
 31
0.0
  0
LINE
  5
189
330
39
100
AcDbEntity
  8
0
  6
CONTINUOUS
100
AcDbLine
 10
46.260394
 20
-94.651946
 30
0.0
 11
45.940394
 21
-95.611946
 31
0.0
  0
LINE
  5
18A
330
39
100
AcDbEntity
  8
0
  6
CONTINUOUS
100
AcDbLine
 10
47.436536
 20
-94.651946
 30
0.0
 11
47.756536
 21
-95.611946
 31
0.0
  0
LINE
  5
18B
330
39
100
AcDbEntity
  8
0
  6
CONTINUOUS
100
AcDbLine
 10
47.756536
 20
-95.611946
 30
0.0
 11
48.768465
 21
-95.611946
 31
0.0
  0
ELLIPSE
  5
18C
330
39
100
AcDbEntity
  8
0
  6
CONTINUOUS
100
AcDbEllipse
 10
50.928465
 20
-93.931946
 30
0.0
 11
0.0
 21
1.6800000000000068
 31
0.0
 40
0.857143
 41
5.002140681820683
 42
4.422637278948631
  0
LINE
  5
18D
330
39
100
AcDbEntity
  8
0
  6
CONTINUOUS
100
AcDbLine
 10
51.286236
 20
-93.451946
 30
0.0
 11
52.308438
 21
-93.451946
 31
0.0
  0
LINE
  5
18E
330
39
100
AcDbEntity
  8
0
  6
CONTINUOUS
100
AcDbLine
 10
51.286236
 20
-94.411946
 30
0.0
 11
52.308438
 21
-94.411946
 31
0.0
  0
ELLIPSE
  5
18F
330
39
100
AcDbEntity
  8
0
  6
CONTINUOUS
100
AcDbEllipse
 10
50.928465
 20
-93.931946
 30
0.0
 11
0.0
 21
0.7199999999999989
 31
0.0
 40
0.666667
 41
5.442116636611552
 42
3.9826613241577093
  0
LINE
  5
190
330
39
100
AcDbEntity
  8
0
  6
CONTINUOUS
100
AcDbLine
 10
56.688465
 20
-94.171946
 30
0.0
 11
56.688465
 21
-92.251946
 31
0.0
  0
LINE
  5
191
330
39
100
AcDbEntity
  8
0
  6
CONTINUOUS
100
AcDbLine
 10
59.568465
 20
-95.611946
 30
0.0
 11
59.568465
 21
-92.251946
 31
0.0
  0
LINE
  5
192
330
39
100
AcDbEntity
  8
0
  6
CONTINUOUS
100
AcDbLine
 10
60.288465
 20
-95.611946
 30
0.0
 11
60.288465
 21
-92.251946
 31
0.0
  0
LINE
  5
193
330
39
100
AcDbEntity
  8
0
  6
CONTINUOUS
100
AcDbLine
 10
63.168465
 20
-93.211946
 30
0.0
 11
63.168465
 21
-92.251946
 31
0.0
  0
LINE
  5
194
330
39
100
AcDbEntity
  8
0
  6
CONTINUOUS
100
AcDbLine
 10
67.488465
 20
-95.611946
 30
0.0
 11
67.488465
 21
-92.251946
 31
0.0
  0
LINE
  5
195
330
39
100
AcDbEntity
  8
0
  6
CONTINUOUS
100
AcDbLine
 10
72.288465
 20
-95.611946
 30
0.0
 11
72.288465
 21
-93.691946
 31
0.0
  0
LINE
  5
196
330
39
100
AcDbEntity
  8
0
  6
CONTINUOUS
100
AcDbLine
 10
56.688465
 20
-92.251946
 30
0.0
 11
57.648465
 21
-92.251946
 31
0.0
  0
LINE
  5
197
330
39
100
AcDbEntity
  8
0
  6
CONTINUOUS
100
AcDbLine
 10
58.608465
 20
-95.611946
 30
0.0
 11
59.568465
 21
-95.611946
 31
0.0
  0
LINE
  5
198
330
39
100
AcDbEntity
  8
0
  6
CONTINUOUS
100
AcDbLine
 10
54.886236
 20
-94.411946
 30
0.0
 11
55.908438
 21
-94.411946
 31
0.0
  0
LINE
  5
199
330
39
100
AcDbEntity
  8
0
  6
CONTINUOUS
100
AcDbLine
 10
54.886236
 20
-93.451946
 30
0.0
 11
55.908438
 21
-93.451946
 31
0.0
  0
ELLIPSE
  5
19A
330
39
100
AcDbEntity
  8
0
  6
CONTINUOUS
100
AcDbEllipse
 10
54.528465
 20
-93.931946
 30
0.0
 11
0.0
 21
0.7199999999999989
 31
0.0
 40
0.666667
 41
5.442116636611552
 42
3.9826613241577093
  0
ELLIPSE
  5
19B
330
39
100
AcDbEntity
  8
0
  6
CONTINUOUS
100
AcDbEllipse
 10
54.528465
 20
-93.931946
 30
0.0
 11
0.0
 21
1.6800000000000068
 31
0.0
 40
0.857143
 41
5.002140681820683
 42
4.422637278948631
  0
LINE
  5
19C
330
39
100
AcDbEntity
  8
0
  6
CONTINUOUS
100
AcDbLine
 10
57.648465
 20
-94.171946
 30
0.0
 11
57.648465
 21
-92.251946
 31
0.0
  0
LINE
  5
19D
330
39
100
AcDbEntity
  8
0
  6
CONTINUOUS
100
AcDbLine
 10
58.608465
 20
-94.171946
 30
0.0
 11
58.608465
 21
-92.251946
 31
0.0
  0
ARC
  5
19E
330
39
100
AcDbEntity
  8
0
  6
CONTINUOUS
100
AcDbCircle
 10
58.128465
 20
-94.171946
 30
0.0
 40
1.44
100
AcDbArc
 50
180.0
 51
289.471221
  0
ARC
  5
19F
330
39
100
AcDbEntity
  8
0
  6
CONTINUOUS
100
AcDbCircle
 10
58.128465
 20
-94.171946
 30
0.0
 40
0.48
100
AcDbArc
 50
180.0
 51
0.0
  0
LINE
  5
1A0
330
39
100
AcDbEntity
  8
0
  6
CONTINUOUS
100
AcDbLine
 10
58.608465
 20
-95.611946
 30
0.0
 11
58.608465
 21
-95.529591
 31
0.0
  0
LINE
  5
1A1
330
39
100
AcDbEntity
  8
0
  6
CONTINUOUS
100
AcDbLine
 10
58.608465
 20
-92.251946
 30
0.0
 11
59.568465
 21
-92.251946
 31
0.0
  0
LINE
  5
1A2
330
39
100
AcDbEntity
  8
0
  6
CONTINUOUS
100
AcDbLine
 10
61.248465
 20
-95.611946
 30
0.0
 11
61.248465
 21
-93.691946
 31
0.0
  0
ARC
  5
1A3
330
39
100
AcDbEntity
  8
0
  6
CONTINUOUS
100
AcDbCircle
 10
63.168465
 20
-96.331946
 30
0.0
 40
4.08
100
AcDbArc
 50
90.0
 51
118.072487
  0
ARC
  5
1A4
330
39
100
AcDbEntity
  8
0
  6
CONTINUOUS
100
AcDbCircle
 10
63.168465
 20
-97.291946
 30
0.0
 40
4.08
100
AcDbArc
 50
90.0
 51
118.072487
  0
LINE
  5
1A5
330
39
100
AcDbEntity
  8
0
  6
CONTINUOUS
100
AcDbLine
 10
61.248465
 20
-92.251946
 30
0.0
 11
60.288465
 21
-92.251946
 31
0.0
  0
LINE
  5
1A6
330
39
100
AcDbEntity
  8
0
  6
CONTINUOUS
100
AcDbLine
 10
61.248465
 20
-95.611946
 30
0.0
 11
60.288465
 21
-95.611946
 31
0.0
  0
LINE
  5
1A7
330
39
100
AcDbEntity
  8
0
  6
CONTINUOUS
100
AcDbLine
 10
61.248465
 20
-92.731946
 30
0.0
 11
61.248465
 21
-92.251946
 31
0.0
  0
ARC
  5
1A8
330
39
100
AcDbEntity
  8
0
  6
CONTINUOUS
100
AcDbCircle
 10
93.863893
 20
-94.356519
 30
0.0
 40
0.295428
100
AcDbArc
 50
180.0
 51
270.0
  0
ELLIPSE
  5
1A9
330
39
100
AcDbEntity
  8
0
  6
CONTINUOUS
100
AcDbEllipse
 10
65.328465
 20
-93.931946
 30
0.0
 11
0.0
 21
0.7199999999999989
 31
0.0
 40
0.666667
 41
0.0
 42
6.283185307179586
  0
LINE
  5
1AA
330
39
100
AcDbEntity
  8
0
  6
CONTINUOUS
100
AcDbLine
 10
95.193037
 20
-94.651946
 30
0.0
 11
93.863893
 21
-94.651946
 31
0.0
  0
ELLIPSE
  5
1AB
330
39
100
AcDbEntity
  8
0
  6
CONTINUOUS
100
AcDbEllipse
 10
65.328465
 20
-93.931946
 30
0.0
 11
0.0
 21
1.6800000000000068
 31
0.0
 40
0.857143
 41
0.0
 42
6.283185307179586
  0
ARC
  5
1AC
330
39
100
AcDbEntity
  8
0
  6
CONTINUOUS
100
AcDbCircle
 10
95.193037
 20
-94.356519
 30
0.0
 40
0.295428
100
AcDbArc
 50
270.0
 51
80.0
  0
LINE
  5
1AD
330
39
100
AcDbEntity
  8
0
  6
CONTINUOUS
100
AcDbLine
 10
68.448465
 20
-95.611946
 30
0.0
 11
68.448465
 21
-93.691946
 31
0.0
  0
ARC
  5
1AE
330
39
100
AcDbEntity
  8
0
  6
CONTINUOUS
100
AcDbCircle
 10
95.193037
 20
-94.356519
 30
0.0
 40
1.255428
100
AcDbArc
 50
270.0
 51
80.0
  0
LINE
  5
1AF
330
39
100
AcDbEntity
  8
0
  6
CONTINUOUS
100
AcDbLine
 10
71.328465
 20
-95.611946
 30
0.0
 11
71.328465
 21
-93.691946
 31
0.0
  0
LINE
  5
1B0
330
39
100
AcDbEntity
  8
0
  6
CONTINUOUS
100
AcDbLine
 10
98.128465
 20
-94.171946
 30
0.0
 11
98.128465
 21
-93.691946
 31
0.0
  0
LINE
  5
1B1
330
39
100
AcDbEntity
  8
0
  6
CONTINUOUS
100
AcDbLine
 10
70.368465
 20
-93.691946
 30
0.0
 11
70.368465
 21
-95.611946
 31
0.0
  0
LINE
  5
1B2
330
39
100
AcDbEntity
  8
0
  6
CONTINUOUS
100
AcDbLine
 10
99.088465
 20
-94.171946
 30
0.0
 11
99.088465
 21
-93.691946
 31
0.0
  0
LINE
  5
1B3
330
39
100
AcDbEntity
  8
0
  6
CONTINUOUS
100
AcDbLine
 10
69.408465
 20
-93.691946
 30
0.0
 11
69.408465
 21
-95.611946
 31
0.0
  0
ARC
  5
1B4
330
39
100
AcDbEntity
  8
0
  6
CONTINUOUS
100
AcDbCircle
 10
98.608465
 20
-93.691946
 30
0.0
 40
0.48
100
AcDbArc
 50
0.0
 51
180.0
  0
LINE
  5
1B5
330
39
100
AcDbEntity
  8
0
  6
CONTINUOUS
100
AcDbLine
 10
72.288465
 20
-95.611946
 30
0.0
 11
71.328465
 21
-95.611946
 31
0.0
  0
ARC
  5
1B6
330
39
100
AcDbEntity
  8
0
  6
CONTINUOUS
100
AcDbCircle
 10
98.608465
 20
-94.171946
 30
0.0
 40
0.48
100
AcDbArc
 50
180.0
 51
0.0
  0
LINE
  5
1B7
330
39
100
AcDbEntity
  8
0
  6
CONTINUOUS
100
AcDbLine
 10
68.448465
 20
-92.251946
 30
0.0
 11
67.488465
 21
-92.251946
 31
0.0
  0
LINE
  5
1B8
330
39
100
AcDbEntity
  8
0
  6
CONTINUOUS
100
AcDbLine
 10
100.048465
 20
-94.171946
 30
0.0
 11
100.048465
 21
-93.691946
 31
0.0
  0
LINE
  5
1B9
330
39
100
AcDbEntity
  8
0
  6
CONTINUOUS
100
AcDbLine
 10
68.448465
 20
-95.611946
 30
0.0
 11
67.488465
 21
-95.611946
 31
0.0
  0
LINE
  5
1BA
330
39
100
AcDbEntity
  8
0
  6
CONTINUOUS
100
AcDbLine
 10
98.128465
 20
-95.529591
 30
0.0
 11
98.128465
 21
-97.091442
 31
0.0
  0
LINE
  5
1BB
330
39
100
AcDbEntity
  8
0
  6
CONTINUOUS
100
AcDbLine
 10
70.368465
 20
-95.611946
 30
0.0
 11
69.408465
 21
-95.611946
 31
0.0
  0
LINE
  5
1BC
330
39
100
AcDbEntity
  8
0
  6
CONTINUOUS
100
AcDbLine
 10
97.168465
 20
-92.251946
 30
0.0
 11
97.168465
 21
-97.091442
 31
0.0
  0
LINE
  5
1BD
330
39
100
AcDbEntity
  8
0
  6
CONTINUOUS
100
AcDbLine
 10
98.128465
 20
-92.251946
 30
0.0
 11
97.168465
 21
-92.251946
 31
0.0
  0
LINE
  5
1BE
330
39
100
AcDbEntity
  8
0
  6
CONTINUOUS
100
AcDbLine
 10
98.128465
 20
-92.334301
 30
0.0
 11
98.128465
 21
-92.251946
 31
0.0
  0
ARC
  5
1BF
330
39
100
AcDbEntity
  8
0
  6
CONTINUOUS
100
AcDbCircle
 10
98.608465
 20
-94.171946
 30
0.0
 40
1.44
100
AcDbArc
 50
250.528779
 51
0.0
  0
ARC
  5
1C0
330
39
100
AcDbEntity
  8
0
  6
CONTINUOUS
100
AcDbCircle
 10
98.608465
 20
-93.691946
 30
0.0
 40
1.44
100
AcDbArc
 50
0.0
 51
109.471221
  0
CIRCLE
  5
1C1
330
39
100
AcDbEntity
  8
0
  6
CONTINUOUS
100
AcDbCircle
 10
101.23721
 20
-95.143201
 30
0.0
 40
0.468745
  0
LINE
  5
1C2
330
39
100
AcDbEntity
  8
0
  6
CONTINUOUS
100
AcDbLine
 10
104.905955
 20
-95.611946
 30
0.0
 11
107.785955
 21
-95.611946
 31
0.0
  0
LINE
  5
1C3
330
39
100
AcDbEntity
  8
0
  6
CONTINUOUS
100
AcDbLine
 10
106.432355
 20
-93.211946
 30
0.0
 11
104.905955
 21
-94.651946
 31
0.0
  0
LINE
  5
1C4
330
39
100
AcDbEntity
  8
0
  6
CONTINUOUS
100
AcDbLine
 10
106.259555
 20
-94.651946
 30
0.0
 11
107.785955
 21
-93.211946
 31
0.0
  0
LINE
  5
1C5
330
39
100
AcDbEntity
  8
0
  6
CONTINUOUS
100
AcDbLine
 10
104.905955
 20
-93.211946
 30
0.0
 11
106.432355
 21
-93.211946
 31
0.0
  0
LINE
  5
1C6
330
39
100
AcDbEntity
  8
0
  6
CONTINUOUS
100
AcDbLine
 10
106.259555
 20
-94.651946
 30
0.0
 11
107.785955
 21
-94.651946
 31
0.0
  0
LINE
  5
1C7
330
39
100
AcDbEntity
  8
0
  6
CONTINUOUS
100
AcDbLine
 10
104.905955
 20
-92.251946
 30
0.0
 11
104.905955
 21
-93.211946
 31
0.0
  0
LINE
  5
1C8
330
39
100
AcDbEntity
  8
0
  6
CONTINUOUS
100
AcDbLine
 10
104.905955
 20
-94.651946
 30
0.0
 11
104.905955
 21
-95.611946
 31
0.0
  0
LINE
  5
1C9
330
39
100
AcDbEntity
  8
0
  6
CONTINUOUS
100
AcDbLine
 10
107.785955
 20
-92.251946
 30
0.0
 11
107.785955
 21
-93.211946
 31
0.0
  0
LINE
  5
1CA
330
39
100
AcDbEntity
  8
0
  6
CONTINUOUS
100
AcDbLine
 10
107.785955
 20
-94.651946
 30
0.0
 11
107.785955
 21
-95.611946
 31
0.0
  0
ARC
  5
1CB
330
39
100
AcDbEntity
  8
0
  6
CONTINUOUS
100
AcDbCircle
 10
112.425955
 20
-94.171946
 30
0.0
 40
1.44
100
AcDbArc
 50
180.0
 51
0.0
  0
LINE
  5
1CC
330
39
100
AcDbEntity
  8
0
  6
CONTINUOUS
100
AcDbLine
 10
113.865955
 20
-94.171946
 30
0.0
 11
113.865955
 21
-93.691946
 31
0.0
  0
ARC
  5
1CD
330
39
100
AcDbEntity
  8
0
  6
CONTINUOUS
100
AcDbCircle
 10
112.425955
 20
-93.691946
 30
0.0
 40
1.44
100
AcDbArc
 50
0.0
 51
180.0
  0
LINE
  5
1CE
330
39
100
AcDbEntity
  8
0
  6
CONTINUOUS
100
AcDbLine
 10
110.985955
 20
-94.171946
 30
0.0
 11
110.985955
 21
-93.691946
 31
0.0
  0
ARC
  5
1CF
330
39
100
AcDbEntity
  8
0
  6
CONTINUOUS
100
AcDbCircle
 10
112.425955
 20
-93.691946
 30
0.0
 40
0.48
100
AcDbArc
 50
0.0
 51
180.0
  0
LINE
  5
1D0
330
39
100
AcDbEntity
  8
0
  6
CONTINUOUS
100
AcDbLine
 10
111.945955
 20
-94.171946
 30
0.0
 11
111.945955
 21
-93.691946
 31
0.0
  0
ARC
  5
1D1
330
39
100
AcDbEntity
  8
0
  6
CONTINUOUS
100
AcDbCircle
 10
68.928465
 20
-93.691946
 30
0.0
 40
1.44
100
AcDbArc
 50
48.189685
 51
109.471221
  0
LINE
  5
1D2
330
39
100
AcDbEntity
  8
0
  6
CONTINUOUS
100
AcDbLine
 10
140.794157
 20
-83.438121
 30
0.0
 11
140.794157
 21
-87.838126
 31
0.0
  0
LINE
  5
1D3
330
39
100
AcDbEntity
  8
0
  6
CONTINUOUS
100
AcDbLine
 10
74.201833
 20
-65.591442
 30
0.0
 11
142.201833
 21
-65.591442
 31
0.0
  0
LINE
  5
1D4
330
39
100
AcDbEntity
  8
0
  6
CONTINUOUS
100
AcDbLine
 10
74.201833
 20
-57.591442
 30
0.0
 11
142.201833
 21
-57.591442
 31
0.0
  0
POINT
  5
1D5
330
39
100
AcDbEntity
  8
0
  6
CONTINUOUS
100
AcDbPoint
 10
55.201833
 20
-73.591442
 30
0.0
  0
POINT
  5
1D6
330
39
100
AcDbEntity
  8
0
  6
CONTINUOUS
100
AcDbPoint
 10
142.201833
 20
-60.791442
 30
0.0
  0
LINE
  5
1D7
330
39
100
AcDbEntity
  8
0
  6
CONTINUOUS
100
AcDbLine
 10
142.201833
 20
-49.591442
 30
0.0
 11
142.201833
 21
-89.591442
 31
0.0
  0
LINE
  5
1D8
330
39
100
AcDbEntity
  8
0
  6
CONTINUOUS
100
AcDbLine
 10
129.201833
 20
-97.591442
 30
0.0
 11
-129.298167
 21
-97.591442
 31
0.0
  0
LINE
  5
1D9
330
39
100
AcDbEntity
  8
0
  6
CONTINUOUS
100
AcDbLine
 10
142.201833
 20
99.908558
 30
0.0
 11
142.201833
 21
-89.591442
 31
0.0
  0
POINT
  5
1DA
330
39
100
AcDbEntity
  8
0
  6
CONTINUOUS
100
AcDbPoint
 10
148.701833
 20
104.908558
 30
0.0
  0
POINT
  5
1DB
330
39
100
AcDbEntity
  8
0
  6
CONTINUOUS
100
AcDbPoint
 10
-148.298167
 20
104.908558
 30
0.0
  0
POINT
  5
1DC
330
39
100
AcDbEntity
  8
0
  6
CONTINUOUS
100
AcDbPoint
 10
-148.298167
 20
-105.091442
 30
0.0
  0
POINT
  5
1DD
330
39
100
AcDbEntity
  8
0
  6
CONTINUOUS
100
AcDbPoint
 10
148.701833
 20
-105.091442
 30
0.0
  0
POINT
  5
1DE
330
39
100
AcDbEntity
  8
0
  6
CONTINUOUS
100
AcDbPoint
 10
92.201833
 20
-88.791442
 30
0.0
  0
POINT
  5
1DF
330
39
100
AcDbEntity
  8
0
  6
CONTINUOUS
100
AcDbPoint
 10
52.789754
 20
-88.994381
 30
0.0
  0
LINE
  5
1E0
330
39
100
AcDbEntity
  8
0
  6
CONTINUOUS
100
AcDbLine
 10
-129.298167
 20
99.908558
 30
0.0
 11
142.201833
 21
99.908558
 31
0.0
  0
LINE
  5
1E1
330
39
100
AcDbEntity
  8
0
  6
CONTINUOUS
100
AcDbLine
 10
22.201833
 20
-73.591442
 30
0.0
 11
22.201833
 21
-97.591442
 31
0.0
  0
POINT
  5
1E2
330
39
100
AcDbEntity
  8
0
  6
CONTINUOUS
100
AcDbPoint
 10
136.201833
 20
-56.791442
 30
0.0
  0
ENDBLK
  5
3B
330
39
100
AcDbEntity
  8
0
100
AcDbBlockEnd
  0
ENDSEC
  0
SECTION
  2
ENTITIES
  0
INSERT
  5
1E3
330
17
100
AcDbEntity
  8
0
100
AcDbBlockReference
  2
PROFILE
 10
-20.0
 20
0.0
 30
0.0
  0
INSERT
  5
1E5
330
17
100
AcDbEntity
  8
0
100
AcDbBlockReference
  2
TIP
 10
-70.0
 20
0.0
 30
0.0
  0
INSERT
  5
1E7
330
17
100
AcDbEntity
  8
0
100
AcDbBlockReference
  2
FRAME
 10
0.0
 20
0.0
 30
0.0
  0
ENDSEC
  0
SECTION
  2
OBJECTS
  0
DICTIONARY
  5
A
330
0
100
AcDbDictionary
281
1
  3
ACAD_COLOR
350
B
  3
ACAD_GROUP
350
C
  3
ACAD_LAYOUT
350
D
  3
ACAD_MATERIAL
350
E
  3
ACAD_MLEADERSTYLE
350
F
  3
ACAD_MLINESTYLE
350
10
  3
ACAD_PLOTSETTINGS
350
11
  3
ACAD_PLOTSTYLENAME
350
12
  3
ACAD_SCALELIST
350
14
  3
ACAD_TABLESTYLE
350
15
  3
ACAD_VISUALSTYLE
350
16
  3
EZDXF_META
350
2D
  0
DICTIONARY
  5
B
330
A
100
AcDbDictionary
281
1
  0
DICTIONARY
  5
C
330
A
100
AcDbDictionary
281
1
  0
DICTIONARY
  5
D
330
A
100
AcDbDictionary
281
1
  3
Model
350
1A
  3
Layout1
350
1E
  0
DICTIONARY
  5
E
330
A
100
AcDbDictionary
281
1
  3
ByBlock
350
1F
  3
ByLayer
350
20
  3
Global
350
21
  0
DICTIONARY
  5
F
330
A
100
AcDbDictionary
281
1
  3
Standard
350
2C
  0
DICTIONARY
  5
10
330
A
100
AcDbDictionary
281
1
  3
Standard
350
22
  0
DICTIONARY
  5
11
330
A
100
AcDbDictionary
281
1
  0
ACDBDICTIONARYWDFLT
  5
12
330
A
100
AcDbDictionary
281
1
  3
Normal
350
13
100
AcDbDictionaryWithDefault
340
13
  0
ACDBPLACEHOLDER
  5
13
330
12
  0
DICTIONARY
  5
14
330
A
100
AcDbDictionary
281
1
  0
DICTIONARY
  5
15
330
A
100
AcDbDictionary
281
1
  0
DICTIONARY
  5
16
330
A
100
AcDbDictionary
281
1
  0
LAYOUT
  5
1A
330
D
100
AcDbPlotSettings
  1

  2
Adobe PDF
  4
A3
  6

 40
7.5
 41
20.0
 42
7.5
 43
20.0
 44
420.0
 45
297.0
 46
0.0
 47
0.0
 48
0.0
 49
0.0
140
0.0
141
0.0
142
1.0
143
1.0
 70
1024
 72
1
 73
1
 74
5
  7

 75
16
 76
0
 77
2
 78
300
147
1.0
148
0.0
149
0.0
100
AcDbLayout
  1
Model
 70
1
 71
0
 10
0.0
 20
0.0
 11
420.0
 21
297.0
 12
0.0
 22
0.0
 32
0.0
 14
1e+20
 24
1e+20
 34
1e+20
 15
-1e+20
 25
-1e+20
 35
-1e+20
146
0.0
 13
0.0
 23
0.0
 33
0.0
 16
1.0
 26
0.0
 36
0.0
 17
0.0
 27
1.0
 37
0.0
 76
1
330
17
  0
LAYOUT
  5
1E
330
D
100
AcDbPlotSettings
  1

  2
Adobe PDF
  4
A3
  6

 40
7.5
 41
20.0
 42
7.5
 43
20.0
 44
420.0
 45
297.0
 46
0.0
 47
0.0
 48
0.0
 49
0.0
140
0.0
141
0.0
142
1.0
143
1.0
 70
0
 72
1
 73
1
 74
5
  7

 75
16
 76
0
 77
2
 78
300
147
1.0
148
0.0
149
0.0
100
AcDbLayout
  1
Layout1
 70
1
 71
1
 10
0.0
 20
0.0
 11
420.0
 21
297.0
 12
0.0
 22
0.0
 32
0.0
 14
1e+20
 24
1e+20
 34
1e+20
 15
-1e+20
 25
-1e+20
 35
-1e+20
146
0.0
 13
0.0
 23
0.0
 33
0.0
 16
1.0
 26
0.0
 36
0.0
 17
0.0
 27
1.0
 37
0.0
 76
1
330
1B
  0
MATERIAL
  5
1F
102
{ACAD_REACTORS
330
E
102
}
330
E
100
AcDbMaterial
  1
ByBlock
  2

 70
0
 40
1.0
 71
1
 41
1.0
 91
-1023410177
 42
1.0
 72
1
  3

 73
1
 74
1
 75
1
 44
0.5
 73
0
 45
1.0
 46
1.0
 77
1
  4

 78
1
 79
1
170
1
 48
1.0
171
1
  6

172
1
173
1
174
1
140
1.0
141
1.0
175
1
  7

176
1
177
1
178
1
143
1.0
179
1
  8

270
1
271
1
272
1
145
1.0
146
1.0
273
1
  9

274
1
275
1
276
1
 42
1.0
 72
1
  3

 73
1
 74
1
 75
1
 94
63
  0
MATERIAL
  5
20
102
{ACAD_REACTORS
330
E
102
}
330
E
100
AcDbMaterial
  1
ByLayer
  2

 70
0
 40
1.0
 71
1
 41
1.0
 91
-1023410177
 42
1.0
 72
1
  3

 73
1
 74
1
 75
1
 44
0.5
 73
0
 45
1.0
 46
1.0
 77
1
  4

 78
1
 79
1
170
1
 48
1.0
171
1
  6

172
1
173
1
174
1
140
1.0
141
1.0
175
1
  7

176
1
177
1
178
1
143
1.0
179
1
  8

270
1
271
1
272
1
145
1.0
146
1.0
273
1
  9

274
1
275
1
276
1
 42
1.0
 72
1
  3

 73
1
 74
1
 75
1
 94
63
  0
MATERIAL
  5
21
102
{ACAD_REACTORS
330
E
102
}
330
E
100
AcDbMaterial
  1
Global
  2

 70
0
 40
1.0
 71
1
 41
1.0
 91
-1023410177
 42
1.0
 72
1
  3

 73
1
 74
1
 75
1
 44
0.5
 73
0
 45
1.0
 46
1.0
 77
1
  4

 78
1
 79
1
170
1
 48
1.0
171
1
  6

172
1
173
1
174
1
140
1.0
141
1.0
175
1
  7

176
1
177
1
178
1
143
1.0
179
1
  8

270
1
271
1
272
1
145
1.0
146
1.0
273
1
  9

274
1
275
1
276
1
 42
1.0
 72
1
  3

 73
1
 74
1
 75
1
 94
63
  0
MLINESTYLE
  5
22
102
{ACAD_REACTORS
330
10
102
}
330
10
100
AcDbMlineStyle
  2
Standard
 70
0
  3

 62
256
 51
90.0
 52
90.0
 71
2
 49
0.5
 62
256
  6
BYLAYER
 49
-0.5
 62
256
  6
BYLAYER
  0
MLEADERSTYLE
  5
2C
102
{ACAD_REACTORS
330
F
102
}
330
F
100
AcDbMLeaderStyle
179
2
170
2
171
1
172
0
 90
2
 40
0.0
 41
0.0
173
1
 91
-1056964608
 92
-2
290
1
 42
2.0
291
1
 43
8.0
  3
Standard
 44
4.0
300

342
29
174
1
175
1
176
0
178
1
 93
-1056964608
 45
4.0
292
0
297
0
 46
4.0
 94
-1056964608
 47
1.0
 49
1.0
140
1.0
294
1
141
0.0
177
0
142
1.0
295
0
296
0
143
3.75
271
0
272
9
273
9
  0
DICTIONARY
  5
2D
330
A
100
AcDbDictionary
280
1
281
1
  3
CREATED_BY_EZDXF
350
2E
  3
WRITTEN_BY_EZDXF
350
1EB
  0
DICTIONARYVAR
  5
2E
330
2D
100
DictionaryVariables
280
0
  1
0.17 @ 2023-02-16T07:28:22.998250+00:00
  0
DICTIONARYVAR
  5
1EB
330
2D
100
DictionaryVariables
280
0
  1
0.17 @ 2023-02-16T07:28:23.082181+00:00
  0
ENDSEC
  0
EOF
