  0
SECTION
  2
HEADER
  9
$ACADVER
  1
AC1014
  9
$ACADMAINTVER
 70
     0
  9
$DWGCODEPAGE
  3
ANSI_932
  9
$INSBASE
 10
0.0
 20
0.0
 30
0.0
  9
$EXTMIN
 10
1.000000E+20
 20
1.000000E+20
 30
1.000000E+20
  9
$EXTMAX
 10
-1.000000E+20
 20
-1.000000E+20
 30
-1.000000E+20
  9
$LIMMIN
 10
0.0
 20
0.0
  9
$LIMMAX
 10
0.0
 20
0.0
  9
$ORTHOMODE
 70
     0
  9
$REGENMODE
 70
     1
  9
$FILLMODE
 70
     1
  9
$QTEXTMODE
 70
     0
  9
$MIRRTEXT
 70
     1
  9
$DRAGMODE
 70
     2
  9
$LTSCALE
 40
1.0
  9
$OSMODE
 70
     0
  9
$ATTMODE
 70
     1
  9
$TEXTSIZE
 40
2.5
  9
$TRACEWID
 40
0.05
  9
$TEXTSTYLE
  7
STANDARD
  9
$CLAYER
  8
0
  9
$CELTYPE
  6
CONTINUOUS
  9
$CECOLOR
 62
   256
  9
$CELTSCALE
 40
1.0
  9
$DELOBJ
 70
     1
  9
$DISPSILH
 70
     0
  9
$DIMSCALE
 40
1.0
  9
$DIMASZ
 40
1.931852
  9
$DIMEXO
 40
1.0
  9
$DIMDLI
 40
0.38
  9
$DIMRND
 40
0.0
  9
$DIMDLE
 40
0.0
  9
$DIMEXE
 40
2.0
  9
$DIMTP
 40
0.0
  9
$DIMTM
 40
0.0
  9
$DIMTXT
 40
4.0
  9
$DIMCEN
 40
0.09
  9
$DIMTSZ
 40
0.0
  9
$DIMTOL
 70
     0
  9
$DIMLIM
 70
     0
  9
$DIMTIH
 70
     1
  9
$DIMTOH
 70
     1
  9
$DIMSE1
 70
     0
  9
$DIMSE2
 70
     0
  9
$DIMTAD
 70
     1
  9
$DIMZIN
 70
     0
  9
$DIMBLK
  1

  9
$DIMASO
 70
     1
  9
$DIMSHO
 70
     1
  9
$DIMPOST
  1

  9
$DIMAPOST
  1

  9
$DIMALT
 70
     0
  9
$DIMALTD
 70
     2
  9
$DIMALTF
 40
25.4
  9
$DIMLFAC
 40
1.0
  9
$DIMTOFL
 70
     0
  9
$DIMTVP
 40
0.0
  9
$DIMTIX
 70
     0
  9
$DIMSOXD
 70
     0
  9
$DIMSAH
 70
     0
  9
$DIMBLK1
  1

  9
$DIMBLK2
  1

  9
$DIMSTYLE
  2
STANDARD
  9
$DIMCLRD
 70
     0
  9
$DIMCLRE
 70
     0
  9
$DIMCLRT
 70
     0
  9
$DIMTFAC
 40
0.75
  9
$DIMGAP
 40
0.09
  9
$DIMJUST
 70
     0
  9
$DIMSD1
 70
     0
  9
$DIMSD2
 70
     0
  9
$DIMTOLJ
 70
     1
  9
$DIMTZIN
 70
     0
  9
$DIMALTZ
 70
     0
  9
$DIMALTTZ
 70
     0
  9
$DIMFIT
 70
     3
  9
$DIMUPT
 70
     0
  9
$DIMUNIT
 70
     2
  9
$DIMDEC
 70
     4
  9
$DIMTDEC
 70
     4
  9
$DIMALTU
 70
     2
  9
$DIMALTTD
 70
     2
  9
$DIMTXSTY
  7
STANDARD
  9
$DIMAUNIT
 70
     0
  9
$LUNITS
 70
     2
  9
$LUPREC
 70
     3
  9
$SKETCHINC
 40
0.1
  9
$FILLETRAD
 40
0.0
  9
$AUNITS
 70
     0
  9
$AUPREC
 70
     0
  9
$MENU
  1
acad
  9
$ELEVATION
 40
0.0
  9
$PELEVATION
 40
0.0
  9
$THICKNESS
 40
0.0
  9
$LIMCHECK
 70
     0
  9
$BLIPMODE
 70
     1
  9
$CHAMFERA
 40
0.0
  9
$CHAMFERB
 40
0.0
  9
$CHAMFERC
 40
0.0
  9
$CHAMFERD
 40
0.0
  9
$SKPOLY
 70
     0
  9
$TDCREATE
 40
0.000000000
  9
$TDUPDATE
 40
0.000000000
  9
$TDINDWG
 40
0.0000000000
  9
$TDUSRTIMER
 40
0.0000000000
  9
$USRTIMER
 70
     1
  9
$ANGBASE
 50
0.0
  9
$ANGDIR
 70
     0
  9
$PDMODE
 70
     0
  9
$PDSIZE
 40
0.0
  9
$PLINEWID
 40
0.0
  9
$COORDS
 70
     0
  9
$SPLFRAME
 70
     0
  9
$SPLINETYPE
 70
     6
  9
$SPLINESEGS
 70
     8
  9
$ATTDIA
 70
     0
  9
$ATTREQ
 70
     1
  9
$HANDLING
 70
     1
  9
$HANDSEED
  5
1C9
  9
$SURFTAB1
 70
     6
  9
$SURFTAB2
 70
     6
  9
$SURFTYPE
 70
     6
  9
$SURFU
 70
     6
  9
$SURFV
 70
     6
  9
$UCSNAME
  2

  9
$UCSORG
 10
0.0
 20
0.0
 30
0.0
  9
$UCSXDIR
 10
1.0
 20
0.0
 30
0.0
  9
$UCSYDIR
 10
0.0
 20
1.0
 30
0.0
  9
$PUCSNAME
  2

  9
$PUCSORG
 10
0.0
 20
0.0
 30
0.0
  9
$PUCSXDIR
 10
1.0
 20
0.0
 30
0.0
  9
$PUCSYDIR
 10
0.0
 20
1.0
 30
0.0
  9
$USERI1
 70
     0
  9
$USERI2
 70
     0
  9
$USERI3
 70
     0
  9
$USERI4
 70
     0
  9
$USERI5
 70
     0
  9
$USERR1
 40
0.0
  9
$USERR2
 40
0.0
  9
$USERR3
 40
0.0
  9
$USERR4
 40
0.0
  9
$USERR5
 40
0.0
  9
$WORLDVIEW
 70
     1
  9
$SHADEDGE
 70
     3
  9
$SHADEDIF
 70
    70
  9
$TILEMODE
 70
     1
  9
$MAXACTVP
 70
    16
  9
$PINSBASE
 10
0.0
 20
0.0
 30
0.0
  9
$PLIMCHECK
 70
     0
  9
$PEXTMIN
 10
1.000000E+20
 20
1.000000E+20
 30
1.000000E+20
  9
$PEXTMAX
 10
-1.000000E+20
 20
-1.000000E+20
 30
-1.000000E+20
  9
$PLIMMIN
 10
0.0
 20
0.0
  9
$PLIMMAX
 10
12.0
 20
9.0
  9
$UNITMODE
 70
     0
  9
$VISRETAIN
 70
     0
  9
$PLINEGEN
 70
     1
  9
$PSLTSCALE
 70
     0
  9
$TREEDEPTH
 70
  3020
  9
$PICKSTYLE
 70
     1
  9
$CMLSTYLE
  2
STANDARD
  9
$CMLJUST
 70
     0
  9
$CMLSCALE
 40
1.0
  9
$PROXYGRAPHICS
 70
     0
  9
$MEASUREMENT
 70
     0
  0
ENDSEC
  0
SECTION
  2
CLASSES
  0
CLASS
  1
LWPOLYLINE
  2
AcDbPolyline
  3
"AutoCAD"
 90
        0
280
     0
281
     1
  0
CLASS
  1
IMAGE
  2
AcDbRasterImage
  3
ISM
 90
      127
280
     0
281
     1
  0
CLASS
  1
OLE2FRAME
  2
AcDbOle2Frame
  3
""
 90
        0
280
     0
281
     1
  0
CLASS
  1
HATCH
  2
AcDbHatch
  3
"ACAD_SEDONA"
 90
        0
280
     0
281
     1
  0
CLASS
  1
DICTIONARYVAR
  2
AcDbDictionaryVar
  3
"AutoCAD"
 90
        0
280
     0
281
     0
  0
CLASS
  1
RASTERVARIABLES
  2
AcDbRasterVariables
  3
ISM
 90
        0
280
     0
281
     0
  0
CLASS
  1
IMAGEDEF
  2
AcDbRasterImageDef
  3
ISM
 90
        0
280
     0
281
     0
  0
CLASS
  1
IMAGEDEF_REACTOR
  2
AcDbRasterImageDefReactor
  3
ISM
 90
        1
280
     0
281
     0
  0
CLASS
  1
IDBUFFER
  2
AcDbIdBuffer
  3
"Acad"
 90
        0
280
     0
281
     0
  0
CLASS
  1
SPATIAL_FILTER
  2
AcDbSpatialFilter
  3
"Acad"
 90
        0
280
     0
281
     0
  0
CLASS
  1
XRECORD
  2
AcDbXrecord
  3
"<Built In>"
 90
        0
280
     0
281
     0
  0
CLASS
  1
SORTENTSTABLE
  2
AcDbSortentsTable
  3
"AutoCAD"
 90
        0
280
     0
281
     0
  0
CLASS
  1
LAYER_INDEX
  2
AcDbLayerIndex
  3
"Acad"
 90
        0
280
     0
281
     0
  0
CLASS
  1
SPATIAL_INDEX
  2
AcDbSpatialIndex
  3
"Acad"
 90
        0
280
     0
281
     0
  0
CLASS
  1
OBJECT_PTR
  2
CAseDLPNTableRecord
  3
"ASE-LPNTableRecord"
 90
        1
280
     0
281
     0
  0
CLASS
  1
LAYOUT
  2
AcDbLayout
  3
"AutoCAD 2000"
 90
        0
280
     0
281
     0
  0
CLASS
  1
PLOTSETTINGS
  2
AcDbPlotSettings
  3
"AutoCAD 2000"
 90
        0
280
     0
281
     0
  0
CLASS
  1
ACDBDICTIONARYWDFLT
  2
AcDbDictionaryWithDefault
  3
"AutoCAD 2000"
 90
        0
280
     0
281
     0
  0
CLASS
  1
ACDBPLACEHOLDER
  2
AcDbPlaceHolder
  3
"AutoCAD 2000"
 90
        0
280
     0
281
     0
  0
CLASS
  1
VBA_PROJECT
  2
AcDbVbaProject
  3
"acadvba"
 90
        0
280
     0
281
     0
  0
CLASS
  1
WIPEOUT
  2
AcDbWipeout
  3
WipeOut|AutoCAD Express Tool|expresstools@autodesk.com
 90
      127
280
     0
281
     1
  0
CLASS
  1
WIPEOUTVARIABLES
  2
AcDbWipeoutVariables
  3
WipeOut|AutoCAD Express Tool|expresstools@autodesk.com
 90
        0
280
     0
281
     0
  0
CLASS
  1
RTEXT
  2
RText
  3
RText|AutoCAD Express Tool|expresstools@autodesk.com
 90
        0
280
     0
281
     1
  0
CLASS
  1
ARCALIGNEDTEXT
  2
AcDbArcAlignedText
  3
ATEXT|AutoCAD Express Tool|expresstools@autodesk.com
 90
        0
280
     0
281
     1
  0
ENDSEC
  0
SECTION
  2
TABLES
  0
TABLE
  2
VPORT
  5
7
100
AcDbSymbolTable
 70
     1
  0
VPORT
  5
15
100
AcDbSymbolTableRecord
100
AcDbViewportTableRecord
  2
*ACTIVE
 70
     0
 10
0.0
 20
0.0
 11
1.0
 21
1.0
 12
0.0
 22
0.0
 13
0.0
 23
0.0
 14
1.0
 24
1.0
 15
0.0
 25
0.0
 16
0.0
 26
0.0
 36
1.0
 17
0.0
 27
0.0
 37
0.0
 40
100.0
 41
1.0
 42
50.0
 43
0.0
 44
0.0
 50
0.0
 51
0.0
 71
     0
 72
   100
 73
     1
 74
     1
 75
     0
 76
     0
 77
     0
 78
     0
  0
ENDTAB
  0
TABLE
  2
LTYPE
  5
4
100
AcDbSymbolTable
 70
     7
  0
LTYPE
  5
11
100
AcDbSymbolTableRecord
100
AcDbLinetypeTableRecord
  2
BYBLOCK
 70
    64
  3

 72
    65
 73
     0
 40
0.0
  0
LTYPE
  5
12
100
AcDbSymbolTableRecord
100
AcDbLinetypeTableRecord
  2
BYLAYER
 70
    64
  3

 72
    65
 73
     0
 40
0.0
  0
LTYPE
  5
13
100
AcDbSymbolTableRecord
100
AcDbLinetypeTableRecord
  2
CONTINUOUS
 70
    64
  3
Solid line
 72
    65
 73
     0
 40
0.0
  0
LTYPE
  5
1D
100
AcDbSymbolTableRecord
100
AcDbLinetypeTableRecord
  2
DASHED
 70
    64
  3
Dashed __ __ __ __ __ __ __ __ __ __ __ __ __ _
 72
    65
 73
     2
 40
0.75
 49
0.5
 74
     0
 49
-0.25
 74
     0
  0
LTYPE
  5
1E
100
AcDbSymbolTableRecord
100
AcDbLinetypeTableRecord
  2
CENTER
 70
    64
  3
Center ____ _ ____ _ ____ _ ____ _ ____ _ ____
 72
    65
 73
     4
 40
1.0
 49
0.5
 74
     0
 49
-0.25
 74
     0
 49
0.0
 74
     0
 49
-0.25
 74
     0
  0
LTYPE
  5
1F
100
AcDbSymbolTableRecord
100
AcDbLinetypeTableRecord
  2
DIVIDE
 70
    64
  3
Divide ____ . . ____ . . ____ . . ____ . . ____
 72
    65
 73
     6
 40
1.25
 49
0.5
 74
     0
 49
-0.25
 74
     0
 49
0.0
 74
     0
 49
-0.25
 74
     0
 49
0.0
 74
     0
 49
-0.25
 74
     0
  0
LTYPE
  5
20
100
AcDbSymbolTableRecord
100
AcDbLinetypeTableRecord
  2
PHANTOM
 70
    64
  3
Phantom ______  __  __  ______  __  __  ______
 72
    65
 73
     6
 40
9.0
 49
4.3
 74
     0
 49
-0.7
 74
     0
 49
1.3
 74
     0
 49
-0.7
 74
     0
 49
1.3
 74
     0
 49
-0.7
 74
     0
  0
ENDTAB
  0
TABLE
  2
LAYER
  5
2
100
AcDbSymbolTable
 70
     1
  0
LAYER
  5
14
100
AcDbSymbolTableRecord
100
AcDbLayerTableRecord
  2
0
 70
    64
 62
     3
  6
CONTINUOUS
  0
ENDTAB
  0
TABLE
  2
STYLE
  5
3
100
AcDbSymbolTable
 70
     1
  0
STYLE
  5
17
100
AcDbSymbolTableRecord
100
AcDbTextStyleTableRecord
  2
STANDARD
 70
     0
 40
0.0
 41
1.0
 50
0.0
 71
     0
 42
0.0
  3
txt
  4

  0
ENDTAB
  0
TABLE
  2
VIEW
  5
5
100
AcDbSymbolTable
 70
     0
  0
ENDTAB
  0
TABLE
  2
UCS
  5
6
100
AcDbSymbolTable
 70
     0
  0
ENDTAB
  0
TABLE
  2
APPID
  5
8
100
AcDbSymbolTable
 70
     1
  0
APPID
  5
16
100
AcDbSymbolTableRecord
100
AcDbRegAppTableRecord
  2
ACAD
 70
     0
  0
ENDTAB
  0
TABLE
  2
DIMSTYLE
  5
9
100
AcDbSymbolTable
 70
     1
  0
DIMSTYLE
105
18
100
AcDbSymbolTableRecord
100
AcDbDimStyleTableRecord
  2
STANDARD
 70
     0
  3

  4

  5

  6

  7

 40
1.0
 41
0.18
 42
0.0625
 43
0.38
 44
0.18
 45
0.0
 46
0.0
 47
0.0
 48
0.0
 71
     0
 72
     0
 73
     1
 74
     1
 75
     0
 76
     0
 77
     0
 78
     0
140
0.18
141
0.09
142
0.0
143
25.4
144
1.0
145
0.0
146
1.0
147
0.09
170
     0
171
     2
172
     0
173
     0
174
     0
175
     0
176
     0
177
     0
178
     0
270
     2
271
     4
272
     4
273
     2
274
     2
275
     0
280
     0
281
     0
282
     0
283
     1
284
     0
285
     0
286
     0
287
     3
288
     0
340
17
  0
ENDTAB
  0
TABLE
  2
BLOCK_RECORD
  5
1
100
AcDbSymbolTable
 70
     0
  0
BLOCK_RECORD
  5
A
100
AcDbSymbolTableRecord
100
AcDbBlockTableRecord
  2
*MODEL_SPACE
  0
BLOCK_RECORD
  5
B
100
AcDbSymbolTableRecord
100
AcDbBlockTableRecord
  2
*PAPER_SPACE
  0
ENDTAB
  0
ENDSEC
  0
SECTION
  2
BLOCKS
  0
BLOCK
  5
D
100
AcDbEntity
  8
0
100
AcDbBlockBegin
  2
*MODEL_SPACE
 70
     0
 10
0.0
 20
0.0
 30
0.0
  3
*MODEL_SPACE
  1

  0
ENDBLK
  5
E
100
AcDbEntity
  8
0
100
AcDbBlockEnd
  0
BLOCK
  5
F
100
AcDbEntity
 67
     1
  8
0
100
AcDbBlockBegin
  2
*PAPER_SPACE
 70
     0
 10
0.0
 20
0.0
 30
0.0
  3
*PAPER_SPACE
  1

  0
ENDBLK
  5
10
100
AcDbEntity
 67
     1
  8
0
100
AcDbBlockEnd
  0
ENDSEC
  0
SECTION
  2
ENTITIES
  0
HATCH
  5
21
100
AcDbEntity
  8
0
  6
CONTINUOUS
100
AcDbHatch
 10
0.0
 20
0.0
 30
0.0
210
0.0
220
0.0
230
1.0
  2

 70
     1
 71
     1
 91
        1
 92
        1
 93
        4
 72
     1
 10
137.40582613087321
 20
-91.839536659762942
 11
137.8081276115596
 21
-91.839536659762942
 72
     1
 10
137.8081276115596
 20
-91.839536659762942
 11
137.8081276115596
 21
-91.427474612769842
 72
     1
 10
137.8081276115596
 20
-91.427474612769842
 11
137.40582613087321
 21
-91.427474612769842
 72
     1
 10
137.40582613087321
 20
-91.427474612769842
 11
137.40582613087321
 21
-91.839536659762942
 97
        0
 75
     0
 76
     0
 98
        1
 10
0.0
 20
0.0
  0
HATCH
  5
22
100
AcDbEntity
  8
0
  6
CONTINUOUS
100
AcDbHatch
 10
0.0
 20
0.0
 30
0.0
210
0.0
220
0.0
230
1.0
  2

 70
     1
 71
     1
 91
        1
 92
        1
 93
        4
 72
     1
 10
136.99602348403957
 20
-92.643478591588448
 11
137.40582613087321
 21
-92.643478591588448
 72
     1
 10
137.40582613087321
 20
-92.643478591588448
 11
137.40582613087321
 21
-92.241507625675723
 72
     1
 10
137.40582613087321
 20
-92.241507625675723
 11
136.99602348403957
 21
-92.241507625675723
 72
     1
 10
136.99602348403957
 20
-92.241507625675723
 11
136.99602348403957
 21
-92.643478591588448
 97
        0
 75
     0
 76
     0
 98
        1
 10
0.0
 20
0.0
  0
HATCH
  5
23
100
AcDbEntity
  8
0
  6
CONTINUOUS
100
AcDbHatch
 10
0.0
 20
0.0
 30
0.0
210
0.0
220
0.0
230
1.0
  2

 70
     1
 71
     1
 91
        1
 92
        1
 93
        4
 72
     1
 10
136.99602348403957
 20
-93.797709507995123
 11
136.99602348403957
 21
-93.395738542082398
 72
     1
 10
136.99602348403957
 20
-93.395738542082398
 11
137.40582613087321
 21
-93.395738542082398
 72
     1
 10
137.40582613087321
 20
-93.395738542082398
 11
137.40582613087321
 21
-93.797709507995123
 72
     1
 10
137.40582613087321
 20
-93.797709507995123
 11
136.99602348403957
 21
-93.797709507995123
 97
        0
 75
     0
 76
     0
 98
        1
 10
0.0
 20
0.0
  0
HATCH
  5
24
100
AcDbEntity
  8
0
  6
CONTINUOUS
100
AcDbHatch
 10
0.0
 20
0.0
 30
0.0
210
0.0
220
0.0
230
1.0
  2

 70
     1
 71
     1
 91
        1
 92
        1
 93
        4
 72
     1
 10
137.40582613087321
 20
-93.000148067692152
 11
137.40582613087321
 21
-94.211803407800474
 72
     1
 10
137.40582613087321
 20
-94.211803407800474
 11
137.8081276115596
 21
-94.211803407800474
 72
     1
 10
137.8081276115596
 20
-94.211803407800474
 11
137.8081276115596
 21
-93.000148067692152
 72
     1
 10
137.8081276115596
 20
-93.000148067692152
 11
137.40582613087321
 21
-93.000148067692152
 97
        0
 75
     0
 76
     0
 98
        1
 10
0.0
 20
0.0
  0
HATCH
  5
25
100
AcDbEntity
  8
0
  6
CONTINUOUS
100
AcDbHatch
 10
0.0
 20
0.0
 30
0.0
210
0.0
220
0.0
230
1.0
  2

 70
     1
 71
     1
 91
        1
 92
        1
 93
        4
 72
     1
 10
136.58582918339829
 20
-94.211803407800474
 11
136.58582918339829
 21
-93.797709507995123
 72
     1
 10
136.58582918339829
 20
-93.797709507995123
 11
136.99602348403957
 21
-93.797709507995123
 72
     1
 10
136.99602348403957
 20
-93.797709507995123
 11
136.99602348403957
 21
-94.211803407800474
 72
     1
 10
136.99602348403957
 20
-94.211803407800474
 11
136.58582918339829
 21
-94.211803407800474
 97
        0
 75
     0
 76
     0
 98
        1
 10
0.0
 20
0.0
  0
HATCH
  5
26
100
AcDbEntity
  8
0
  6
CONTINUOUS
100
AcDbHatch
 10
0.0
 20
0.0
 30
0.0
210
0.0
220
0.0
230
1.0
  2

 70
     1
 71
     1
 91
        1
 92
        1
 93
        4
 72
     1
 10
137.8081276115596
 20
-93.000148067692152
 11
137.8081276115596
 21
-92.643478591588448
 72
     1
 10
137.8081276115596
 20
-92.643478591588448
 11
136.58582918339829
 21
-92.643478591588448
 72
     1
 10
136.58582918339829
 20
-92.643478591588448
 11
136.58582918339829
 21
-93.000148067692152
 72
     1
 10
136.58582918339829
 20
-93.000148067692152
 11
137.8081276115596
 21
-93.000148067692152
 97
        0
 75
     0
 76
     0
 98
        1
 10
0.0
 20
0.0
  0
HATCH
  5
27
100
AcDbEntity
  8
0
  6
CONTINUOUS
100
AcDbHatch
 10
0.0
 20
0.0
 30
0.0
210
0.0
220
0.0
230
1.0
  2

 70
     1
 71
     1
 91
        1
 92
        1
 93
        4
 72
     1
 10
136.58582918339829
 20
-92.241507625675723
 11
137.40582613087321
 21
-92.241507625675723
 72
     1
 10
137.40582613087321
 20
-92.241507625675723
 11
137.40582613087321
 21
-91.427474612769842
 72
     1
 10
137.40582613087321
 20
-91.427474612769842
 11
136.58582918339829
 21
-91.427474612769842
 72
     1
 10
136.58582918339829
 20
-91.427474612769842
 11
136.58582918339829
 21
-92.241507625675723
 97
        0
 75
     0
 76
     0
 98
        1
 10
0.0
 20
0.0
  0
HATCH
  5
28
100
AcDbEntity
  8
0
  6
CONTINUOUS
100
AcDbHatch
 10
0.0
 20
0.0
 30
0.0
210
0.0
220
0.0
230
1.0
  2

 70
     1
 71
     1
 91
        1
 92
        1
 93
        4
 72
     1
 10
136.58582918339829
 20
-93.395738542082398
 11
136.1813636494694
 21
-93.395738542082398
 72
     1
 10
136.1813636494694
 20
-93.395738542082398
 11
136.1813636494694
 21
-93.000148067692152
 72
     1
 10
136.1813636494694
 20
-93.000148067692152
 11
136.58582918339829
 21
-93.000148067692152
 72
     1
 10
136.58582918339829
 20
-93.000148067692152
 11
136.58582918339829
 21
-93.395738542082398
 97
        0
 75
     0
 76
     0
 98
        1
 10
0.0
 20
0.0
  0
HATCH
  5
29
100
AcDbEntity
  8
0
  6
CONTINUOUS
100
AcDbHatch
 10
0.0
 20
0.0
 30
0.0
210
0.0
220
0.0
230
1.0
  2

 70
     1
 71
     1
 91
        1
 92
        1
 93
        4
 72
     1
 10
136.1813636494694
 20
-92.241507625675723
 11
136.1813636494694
 21
-92.643478591588448
 72
     1
 10
136.1813636494694
 20
-92.643478591588448
 11
136.58582918339829
 21
-92.643478591588448
 72
     1
 10
136.58582918339829
 20
-92.643478591588448
 11
136.58582918339829
 21
-92.241507625675723
 72
     1
 10
136.58582918339829
 20
-92.241507625675723
 11
136.1813636494694
 21
-92.241507625675723
 97
        0
 75
     0
 76
     0
 98
        1
 10
0.0
 20
0.0
  0
HATCH
  5
2A
100
AcDbEntity
  8
0
  6
CONTINUOUS
100
AcDbHatch
 10
0.0
 20
0.0
 30
0.0
210
0.0
220
0.0
230
1.0
  2

 70
     1
 71
     1
 91
        1
 92
        1
 93
        4
 72
     1
 10
136.1813636494694
 20
-91.839536659762942
 11
136.1813636494694
 21
-92.241507625675723
 72
     1
 10
136.1813636494694
 20
-92.241507625675723
 11
136.58582918339829
 21
-92.241507625675723
 72
     1
 10
136.58582918339829
 20
-92.241507625675723
 11
136.58582918339829
 21
-91.839536659762942
 72
     1
 10
136.58582918339829
 20
-91.839536659762942
 11
136.1813636494694
 21
-91.839536659762942
 97
        0
 75
     0
 76
     0
 98
        1
 10
0.0
 20
0.0
  0
HATCH
  5
2B
100
AcDbEntity
  8
0
  6
CONTINUOUS
100
AcDbHatch
 10
0.0
 20
0.0
 30
0.0
210
0.0
220
0.0
230
1.0
  2

 70
     1
 71
     1
 91
        1
 92
        1
 93
        6
 72
     1
 10
134.62325937255267
 20
-91.839536659762942
 11
134.21228510496599
 21
-91.839536659762942
 72
     1
 10
134.21228510496599
 20
-91.839536659762942
 11
134.21228510496599
 21
-92.643478591588448
 72
     1
 10
134.21228510496599
 20
-92.643478591588448
 11
135.42902419925605
 21
-92.643478591588448
 72
     1
 10
135.42902419925605
 20
-92.643478591588448
 11
135.42902419925605
 21
-92.241507625675723
 72
     1
 10
135.42902419925605
 20
-92.241507625675723
 11
134.62325937255267
 21
-92.241507625675723
 72
     1
 10
134.62325937255267
 20
-92.241507625675723
 11
134.62325937255267
 21
-91.839536659762942
 97
        0
 75
     0
 76
     0
 98
        1
 10
0.0
 20
0.0
  0
HATCH
  5
2C
100
AcDbEntity
  8
0
  6
CONTINUOUS
100
AcDbHatch
 10
0.0
 20
0.0
 30
0.0
210
0.0
220
0.0
230
1.0
  2

 70
     1
 71
     1
 91
        1
 92
        1
 93
        4
 72
     1
 10
135.83653940960266
 20
-94.211803407800474
 11
135.83653940960266
 21
-93.797709507995123
 72
     1
 10
135.83653940960266
 20
-93.797709507995123
 11
136.1813636494694
 21
-93.797709507995123
 72
     1
 10
136.1813636494694
 20
-93.797709507995123
 11
136.1813636494694
 21
-94.211803407800474
 72
     1
 10
136.1813636494694
 20
-94.211803407800474
 11
135.83653940960266
 21
-94.211803407800474
 97
        0
 75
     0
 76
     0
 98
        1
 10
0.0
 20
0.0
  0
HATCH
  5
2D
100
AcDbEntity
  8
0
  6
CONTINUOUS
100
AcDbHatch
 10
0.0
 20
0.0
 30
0.0
210
0.0
220
0.0
230
1.0
  2

 70
     1
 71
     1
 91
        1
 92
        1
 93
        4
 72
     1
 10
135.42902419925605
 20
-93.000148067692152
 11
135.42902419925605
 21
-93.797709507995123
 72
     1
 10
135.42902419925605
 20
-93.797709507995123
 11
135.83653940960266
 21
-93.797709507995123
 72
     1
 10
135.83653940960266
 20
-93.797709507995123
 11
135.83653940960266
 21
-93.000148067692152
 72
     1
 10
135.83653940960266
 20
-93.000148067692152
 11
135.42902419925605
 21
-93.000148067692152
 97
        0
 75
     0
 76
     0
 98
        1
 10
0.0
 20
0.0
  0
HATCH
  5
2E
100
AcDbEntity
  8
0
  6
CONTINUOUS
100
AcDbHatch
 10
0.0
 20
0.0
 30
0.0
210
0.0
220
0.0
230
1.0
  2

 70
     1
 71
     1
 91
        1
 92
        1
 93
        4
 72
     1
 10
134.62325937255267
 20
-92.643478591588448
 11
134.62325937255267
 21
-93.000148067692152
 72
     1
 10
134.62325937255267
 20
-93.000148067692152
 11
135.83653940960266
 21
-93.000148067692152
 72
     1
 10
135.83653940960266
 20
-93.000148067692152
 11
135.83653940960266
 21
-92.643478591588448
 72
     1
 10
135.83653940960266
 20
-92.643478591588448
 11
134.62325937255267
 21
-92.643478591588448
 97
        0
 75
     0
 76
     0
 98
        1
 10
0.0
 20
0.0
  0
HATCH
  5
2F
100
AcDbEntity
  8
0
  6
CONTINUOUS
100
AcDbHatch
 10
0.0
 20
0.0
 30
0.0
210
0.0
220
0.0
230
1.0
  2

 70
     1
 71
     1
 91
        1
 92
        1
 93
        6
 72
     1
 10
135.83653940960266
 20
-91.839536659762942
 11
135.83653940960266
 21
-91.427474612769842
 72
     1
 10
135.83653940960266
 20
-91.427474612769842
 11
136.1813636494694
 21
-91.427474612769842
 72
     1
 10
136.1813636494694
 20
-91.427474612769842
 11
136.1813636494694
 21
-92.241507625675723
 72
     1
 10
136.1813636494694
 20
-92.241507625675723
 11
135.42902419925605
 21
-92.241507625675723
 72
     1
 10
135.42902419925605
 20
-92.241507625675723
 11
135.42902419925605
 21
-91.839536659762942
 72
     1
 10
135.42902419925605
 20
-91.839536659762942
 11
135.83653940960266
 21
-91.839536659762942
 97
        0
 75
     0
 76
     0
 98
        1
 10
0.0
 20
0.0
  0
HATCH
  5
30
100
AcDbEntity
  8
0
  6
CONTINUOUS
100
AcDbHatch
 10
0.0
 20
0.0
 30
0.0
210
0.0
220
0.0
230
1.0
  2

 70
     1
 71
     1
 91
        1
 92
        1
 93
        4
 72
     1
 10
134.62325937255267
 20
-93.797709507995123
 11
134.62325937255267
 21
-93.395738542082398
 72
     1
 10
134.62325937255267
 20
-93.395738542082398
 11
135.01821869753093
 21
-93.395738542082398
 72
     1
 10
135.01821869753093
 20
-93.395738542082398
 11
135.01821869753093
 21
-93.797709507995123
 72
     1
 10
135.01821869753093
 20
-93.797709507995123
 11
134.62325937255267
 21
-93.797709507995123
 97
        0
 75
     0
 76
     0
 98
        1
 10
0.0
 20
0.0
  0
HATCH
  5
31
100
AcDbEntity
  8
0
  6
CONTINUOUS
100
AcDbHatch
 10
0.0
 20
0.0
 30
0.0
210
0.0
220
0.0
230
1.0
  2

 70
     1
 71
     1
 91
        1
 92
        1
 93
        4
 72
     1
 10
135.01821869753093
 20
-91.839536659762942
 11
135.01821869753093
 21
-91.427474612769842
 72
     1
 10
135.01821869753093
 20
-91.427474612769842
 11
135.42902419925605
 21
-91.427474612769842
 72
     1
 10
135.42902419925605
 20
-91.427474612769842
 11
135.42902419925605
 21
-91.839536659762942
 72
     1
 10
135.42902419925605
 20
-91.839536659762942
 11
135.01821869753093
 21
-91.839536659762942
 97
        0
 75
     0
 76
     0
 98
        1
 10
0.0
 20
0.0
  0
HATCH
  5
32
100
AcDbEntity
  8
0
  6
CONTINUOUS
100
AcDbHatch
 10
0.0
 20
0.0
 30
0.0
210
0.0
220
0.0
230
1.0
  2

 70
     1
 71
     1
 91
        1
 92
        1
 93
        4
 72
     1
 10
136.99602348403957
 20
-99.897246720382455
 11
136.99602348403957
 21
-101.46657793202031
 72
     1
 10
136.99602348403957
 20
-101.46657793202031
 11
137.40582613087321
 21
-101.46657793202031
 72
     1
 10
137.40582613087321
 20
-101.46657793202031
 11
137.40582613087321
 21
-99.897246720382455
 72
     1
 10
137.40582613087321
 20
-99.897246720382455
 11
136.99602348403957
 21
-99.897246720382455
 97
        0
 75
     0
 76
     0
 98
        1
 10
0.0
 20
0.0
  0
HATCH
  5
33
100
AcDbEntity
  8
0
  6
CONTINUOUS
100
AcDbHatch
 10
0.0
 20
0.0
 30
0.0
210
0.0
220
0.0
230
1.0
  2

 70
     1
 71
     1
 91
        1
 92
        1
 93
        4
 72
     1
 10
134.21228510496599
 20
-101.46657793202031
 11
134.21228510496599
 21
-100.64872683302362
 72
     1
 10
134.21228510496599
 20
-100.64872683302362
 11
134.62325937255267
 21
-100.64872683302362
 72
     1
 10
134.62325937255267
 20
-100.64872683302362
 11
134.62325937255267
 21
-101.46657793202031
 72
     1
 10
134.62325937255267
 20
-101.46657793202031
 11
134.21228510496599
 21
-101.46657793202031
 97
        0
 75
     0
 76
     0
 98
        1
 10
0.0
 20
0.0
  0
HATCH
  5
34
100
AcDbEntity
  8
0
  6
CONTINUOUS
100
AcDbHatch
 10
0.0
 20
0.0
 30
0.0
210
0.0
220
0.0
230
1.0
  2

 70
     1
 71
     1
 91
        1
 92
        1
 93
        4
 72
     1
 10
139.01872289289156
 20
-101.46657793202031
 11
139.01872289289156
 21
-101.05991406446874
 72
     1
 10
139.01872289289156
 20
-101.05991406446874
 11
139.43209689139519
 21
-101.05991406446874
 72
     1
 10
139.43209689139519
 20
-101.05991406446874
 11
139.43209689139519
 21
-101.46657793202031
 72
     1
 10
139.43209689139519
 20
-101.46657793202031
 11
139.01872289289156
 21
-101.46657793202031
 97
        0
 75
     0
 76
     0
 98
        1
 10
0.0
 20
0.0
  0
HATCH
  5
35
100
AcDbEntity
  8
0
  6
CONTINUOUS
100
AcDbHatch
 10
0.0
 20
0.0
 30
0.0
210
0.0
220
0.0
230
1.0
  2

 70
     1
 71
     1
 91
        1
 92
        1
 93
        4
 72
     1
 10
134.21228510496599
 20
-100.23753960157838
 11
134.21228510496599
 21
-99.897246720382455
 72
     1
 10
134.21228510496599
 20
-99.897246720382455
 11
135.01821869753093
 21
-99.897246720382455
 72
     1
 10
135.01821869753093
 20
-99.897246720382455
 11
135.01821869753093
 21
-100.23753960157838
 72
     1
 10
135.01821869753093
 20
-100.23753960157838
 11
134.21228510496599
 21
-100.23753960157838
 97
        0
 75
     0
 76
     0
 98
        1
 10
0.0
 20
0.0
  0
HATCH
  5
36
100
AcDbEntity
  8
0
  6
CONTINUOUS
100
AcDbHatch
 10
0.0
 20
0.0
 30
0.0
210
0.0
220
0.0
230
1.0
  2

 70
     1
 71
     1
 91
        1
 92
        1
 93
        4
 72
     1
 10
135.01821869753093
 20
-100.23753960157838
 11
135.83653940960266
 21
-100.23753960157838
 72
     1
 10
135.83653940960266
 20
-100.23753960157838
 11
135.83653940960266
 21
-101.05991406446874
 72
     1
 10
135.83653940960266
 20
-101.05991406446874
 11
135.01821869753093
 21
-101.05991406446874
 72
     1
 10
135.01821869753093
 20
-101.05991406446874
 11
135.01821869753093
 21
-100.23753960157838
 97
        0
 75
     0
 76
     0
 98
        1
 10
0.0
 20
0.0
  0
HATCH
  5
37
100
AcDbEntity
  8
0
  6
CONTINUOUS
100
AcDbHatch
 10
0.0
 20
0.0
 30
0.0
210
0.0
220
0.0
230
1.0
  2

 70
     1
 71
     1
 91
        1
 92
        1
 93
        4
 72
     1
 10
136.1813636494694
 20
-100.64872683302362
 11
137.8081276115596
 21
-100.64872683302362
 72
     1
 10
137.8081276115596
 20
-100.64872683302362
 11
137.8081276115596
 21
-101.05991406446874
 72
     1
 10
137.8081276115596
 20
-101.05991406446874
 11
136.1813636494694
 21
-101.05991406446874
 72
     1
 10
136.1813636494694
 20
-101.05991406446874
 11
136.1813636494694
 21
-100.64872683302362
 97
        0
 75
     0
 76
     0
 98
        1
 10
0.0
 20
0.0
  0
HATCH
  5
38
100
AcDbEntity
  8
0
  6
CONTINUOUS
100
AcDbHatch
 10
0.0
 20
0.0
 30
0.0
210
0.0
220
0.0
230
1.0
  2

 70
     1
 71
     1
 91
        1
 92
        1
 93
        4
 72
     1
 10
137.8081276115596
 20
-100.64872683302362
 11
137.8081276115596
 21
-100.23753960157838
 72
     1
 10
137.8081276115596
 20
-100.23753960157838
 11
138.21042909224616
 21
-100.23753960157838
 72
     1
 10
138.21042909224616
 20
-100.23753960157838
 11
138.21042909224616
 21
-100.64872683302362
 72
     1
 10
138.21042909224616
 20
-100.64872683302362
 11
137.8081276115596
 21
-100.64872683302362
 97
        0
 75
     0
 76
     0
 98
        1
 10
0.0
 20
0.0
  0
HATCH
  5
39
100
AcDbEntity
  8
0
  6
CONTINUOUS
100
AcDbHatch
 10
0.0
 20
0.0
 30
0.0
210
0.0
220
0.0
230
1.0
  2

 70
     1
 71
     1
 91
        1
 92
        1
 93
        4
 72
     1
 10
138.6238030907497
 20
-101.05991406446874
 11
138.6238030907497
 21
-100.64872683302362
 72
     1
 10
138.6238030907497
 20
-100.64872683302362
 11
139.01872289289156
 21
-100.64872683302362
 72
     1
 10
139.01872289289156
 20
-100.64872683302362
 11
139.01872289289156
 21
-101.05991406446874
 72
     1
 10
139.01872289289156
 20
-101.05991406446874
 11
138.6238030907497
 21
-101.05991406446874
 97
        0
 75
     0
 76
     0
 98
        1
 10
0.0
 20
0.0
  0
HATCH
  5
3A
100
AcDbEntity
  8
0
  6
CONTINUOUS
100
AcDbHatch
 10
0.0
 20
0.0
 30
0.0
210
0.0
220
0.0
230
1.0
  2

 70
     1
 71
     1
 91
        1
 92
        1
 93
        4
 72
     1
 10
135.83653940960266
 20
-100.64872683302362
 11
135.83653940960266
 21
-98.679990726604345
 72
     1
 10
135.83653940960266
 20
-98.679990726604345
 11
136.1813636494694
 21
-98.679990726604345
 72
     1
 10
136.1813636494694
 20
-98.679990726604345
 11
136.1813636494694
 21
-100.64872683302362
 72
     1
 10
136.1813636494694
 20
-100.64872683302362
 11
135.83653940960266
 21
-100.64872683302362
 97
        0
 75
     0
 76
     0
 98
        1
 10
0.0
 20
0.0
  0
HATCH
  5
3B
100
AcDbEntity
  8
0
  6
CONTINUOUS
100
AcDbHatch
 10
0.0
 20
0.0
 30
0.0
210
0.0
220
0.0
230
1.0
  2

 70
     1
 71
     1
 91
        1
 92
        1
 93
        4
 72
     1
 10
137.40582613087321
 20
-99.48818631944475
 11
136.99602348403957
 21
-99.48818631944475
 72
     1
 10
136.99602348403957
 20
-99.48818631944475
 11
136.99602348403957
 21
-99.091177958049471
 72
     1
 10
136.99602348403957
 20
-99.091177958049471
 11
137.40582613087321
 21
-99.091177958049471
 72
     1
 10
137.40582613087321
 20
-99.091177958049471
 11
137.40582613087321
 21
-99.48818631944475
 97
        0
 75
     0
 76
     0
 98
        1
 10
0.0
 20
0.0
  0
HATCH
  5
3C
100
AcDbEntity
  8
0
  6
CONTINUOUS
100
AcDbHatch
 10
0.0
 20
0.0
 30
0.0
210
0.0
220
0.0
230
1.0
  2

 70
     1
 71
     1
 91
        1
 92
        1
 93
        6
 72
     1
 10
136.1813636494694
 20
-99.48818631944475
 11
136.58582918339829
 21
-99.48818631944475
 72
     1
 10
136.58582918339829
 20
-99.48818631944475
 11
136.58582918339829
 21
-99.897246720382455
 72
     1
 10
136.58582918339829
 20
-99.897246720382455
 11
137.40582613087321
 21
-99.897246720382455
 72
     1
 10
137.40582613087321
 20
-99.897246720382455
 11
137.40582613087321
 21
-100.23753960157838
 72
     1
 10
137.40582613087321
 20
-100.23753960157838
 11
136.1813636494694
 21
-100.23753960157838
 72
     1
 10
136.1813636494694
 20
-100.23753960157838
 11
136.1813636494694
 21
-99.48818631944475
 97
        0
 75
     0
 76
     0
 98
        1
 10
0.0
 20
0.0
  0
HATCH
  5
3D
100
AcDbEntity
  8
0
  6
CONTINUOUS
100
AcDbHatch
 10
0.0
 20
0.0
 30
0.0
210
0.0
220
0.0
230
1.0
  2

 70
     1
 71
     1
 91
        1
 92
        1
 93
        4
 72
     1
 10
135.01821869753093
 20
-99.48818631944475
 11
135.01821869753093
 21
-99.897246720382455
 72
     1
 10
135.01821869753093
 20
-99.897246720382455
 11
135.83653940960266
 21
-99.897246720382455
 72
     1
 10
135.83653940960266
 20
-99.897246720382455
 11
135.83653940960266
 21
-99.48818631944475
 72
     1
 10
135.83653940960266
 20
-99.48818631944475
 11
135.01821869753093
 21
-99.48818631944475
 97
        0
 75
     0
 76
     0
 98
        1
 10
0.0
 20
0.0
  0
HATCH
  5
3E
100
AcDbEntity
  8
0
  6
CONTINUOUS
100
AcDbHatch
 10
0.0
 20
0.0
 30
0.0
210
0.0
220
0.0
230
1.0
  2

 70
     1
 71
     1
 91
        1
 92
        1
 93
        4
 72
     1
 10
134.62325937255267
 20
-99.48818631944475
 11
134.62325937255267
 21
-99.091177958049471
 72
     1
 10
134.62325937255267
 20
-99.091177958049471
 11
135.42902419925605
 21
-99.091177958049471
 72
     1
 10
135.42902419925605
 20
-99.091177958049471
 11
135.42902419925605
 21
-99.48818631944475
 72
     1
 10
135.42902419925605
 20
-99.48818631944475
 11
134.62325937255267
 21
-99.48818631944475
 97
        0
 75
     0
 76
     0
 98
        1
 10
0.0
 20
0.0
  0
HATCH
  5
3F
100
AcDbEntity
  8
0
  6
CONTINUOUS
100
AcDbHatch
 10
0.0
 20
0.0
 30
0.0
210
0.0
220
0.0
230
1.0
  2

 70
     1
 71
     1
 91
        1
 92
        1
 93
        4
 72
     1
 10
137.40582613087321
 20
-99.897246720382455
 11
139.01872289289156
 21
-99.897246720382455
 72
     1
 10
139.01872289289156
 20
-99.897246720382455
 11
139.01872289289156
 21
-99.48818631944475
 72
     1
 10
139.01872289289156
 20
-99.48818631944475
 11
137.40582613087321
 21
-99.48818631944475
 72
     1
 10
137.40582613087321
 20
-99.48818631944475
 11
137.40582613087321
 21
-99.897246720382455
 97
        0
 75
     0
 76
     0
 98
        1
 10
0.0
 20
0.0
  0
HATCH
  5
40
100
AcDbEntity
  8
0
  6
CONTINUOUS
100
AcDbHatch
 10
0.0
 20
0.0
 30
0.0
210
0.0
220
0.0
230
1.0
  2

 70
     1
 71
     1
 91
        1
 92
        1
 93
        4
 72
     1
 10
138.21042909224616
 20
-99.091177958049471
 11
138.21042909224616
 21
-98.679990726604345
 72
     1
 10
138.21042909224616
 20
-98.679990726604345
 11
138.6238030907497
 21
-98.679990726604345
 72
     1
 10
138.6238030907497
 20
-98.679990726604345
 11
138.6238030907497
 21
-99.091177958049471
 72
     1
 10
138.6238030907497
 20
-99.091177958049471
 11
138.21042909224616
 21
-99.091177958049471
 97
        0
 75
     0
 76
     0
 98
        1
 10
0.0
 20
0.0
  0
HATCH
  5
41
100
AcDbEntity
  8
0
  6
CONTINUOUS
100
AcDbHatch
 10
0.0
 20
0.0
 30
0.0
210
0.0
220
0.0
230
1.0
  2

 70
     1
 71
     1
 91
        1
 92
        1
 93
        4
 72
     1
 10
139.43209689139519
 20
-99.48818631944475
 11
139.43209689139519
 21
-98.679990726604345
 72
     1
 10
139.43209689139519
 20
-98.679990726604345
 11
139.83518417576767
 21
-98.679990726604345
 72
     1
 10
139.83518417576767
 20
-98.679990726604345
 11
139.83518417576767
 21
-99.48818631944475
 72
     1
 10
139.83518417576767
 20
-99.48818631944475
 11
139.43209689139519
 21
-99.48818631944475
 97
        0
 75
     0
 76
     0
 98
        1
 10
0.0
 20
0.0
  0
HATCH
  5
42
100
AcDbEntity
  8
0
  6
CONTINUOUS
100
AcDbHatch
 10
0.0
 20
0.0
 30
0.0
210
0.0
220
0.0
230
1.0
  2

 70
     1
 71
     1
 91
        1
 92
        1
 93
        6
 72
     1
 10
139.43209689139519
 20
-99.897246720382455
 11
139.43209689139519
 21
-101.05991406446874
 72
     1
 10
139.43209689139519
 20
-101.05991406446874
 11
140.24837965784815
 21
-101.05991406446874
 72
     1
 10
140.24837965784815
 20
-101.05991406446874
 11
140.24837965784815
 21
-100.23753960157838
 72
     1
 10
140.24837965784815
 20
-100.23753960157838
 11
139.83518417576767
 21
-100.23753960157838
 72
     1
 10
139.83518417576767
 20
-100.23753960157838
 11
139.83518417576767
 21
-99.897246720382455
 72
     1
 10
139.83518417576767
 20
-99.897246720382455
 11
139.43209689139519
 21
-99.897246720382455
 97
        0
 75
     0
 76
     0
 98
        1
 10
0.0
 20
0.0
  0
HATCH
  5
43
100
AcDbEntity
  8
0
  6
CONTINUOUS
100
AcDbHatch
 10
0.0
 20
0.0
 30
0.0
210
0.0
220
0.0
230
1.0
  2

 70
     1
 71
     1
 91
        1
 92
        1
 93
        4
 72
     1
 10
139.83518417576767
 20
-99.897246720382455
 11
139.83518417576767
 21
-99.48818631944475
 72
     1
 10
139.83518417576767
 20
-99.48818631944475
 11
140.64464089885985
 21
-99.48818631944475
 72
     1
 10
140.64464089885985
 20
-99.48818631944475
 11
140.64464089885985
 21
-99.897246720382455
 72
     1
 10
140.64464089885985
 20
-99.897246720382455
 11
139.83518417576767
 21
-99.897246720382455
 97
        0
 75
     0
 76
     0
 98
        1
 10
0.0
 20
0.0
  0
HATCH
  5
44
100
AcDbEntity
  8
0
  6
CONTINUOUS
100
AcDbHatch
 10
0.0
 20
0.0
 30
0.0
210
0.0
220
0.0
230
1.0
  2

 70
     1
 71
     1
 91
        1
 92
        1
 93
        4
 72
     1
 10
133.402225153328
 20
-97.462025789323761
 11
133.402225153328
 21
-97.065017427928424
 72
     1
 10
133.402225153328
 20
-97.065017427928424
 11
134.62325937255267
 21
-97.065017427928424
 72
     1
 10
134.62325937255267
 20
-97.065017427928424
 11
134.62325937255267
 21
-97.462025789323761
 72
     1
 10
134.62325937255267
 20
-97.462025789323761
 11
133.402225153328
 21
-97.462025789323761
 97
        0
 75
     0
 76
     0
 98
        1
 10
0.0
 20
0.0
  0
HATCH
  5
45
100
AcDbEntity
  8
0
  6
CONTINUOUS
100
AcDbHatch
 10
0.0
 20
0.0
 30
0.0
210
0.0
220
0.0
230
1.0
  2

 70
     1
 71
     1
 91
        1
 92
        1
 93
        4
 72
     1
 10
136.1813636494694
 20
-97.065017427928424
 11
136.58582918339829
 21
-97.065017427928424
 72
     1
 10
136.58582918339829
 20
-97.065017427928424
 11
136.58582918339829
 21
-97.462025789323761
 72
     1
 10
136.58582918339829
 20
-97.462025789323761
 11
136.1813636494694
 21
-97.462025789323761
 72
     1
 10
136.1813636494694
 20
-97.462025789323761
 11
136.1813636494694
 21
-97.065017427928424
 97
        0
 75
     0
 76
     0
 98
        1
 10
0.0
 20
0.0
  0
HATCH
  5
46
100
AcDbEntity
  8
0
  6
CONTINUOUS
100
AcDbHatch
 10
0.0
 20
0.0
 30
0.0
210
0.0
220
0.0
230
1.0
  2

 70
     1
 71
     1
 91
        1
 92
        1
 93
        4
 72
     1
 10
139.01872289289156
 20
-97.462025789323761
 11
139.01872289289156
 21
-97.065017427928424
 72
     1
 10
139.01872289289156
 20
-97.065017427928424
 11
139.83518417576767
 21
-97.065017427928424
 72
     1
 10
139.83518417576767
 20
-97.065017427928424
 11
139.83518417576767
 21
-97.462025789323761
 72
     1
 10
139.83518417576767
 20
-97.462025789323761
 11
139.01872289289156
 21
-97.462025789323761
 97
        0
 75
     0
 76
     0
 98
        1
 10
0.0
 20
0.0
  0
HATCH
  5
47
100
AcDbEntity
  8
0
  6
CONTINUOUS
100
AcDbHatch
 10
0.0
 20
0.0
 30
0.0
210
0.0
220
0.0
230
1.0
  2

 70
     1
 71
     1
 91
        1
 92
        1
 93
        4
 72
     1
 10
132.58411789769013
 20
-97.462025789323761
 11
132.58411789769013
 21
-97.065017427928424
 72
     1
 10
132.58411789769013
 20
-97.065017427928424
 11
132.17844487836544
 21
-97.065017427928424
 72
     1
 10
132.17844487836544
 20
-97.065017427928424
 11
132.17844487836544
 21
-97.462025789323761
 72
     1
 10
132.17844487836544
 20
-97.462025789323761
 11
132.58411789769013
 21
-97.462025789323761
 97
        0
 75
     0
 76
     0
 98
        1
 10
0.0
 20
0.0
  0
HATCH
  5
48
100
AcDbEntity
  8
0
  6
CONTINUOUS
100
AcDbHatch
 10
0.0
 20
0.0
 30
0.0
210
0.0
220
0.0
230
1.0
  2

 70
     1
 71
     1
 91
        1
 92
        1
 93
        4
 72
     1
 10
136.1813636494694
 20
-99.091177958049471
 11
136.1813636494694
 21
-97.866123585743921
 72
     1
 10
136.1813636494694
 20
-97.866123585743921
 11
136.58582918339829
 21
-97.866123585743921
 72
     1
 10
136.58582918339829
 20
-97.866123585743921
 11
136.58582918339829
 21
-99.091177958049471
 72
     1
 10
136.58582918339829
 20
-99.091177958049471
 11
136.1813636494694
 21
-99.091177958049471
 97
        0
 75
     0
 76
     0
 98
        1
 10
0.0
 20
0.0
  0
HATCH
  5
49
100
AcDbEntity
  8
0
  6
CONTINUOUS
100
AcDbHatch
 10
0.0
 20
0.0
 30
0.0
210
0.0
220
0.0
230
1.0
  2

 70
     1
 71
     1
 91
        1
 92
        1
 93
        4
 72
     1
 10
132.58411789769013
 20
-97.866123585743921
 11
132.99655213400342
 21
-97.866123585743921
 72
     1
 10
132.99655213400342
 20
-97.866123585743921
 11
132.99655213400342
 21
-97.462025789323761
 72
     1
 10
132.99655213400342
 20
-97.462025789323761
 11
132.58411789769013
 21
-97.462025789323761
 72
     1
 10
132.58411789769013
 20
-97.462025789323761
 11
132.58411789769013
 21
-97.866123585743921
 97
        0
 75
     0
 76
     0
 98
        1
 10
0.0
 20
0.0
  0
HATCH
  5
4A
100
AcDbEntity
  8
0
  6
CONTINUOUS
100
AcDbHatch
 10
0.0
 20
0.0
 30
0.0
210
0.0
220
0.0
230
1.0
  2

 70
     1
 71
     1
 91
        1
 92
        1
 93
        4
 72
     1
 10
139.01872289289156
 20
-100.23753960157838
 11
139.01872289289156
 21
-97.866123585743921
 72
     1
 10
139.01872289289156
 20
-97.866123585743921
 11
139.43209689139519
 21
-97.866123585743921
 72
     1
 10
139.43209689139519
 20
-97.866123585743921
 11
139.43209689139519
 21
-100.23753960157838
 72
     1
 10
139.43209689139519
 20
-100.23753960157838
 11
139.01872289289156
 21
-100.23753960157838
 97
        0
 75
     0
 76
     0
 98
        1
 10
0.0
 20
0.0
  0
HATCH
  5
4B
100
AcDbEntity
  8
0
  6
CONTINUOUS
100
AcDbHatch
 10
0.0
 20
0.0
 30
0.0
210
0.0
220
0.0
230
1.0
  2

 70
     1
 71
     1
 91
        1
 92
        1
 93
        4
 72
     1
 10
135.42902419925605
 20
-98.679990726604345
 11
135.42902419925605
 21
-98.277310817189075
 72
     1
 10
135.42902419925605
 20
-98.277310817189075
 11
135.83653940960266
 21
-98.277310817189075
 72
     1
 10
135.83653940960266
 20
-98.277310817189075
 11
135.83653940960266
 21
-98.679990726604345
 72
     1
 10
135.83653940960266
 20
-98.679990726604345
 11
135.42902419925605
 21
-98.679990726604345
 97
        0
 75
     0
 76
     0
 98
        1
 10
0.0
 20
0.0
  0
HATCH
  5
4C
100
AcDbEntity
  8
0
  6
CONTINUOUS
100
AcDbHatch
 10
0.0
 20
0.0
 30
0.0
210
0.0
220
0.0
230
1.0
  2

 70
     1
 71
     1
 91
        1
 92
        1
 93
        4
 72
     1
 10
134.21228510496599
 20
-99.091177958049471
 11
134.21228510496599
 21
-98.277310817189075
 72
     1
 10
134.21228510496599
 20
-98.277310817189075
 11
135.01821869753093
 21
-98.277310817189075
 72
     1
 10
135.01821869753093
 20
-98.277310817189075
 11
135.01821869753093
 21
-99.091177958049471
 72
     1
 10
135.01821869753093
 20
-99.091177958049471
 11
134.21228510496599
 21
-99.091177958049471
 97
        0
 75
     0
 76
     0
 98
        1
 10
0.0
 20
0.0
  0
HATCH
  5
4D
100
AcDbEntity
  8
0
  6
CONTINUOUS
100
AcDbHatch
 10
0.0
 20
0.0
 30
0.0
210
0.0
220
0.0
230
1.0
  2

 70
     1
 71
     1
 91
        1
 92
        1
 93
        6
 72
     1
 10
132.99655213400342
 20
-98.277310817189075
 11
134.21228510496599
 21
-98.277310817189075
 72
     1
 10
134.21228510496599
 20
-98.277310817189075
 11
134.21228510496599
 21
-97.462025789323761
 72
     1
 10
134.21228510496599
 20
-97.462025789323761
 11
133.80113695566394
 21
-97.462025789323761
 72
     1
 10
133.80113695566394
 20
-97.462025789323761
 11
133.80113695566394
 21
-97.866123585743921
 72
     1
 10
133.80113695566394
 20
-97.866123585743921
 11
132.99655213400342
 21
-97.866123585743921
 72
     1
 10
132.99655213400342
 20
-97.866123585743921
 11
132.99655213400342
 21
-98.277310817189075
 97
        0
 75
     0
 76
     0
 98
        1
 10
0.0
 20
0.0
  0
HATCH
  5
4E
100
AcDbEntity
  8
0
  6
CONTINUOUS
100
AcDbHatch
 10
0.0
 20
0.0
 30
0.0
210
0.0
220
0.0
230
1.0
  2

 70
     1
 71
     1
 91
        1
 92
        1
 93
        4
 72
     1
 10
138.21042909224616
 20
-97.866123585743921
 11
137.8081276115596
 21
-97.866123585743921
 72
     1
 10
137.8081276115596
 20
-97.866123585743921
 11
137.8081276115596
 21
-98.277310817189075
 72
     1
 10
137.8081276115596
 20
-98.277310817189075
 11
138.21042909224616
 21
-98.277310817189075
 72
     1
 10
138.21042909224616
 20
-98.277310817189075
 11
138.21042909224616
 21
-97.866123585743921
 97
        0
 75
     0
 76
     0
 98
        1
 10
0.0
 20
0.0
  0
HATCH
  5
4F
100
AcDbEntity
  8
0
  6
CONTINUOUS
100
AcDbHatch
 10
0.0
 20
0.0
 30
0.0
210
0.0
220
0.0
230
1.0
  2

 70
     1
 71
     1
 91
        1
 92
        1
 93
        4
 72
     1
 10
138.6238030907497
 20
-98.277310817189075
 11
138.6238030907497
 21
-97.462025789323761
 72
     1
 10
138.6238030907497
 20
-97.462025789323761
 11
139.01872289289156
 21
-97.462025789323761
 72
     1
 10
139.01872289289156
 20
-97.462025789323761
 11
139.01872289289156
 21
-98.277310817189075
 72
     1
 10
139.01872289289156
 20
-98.277310817189075
 11
138.6238030907497
 21
-98.277310817189075
 97
        0
 75
     0
 76
     0
 98
        1
 10
0.0
 20
0.0
  0
HATCH
  5
50
100
AcDbEntity
  8
0
  6
CONTINUOUS
100
AcDbHatch
 10
0.0
 20
0.0
 30
0.0
210
0.0
220
0.0
230
1.0
  2

 70
     1
 71
     1
 91
        1
 92
        1
 93
        4
 72
     1
 10
132.99655213400342
 20
-97.065017427928424
 11
132.99655213400342
 21
-96.655248083488274
 72
     1
 10
132.99655213400342
 20
-96.655248083488274
 11
133.402225153328
 21
-96.655248083488274
 72
     1
 10
133.402225153328
 20
-96.655248083488274
 11
133.402225153328
 21
-97.065017427928424
 72
     1
 10
133.402225153328
 20
-97.065017427928424
 11
132.99655213400342
 21
-97.065017427928424
 97
        0
 75
     0
 76
     0
 98
        1
 10
0.0
 20
0.0
  0
HATCH
  5
51
100
AcDbEntity
  8
0
  6
CONTINUOUS
100
AcDbHatch
 10
0.0
 20
0.0
 30
0.0
210
0.0
220
0.0
230
1.0
  2

 70
     1
 71
     1
 91
        1
 92
        1
 93
        4
 72
     1
 10
132.17844487836544
 20
-97.065017427928424
 11
132.17844487836544
 21
-96.655248083488274
 72
     1
 10
132.17844487836544
 20
-96.655248083488274
 11
132.58411789769013
 21
-96.655248083488274
 72
     1
 10
132.58411789769013
 20
-96.655248083488274
 11
132.58411789769013
 21
-97.065017427928424
 72
     1
 10
132.58411789769013
 20
-97.065017427928424
 11
132.17844487836544
 21
-97.065017427928424
 97
        0
 75
     0
 76
     0
 98
        1
 10
0.0
 20
0.0
  0
HATCH
  5
52
100
AcDbEntity
  8
0
  6
CONTINUOUS
100
AcDbHatch
 10
0.0
 20
0.0
 30
0.0
210
0.0
220
0.0
230
1.0
  2

 70
     1
 71
     1
 91
        1
 92
        1
 93
        4
 72
     1
 10
135.01821869753093
 20
-97.462025789323761
 11
135.01821869753093
 21
-96.655248083488274
 72
     1
 10
135.01821869753093
 20
-96.655248083488274
 11
135.42902419925605
 21
-96.655248083488274
 72
     1
 10
135.42902419925605
 20
-96.655248083488274
 11
135.42902419925605
 21
-97.462025789323761
 72
     1
 10
135.42902419925605
 20
-97.462025789323761
 11
135.01821869753093
 21
-97.462025789323761
 97
        0
 75
     0
 76
     0
 98
        1
 10
0.0
 20
0.0
  0
HATCH
  5
53
100
AcDbEntity
  8
0
  6
CONTINUOUS
100
AcDbHatch
 10
0.0
 20
0.0
 30
0.0
210
0.0
220
0.0
230
1.0
  2

 70
     1
 71
     1
 91
        1
 92
        1
 93
        4
 72
     1
 10
136.58582918339829
 20
-97.065017427928424
 11
136.58582918339829
 21
-96.655248083488274
 72
     1
 10
136.58582918339829
 20
-96.655248083488274
 11
136.99602348403957
 21
-96.655248083488274
 72
     1
 10
136.99602348403957
 20
-96.655248083488274
 11
136.99602348403957
 21
-97.065017427928424
 72
     1
 10
136.99602348403957
 20
-97.065017427928424
 11
136.58582918339829
 21
-97.065017427928424
 97
        0
 75
     0
 76
     0
 98
        1
 10
0.0
 20
0.0
  0
HATCH
  5
54
100
AcDbEntity
  8
0
  6
CONTINUOUS
100
AcDbHatch
 10
0.0
 20
0.0
 30
0.0
210
0.0
220
0.0
230
1.0
  2

 70
     1
 71
     1
 91
        1
 92
        1
 93
        4
 72
     1
 10
135.83653940960266
 20
-97.866123585743921
 11
135.83653940960266
 21
-96.655248083488274
 72
     1
 10
135.83653940960266
 20
-96.655248083488274
 11
136.1813636494694
 21
-96.655248083488274
 72
     1
 10
136.1813636494694
 20
-96.655248083488274
 11
136.1813636494694
 21
-97.866123585743921
 72
     1
 10
136.1813636494694
 20
-97.866123585743921
 11
135.83653940960266
 21
-97.866123585743921
 97
        0
 75
     0
 76
     0
 98
        1
 10
0.0
 20
0.0
  0
HATCH
  5
55
100
AcDbEntity
  8
0
  6
CONTINUOUS
100
AcDbHatch
 10
0.0
 20
0.0
 30
0.0
210
0.0
220
0.0
230
1.0
  2

 70
     1
 71
     1
 91
        1
 92
        1
 93
        4
 72
     1
 10
137.40582613087321
 20
-100.23753960157838
 11
137.8081276115596
 21
-100.23753960157838
 72
     1
 10
137.8081276115596
 20
-100.23753960157838
 11
137.8081276115596
 21
-96.655248083488274
 72
     1
 10
137.8081276115596
 20
-96.655248083488274
 11
137.40582613087321
 21
-96.655248083488274
 72
     1
 10
137.40582613087321
 20
-96.655248083488274
 11
137.40582613087321
 21
-100.23753960157838
 97
        0
 75
     0
 76
     0
 98
        1
 10
0.0
 20
0.0
  0
HATCH
  5
56
100
AcDbEntity
  8
0
  6
CONTINUOUS
100
AcDbHatch
 10
0.0
 20
0.0
 30
0.0
210
0.0
220
0.0
230
1.0
  2

 70
     1
 71
     1
 91
        1
 92
        1
 93
        4
 72
     1
 10
138.6238030907497
 20
-97.065017427928424
 11
138.6238030907497
 21
-96.655248083488274
 72
     1
 10
138.6238030907497
 20
-96.655248083488274
 11
139.43209689139519
 21
-96.655248083488274
 72
     1
 10
139.43209689139519
 20
-96.655248083488274
 11
139.43209689139519
 21
-97.065017427928424
 72
     1
 10
139.43209689139519
 20
-97.065017427928424
 11
138.6238030907497
 21
-97.065017427928424
 97
        0
 75
     0
 76
     0
 98
        1
 10
0.0
 20
0.0
  0
HATCH
  5
57
100
AcDbEntity
  8
0
  6
CONTINUOUS
100
AcDbHatch
 10
0.0
 20
0.0
 30
0.0
210
0.0
220
0.0
230
1.0
  2

 70
     1
 71
     1
 91
        1
 92
        1
 93
        4
 72
     1
 10
134.21228510496599
 20
-96.655248083488274
 11
132.58411789769013
 21
-96.655248083488274
 72
     1
 10
132.58411789769013
 20
-96.655248083488274
 11
132.58411789769013
 21
-96.236971417018211
 72
     1
 10
132.58411789769013
 20
-96.236971417018211
 11
134.21228510496599
 21
-96.236971417018211
 72
     1
 10
134.21228510496599
 20
-96.236971417018211
 11
134.21228510496599
 21
-96.655248083488274
 97
        0
 75
     0
 76
     0
 98
        1
 10
0.0
 20
0.0
  0
HATCH
  5
58
100
AcDbEntity
  8
0
  6
CONTINUOUS
100
AcDbHatch
 10
0.0
 20
0.0
 30
0.0
210
0.0
220
0.0
230
1.0
  2

 70
     1
 71
     1
 91
        1
 92
        1
 93
        4
 72
     1
 10
138.6238030907497
 20
-96.655248083488274
 11
138.6238030907497
 21
-96.236971417018211
 72
     1
 10
138.6238030907497
 20
-96.236971417018211
 11
139.01872289289156
 21
-96.236971417018211
 72
     1
 10
139.01872289289156
 20
-96.236971417018211
 11
139.01872289289156
 21
-96.655248083488274
 72
     1
 10
139.01872289289156
 20
-96.655248083488274
 11
138.6238030907497
 21
-96.655248083488274
 97
        0
 75
     0
 76
     0
 98
        1
 10
0.0
 20
0.0
  0
HATCH
  5
59
100
AcDbEntity
  8
0
  6
CONTINUOUS
100
AcDbHatch
 10
0.0
 20
0.0
 30
0.0
210
0.0
220
0.0
230
1.0
  2

 70
     1
 71
     1
 91
        1
 92
        1
 93
        4
 72
     1
 10
132.58411789769013
 20
-96.236971417018211
 11
132.58411789769013
 21
-95.839963055622817
 72
     1
 10
132.58411789769013
 20
-95.839963055622817
 11
133.402225153328
 21
-95.839963055622817
 72
     1
 10
133.402225153328
 20
-95.839963055622817
 11
133.402225153328
 21
-96.236971417018211
 72
     1
 10
133.402225153328
 20
-96.236971417018211
 11
132.58411789769013
 21
-96.236971417018211
 97
        0
 75
     0
 76
     0
 98
        1
 10
0.0
 20
0.0
  0
HATCH
  5
5A
100
AcDbEntity
  8
0
  6
CONTINUOUS
100
AcDbHatch
 10
0.0
 20
0.0
 30
0.0
210
0.0
220
0.0
230
1.0
  2

 70
     1
 71
     1
 91
        1
 92
        1
 93
        4
 72
     1
 10
134.62325937255267
 20
-95.839963055622817
 11
134.62325937255267
 21
-96.655248083488274
 72
     1
 10
134.62325937255267
 20
-96.655248083488274
 11
134.21228510496599
 21
-96.655248083488274
 72
     1
 10
134.21228510496599
 20
-96.655248083488274
 11
134.21228510496599
 21
-95.839963055622817
 72
     1
 10
134.21228510496599
 20
-95.839963055622817
 11
134.62325937255267
 21
-95.839963055622817
 97
        0
 75
     0
 76
     0
 98
        1
 10
0.0
 20
0.0
  0
HATCH
  5
5B
100
AcDbEntity
  8
0
  6
CONTINUOUS
100
AcDbHatch
 10
0.0
 20
0.0
 30
0.0
210
0.0
220
0.0
230
1.0
  2

 70
     1
 71
     1
 91
        1
 92
        1
 93
        6
 72
     1
 10
137.40582613087321
 20
-95.839963055622817
 11
138.21042909224616
 21
-95.839963055622817
 72
     1
 10
138.21042909224616
 20
-95.839963055622817
 11
138.21042909224616
 21
-96.655248083488274
 72
     1
 10
138.21042909224616
 20
-96.655248083488274
 11
137.8081276115596
 21
-96.655248083488274
 72
     1
 10
137.8081276115596
 20
-96.655248083488274
 11
137.8081276115596
 21
-96.236971417018211
 72
     1
 10
137.8081276115596
 20
-96.236971417018211
 11
137.40582613087321
 21
-96.236971417018211
 72
     1
 10
137.40582613087321
 20
-96.236971417018211
 11
137.40582613087321
 21
-95.839963055622817
 97
        0
 75
     0
 76
     0
 98
        1
 10
0.0
 20
0.0
  0
HATCH
  5
5C
100
AcDbEntity
  8
0
  6
CONTINUOUS
100
AcDbHatch
 10
0.0
 20
0.0
 30
0.0
210
0.0
220
0.0
230
1.0
  2

 70
     1
 71
     1
 91
        1
 92
        1
 93
        4
 72
     1
 10
136.58582918339829
 20
-96.236971417018211
 11
136.58582918339829
 21
-95.839963055622817
 72
     1
 10
136.58582918339829
 20
-95.839963055622817
 11
136.99602348403957
 21
-95.839963055622817
 72
     1
 10
136.99602348403957
 20
-95.839963055622817
 11
136.99602348403957
 21
-96.236971417018211
 72
     1
 10
136.99602348403957
 20
-96.236971417018211
 11
136.58582918339829
 21
-96.236971417018211
 97
        0
 75
     0
 76
     0
 98
        1
 10
0.0
 20
0.0
  0
HATCH
  5
5D
100
AcDbEntity
  8
0
  6
CONTINUOUS
100
AcDbHatch
 10
0.0
 20
0.0
 30
0.0
210
0.0
220
0.0
230
1.0
  2

 70
     1
 71
     1
 91
        1
 92
        1
 93
        4
 72
     1
 10
139.01872289289156
 20
-96.236971417018211
 11
139.01872289289156
 21
-95.839963055622817
 72
     1
 10
139.01872289289156
 20
-95.839963055622817
 11
139.43209689139519
 21
-95.839963055622817
 72
     1
 10
139.43209689139519
 20
-95.839963055622817
 11
139.43209689139519
 21
-96.236971417018211
 72
     1
 10
139.43209689139519
 20
-96.236971417018211
 11
139.01872289289156
 21
-96.236971417018211
 97
        0
 75
     0
 76
     0
 98
        1
 10
0.0
 20
0.0
  0
HATCH
  5
5E
100
AcDbEntity
  8
0
  6
CONTINUOUS
100
AcDbHatch
 10
0.0
 20
0.0
 30
0.0
210
0.0
220
0.0
230
1.0
  2

 70
     1
 71
     1
 91
        1
 92
        1
 93
        4
 72
     1
 10
133.402225153328
 20
-95.839963055622817
 11
133.402225153328
 21
-95.4358652592026
 72
     1
 10
133.402225153328
 20
-95.4358652592026
 11
133.80113695566394
 21
-95.4358652592026
 72
     1
 10
133.80113695566394
 20
-95.4358652592026
 11
133.80113695566394
 21
-95.839963055622817
 72
     1
 10
133.80113695566394
 20
-95.839963055622817
 11
133.402225153328
 21
-95.839963055622817
 97
        0
 75
     0
 76
     0
 98
        1
 10
0.0
 20
0.0
  0
HATCH
  5
5F
100
AcDbEntity
  8
0
  6
CONTINUOUS
100
AcDbHatch
 10
0.0
 20
0.0
 30
0.0
210
0.0
220
0.0
230
1.0
  2

 70
     1
 71
     1
 91
        1
 92
        1
 93
        4
 72
     1
 10
139.43209689139519
 20
-95.839963055622817
 11
139.43209689139519
 21
-95.4358652592026
 72
     1
 10
139.43209689139519
 20
-95.4358652592026
 11
140.24837965784815
 21
-95.4358652592026
 72
     1
 10
140.24837965784815
 20
-95.4358652592026
 11
140.24837965784815
 21
-95.839963055622817
 72
     1
 10
140.24837965784815
 20
-95.839963055622817
 11
139.43209689139519
 21
-95.839963055622817
 97
        0
 75
     0
 76
     0
 98
        1
 10
0.0
 20
0.0
  0
HATCH
  5
60
100
AcDbEntity
  8
0
  6
CONTINUOUS
100
AcDbHatch
 10
0.0
 20
0.0
 30
0.0
210
0.0
220
0.0
230
1.0
  2

 70
     1
 71
     1
 91
        1
 92
        1
 93
        4
 72
     1
 10
137.8081276115596
 20
-95.839963055622817
 11
137.8081276115596
 21
-95.4358652592026
 72
     1
 10
137.8081276115596
 20
-95.4358652592026
 11
138.21042909224616
 21
-95.4358652592026
 72
     1
 10
138.21042909224616
 20
-95.4358652592026
 11
138.21042909224616
 21
-95.839963055622817
 72
     1
 10
138.21042909224616
 20
-95.839963055622817
 11
137.8081276115596
 21
-95.839963055622817
 97
        0
 75
     0
 76
     0
 98
        1
 10
0.0
 20
0.0
  0
HATCH
  5
61
100
AcDbEntity
  8
0
  6
CONTINUOUS
100
AcDbHatch
 10
0.0
 20
0.0
 30
0.0
210
0.0
220
0.0
230
1.0
  2

 70
     1
 71
     1
 91
        1
 92
        1
 93
        4
 72
     1
 10
131.36709883971628
 20
-97.866123585743921
 11
131.36709883971628
 21
-97.462025789323761
 72
     1
 10
131.36709883971628
 20
-97.462025789323761
 11
131.78629429301836
 21
-97.462025789323761
 72
     1
 10
131.78629429301836
 20
-97.462025789323761
 11
131.78629429301836
 21
-97.866123585743921
 72
     1
 10
131.78629429301836
 20
-97.866123585743921
 11
131.36709883971628
 21
-97.866123585743921
 97
        0
 75
     0
 76
     0
 98
        1
 10
0.0
 20
0.0
  0
HATCH
  5
62
100
AcDbEntity
  8
0
  6
CONTINUOUS
100
AcDbHatch
 10
0.0
 20
0.0
 30
0.0
210
0.0
220
0.0
230
1.0
  2

 70
     1
 71
     1
 91
        1
 92
        1
 93
        4
 72
     1
 10
131.78629429301836
 20
-96.655248083488274
 11
131.78629429301836
 21
-96.236971417018211
 72
     1
 10
131.78629429301836
 20
-96.236971417018211
 11
132.17844487836544
 21
-96.236971417018211
 72
     1
 10
132.17844487836544
 20
-96.236971417018211
 11
132.17844487836544
 21
-96.655248083488274
 72
     1
 10
132.17844487836544
 20
-96.655248083488274
 11
131.78629429301836
 21
-96.655248083488274
 97
        0
 75
     0
 76
     0
 98
        1
 10
0.0
 20
0.0
  0
HATCH
  5
63
100
AcDbEntity
  8
0
  6
CONTINUOUS
100
AcDbHatch
 10
0.0
 20
0.0
 30
0.0
210
0.0
220
0.0
230
1.0
  2

 70
     1
 71
     1
 91
        1
 92
        1
 93
        4
 72
     1
 10
131.36709883971628
 20
-96.236971417018211
 11
131.36709883971628
 21
-95.839963055622817
 72
     1
 10
131.36709883971628
 20
-95.839963055622817
 11
131.78629429301836
 21
-95.839963055622817
 72
     1
 10
131.78629429301836
 20
-95.839963055622817
 11
131.78629429301836
 21
-96.236971417018211
 72
     1
 10
131.78629429301836
 20
-96.236971417018211
 11
131.36709883971628
 21
-96.236971417018211
 97
        0
 75
     0
 76
     0
 98
        1
 10
0.0
 20
0.0
  0
HATCH
  5
64
100
AcDbEntity
  8
0
  6
CONTINUOUS
100
AcDbHatch
 10
0.0
 20
0.0
 30
0.0
210
0.0
220
0.0
230
1.0
  2

 70
     1
 71
     1
 91
        1
 92
        1
 93
        4
 72
     1
 10
131.78629429301836
 20
-95.839963055622817
 11
131.78629429301836
 21
-95.4358652592026
 72
     1
 10
131.78629429301836
 20
-95.4358652592026
 11
132.58411789769013
 21
-95.4358652592026
 72
     1
 10
132.58411789769013
 20
-95.4358652592026
 11
132.58411789769013
 21
-95.839963055622817
 72
     1
 10
132.58411789769013
 20
-95.839963055622817
 11
131.78629429301836
 21
-95.839963055622817
 97
        0
 75
     0
 76
     0
 98
        1
 10
0.0
 20
0.0
  0
HATCH
  5
65
100
AcDbEntity
  8
0
  6
CONTINUOUS
100
AcDbHatch
 10
0.0
 20
0.0
 30
0.0
210
0.0
220
0.0
230
1.0
  2

 70
     1
 71
     1
 91
        1
 92
        1
 93
        4
 72
     1
 10
136.58582918339829
 20
-95.4358652592026
 11
136.58582918339829
 21
-94.619516816083419
 72
     1
 10
136.58582918339829
 20
-94.619516816083419
 11
136.99602348403957
 21
-94.619516816083419
 72
     1
 10
136.99602348403957
 20
-94.619516816083419
 11
136.99602348403957
 21
-95.4358652592026
 72
     1
 10
136.99602348403957
 20
-95.4358652592026
 11
136.58582918339829
 21
-95.4358652592026
 97
        0
 75
     0
 76
     0
 98
        1
 10
0.0
 20
0.0
  0
HATCH
  5
66
100
AcDbEntity
  8
0
  6
CONTINUOUS
100
AcDbHatch
 10
0.0
 20
0.0
 30
0.0
210
0.0
220
0.0
230
1.0
  2

 70
     1
 71
     1
 91
        1
 92
        1
 93
        4
 72
     1
 10
136.1813636494694
 20
-94.619516816083419
 11
136.1813636494694
 21
-94.211803407800474
 72
     1
 10
136.1813636494694
 20
-94.211803407800474
 11
136.58582918339829
 21
-94.211803407800474
 72
     1
 10
136.58582918339829
 20
-94.211803407800474
 11
136.58582918339829
 21
-94.619516816083419
 72
     1
 10
136.58582918339829
 20
-94.619516816083419
 11
136.1813636494694
 21
-94.619516816083419
 97
        0
 75
     0
 76
     0
 98
        1
 10
0.0
 20
0.0
  0
HATCH
  5
67
100
AcDbEntity
  8
0
  6
CONTINUOUS
100
AcDbHatch
 10
0.0
 20
0.0
 30
0.0
210
0.0
220
0.0
230
1.0
  2

 70
     1
 71
     1
 91
        1
 92
        1
 93
        6
 72
     1
 10
134.62325937255267
 20
-94.619516816083419
 11
135.42902419925605
 21
-94.619516816083419
 72
     1
 10
135.42902419925605
 20
-94.619516816083419
 11
135.42902419925605
 21
-93.797709507995123
 72
     1
 10
135.42902419925605
 20
-93.797709507995123
 11
135.01821869753093
 21
-93.797709507995123
 72
     1
 10
135.01821869753093
 20
-93.797709507995123
 11
135.01821869753093
 21
-94.211803407800474
 72
     1
 10
135.01821869753093
 20
-94.211803407800474
 11
134.62325937255267
 21
-94.211803407800474
 72
     1
 10
134.62325937255267
 20
-94.211803407800474
 11
134.62325937255267
 21
-94.619516816083419
 97
        0
 75
     0
 76
     0
 98
        1
 10
0.0
 20
0.0
  0
HATCH
  5
68
100
AcDbEntity
  8
0
  6
CONTINUOUS
100
AcDbHatch
 10
0.0
 20
0.0
 30
0.0
210
0.0
220
0.0
230
1.0
  2

 70
     1
 71
     1
 91
        1
 92
        1
 93
        4
 72
     1
 10
134.21228510496599
 20
-93.000148067692152
 11
134.21228510496599
 21
-94.619516816083419
 72
     1
 10
134.21228510496599
 20
-94.619516816083419
 11
134.62325937255267
 21
-94.619516816083419
 72
     1
 10
134.62325937255267
 20
-94.619516816083419
 11
134.62325937255267
 21
-93.000148067692152
 72
     1
 10
134.62325937255267
 20
-93.000148067692152
 11
134.21228510496599
 21
-93.000148067692152
 97
        0
 75
     0
 76
     0
 98
        1
 10
0.0
 20
0.0
  0
HATCH
  5
69
100
AcDbEntity
  8
0
  6
CONTINUOUS
100
AcDbHatch
 10
0.0
 20
0.0
 30
0.0
210
0.0
220
0.0
230
1.0
  2

 70
     1
 71
     1
 91
        1
 92
        1
 93
        4
 72
     1
 10
132.17844487836544
 20
-95.031767462782383
 11
132.17844487836544
 21
-94.619516816083419
 72
     1
 10
132.17844487836544
 20
-94.619516816083419
 11
132.58411789769013
 21
-94.619516816083419
 72
     1
 10
132.58411789769013
 20
-94.619516816083419
 11
132.58411789769013
 21
-95.031767462782383
 72
     1
 10
132.58411789769013
 20
-95.031767462782383
 11
132.17844487836544
 21
-95.031767462782383
 97
        0
 75
     0
 76
     0
 98
        1
 10
0.0
 20
0.0
  0
HATCH
  5
6A
100
AcDbEntity
  8
0
  6
CONTINUOUS
100
AcDbHatch
 10
0.0
 20
0.0
 30
0.0
210
0.0
220
0.0
230
1.0
  2

 70
     1
 71
     1
 91
        1
 92
        1
 93
        4
 72
     1
 10
133.402225153328
 20
-95.031767462782383
 11
133.402225153328
 21
-94.619516816083419
 72
     1
 10
133.402225153328
 20
-94.619516816083419
 11
134.21228510496599
 21
-94.619516816083419
 72
     1
 10
134.21228510496599
 20
-94.619516816083419
 11
134.21228510496599
 21
-95.031767462782383
 72
     1
 10
134.21228510496599
 20
-95.031767462782383
 11
133.402225153328
 21
-95.031767462782383
 97
        0
 75
     0
 76
     0
 98
        1
 10
0.0
 20
0.0
  0
HATCH
  5
6B
100
AcDbEntity
  8
0
  6
CONTINUOUS
100
AcDbHatch
 10
0.0
 20
0.0
 30
0.0
210
0.0
220
0.0
230
1.0
  2

 70
     1
 71
     1
 91
        1
 92
        1
 93
        4
 72
     1
 10
133.402225153328
 20
-95.4358652592026
 11
131.78629429301836
 21
-95.4358652592026
 72
     1
 10
131.78629429301836
 20
-95.4358652592026
 11
131.78629429301836
 21
-95.031767462782383
 72
     1
 10
131.78629429301836
 20
-95.031767462782383
 11
133.402225153328
 21
-95.031767462782383
 72
     1
 10
133.402225153328
 20
-95.031767462782383
 11
133.402225153328
 21
-95.4358652592026
 97
        0
 75
     0
 76
     0
 98
        1
 10
0.0
 20
0.0
  0
HATCH
  5
6C
100
AcDbEntity
  8
0
  6
CONTINUOUS
100
AcDbHatch
 10
0.0
 20
0.0
 30
0.0
210
0.0
220
0.0
230
1.0
  2

 70
     1
 71
     1
 91
        1
 92
        1
 93
        6
 72
     1
 10
135.42902419925605
 20
-95.839963055622817
 11
134.21228510496599
 21
-95.839963055622817
 72
     1
 10
134.21228510496599
 20
-95.839963055622817
 11
134.21228510496599
 21
-95.031767462782383
 72
     1
 10
134.21228510496599
 20
-95.031767462782383
 11
134.62325937255267
 21
-95.031767462782383
 72
     1
 10
134.62325937255267
 20
-95.031767462782383
 11
134.62325937255267
 21
-95.4358652592026
 72
     1
 10
134.62325937255267
 20
-95.4358652592026
 11
135.42902419925605
 21
-95.4358652592026
 72
     1
 10
135.42902419925605
 20
-95.4358652592026
 11
135.42902419925605
 21
-95.839963055622817
 97
        0
 75
     0
 76
     0
 98
        1
 10
0.0
 20
0.0
  0
HATCH
  5
6D
100
AcDbEntity
  8
0
  6
CONTINUOUS
100
AcDbHatch
 10
0.0
 20
0.0
 30
0.0
210
0.0
220
0.0
230
1.0
  2

 70
     1
 71
     1
 91
        1
 92
        1
 93
        4
 72
     1
 10
138.21042909224616
 20
-95.031767462782383
 11
138.21042909224616
 21
-98.277310817189075
 72
     1
 10
138.21042909224616
 20
-98.277310817189075
 11
138.6238030907497
 21
-98.277310817189075
 72
     1
 10
138.6238030907497
 20
-98.277310817189075
 11
138.6238030907497
 21
-95.031767462782383
 72
     1
 10
138.6238030907497
 20
-95.031767462782383
 11
138.21042909224616
 21
-95.031767462782383
 97
        0
 75
     0
 76
     0
 98
        1
 10
0.0
 20
0.0
  0
HATCH
  5
6E
100
AcDbEntity
  8
0
  6
CONTINUOUS
100
AcDbHatch
 10
0.0
 20
0.0
 30
0.0
210
0.0
220
0.0
230
1.0
  2

 70
     1
 71
     1
 91
        1
 92
        1
 93
        6
 72
     1
 10
139.83518417576767
 20
-95.031767462782383
 11
139.83518417576767
 21
-94.619516816083419
 72
     1
 10
139.83518417576767
 20
-94.619516816083419
 11
140.64464089885985
 21
-94.619516816083419
 72
     1
 10
140.64464089885985
 20
-94.619516816083419
 11
140.64464089885985
 21
-95.4358652592026
 72
     1
 10
140.64464089885985
 20
-95.4358652592026
 11
140.24837965784815
 21
-95.4358652592026
 72
     1
 10
140.24837965784815
 20
-95.4358652592026
 11
140.24837965784815
 21
-95.031767462782383
 72
     1
 10
140.24837965784815
 20
-95.031767462782383
 11
139.83518417576767
 21
-95.031767462782383
 97
        0
 75
     0
 76
     0
 98
        1
 10
0.0
 20
0.0
  0
HATCH
  5
6F
100
AcDbEntity
  8
0
  6
CONTINUOUS
100
AcDbHatch
 10
0.0
 20
0.0
 30
0.0
210
0.0
220
0.0
230
1.0
  2

 70
     1
 71
     1
 91
        1
 92
        1
 93
        4
 72
     1
 10
138.21042909224616
 20
-95.031767462782383
 11
138.21042909224616
 21
-94.619516816083419
 72
     1
 10
138.21042909224616
 20
-94.619516816083419
 11
139.43209689139519
 21
-94.619516816083419
 72
     1
 10
139.43209689139519
 20
-94.619516816083419
 11
139.43209689139519
 21
-95.031767462782383
 72
     1
 10
139.43209689139519
 20
-95.031767462782383
 11
138.21042909224616
 21
-95.031767462782383
 97
        0
 75
     0
 76
     0
 98
        1
 10
0.0
 20
0.0
  0
HATCH
  5
70
100
AcDbEntity
  8
0
  6
CONTINUOUS
100
AcDbHatch
 10
0.0
 20
0.0
 30
0.0
210
0.0
220
0.0
230
1.0
  2

 70
     1
 71
     1
 91
        1
 92
        1
 93
        4
 72
     1
 10
136.1813636494694
 20
-95.031767462782383
 11
136.1813636494694
 21
-95.4358652592026
 72
     1
 10
136.1813636494694
 20
-95.4358652592026
 11
136.58582918339829
 21
-95.4358652592026
 72
     1
 10
136.58582918339829
 20
-95.4358652592026
 11
136.58582918339829
 21
-95.031767462782383
 72
     1
 10
136.58582918339829
 20
-95.031767462782383
 11
136.1813636494694
 21
-95.031767462782383
 97
        0
 75
     0
 76
     0
 98
        1
 10
0.0
 20
0.0
  0
HATCH
  5
71
100
AcDbEntity
  8
0
  6
CONTINUOUS
100
AcDbHatch
 10
0.0
 20
0.0
 30
0.0
210
0.0
220
0.0
230
1.0
  2

 70
     1
 71
     1
 91
        1
 92
        1
 93
        4
 72
     1
 10
135.42902419925605
 20
-95.031767462782383
 11
135.42902419925605
 21
-96.236971417018211
 72
     1
 10
135.42902419925605
 20
-96.236971417018211
 11
136.1813636494694
 21
-96.236971417018211
 72
     1
 10
136.1813636494694
 20
-96.236971417018211
 11
136.1813636494694
 21
-95.031767462782383
 72
     1
 10
136.1813636494694
 20
-95.031767462782383
 11
135.42902419925605
 21
-95.031767462782383
 97
        0
 75
     0
 76
     0
 98
        1
 10
0.0
 20
0.0
  0
HATCH
  5
72
100
AcDbEntity
  8
0
  6
CONTINUOUS
100
AcDbHatch
 10
0.0
 20
0.0
 30
0.0
210
0.0
220
0.0
230
1.0
  2

 70
     1
 71
     1
 91
        1
 92
        1
 93
        4
 72
     1
 10
135.83653940960266
 20
-94.619516816083419
 11
135.01821869753093
 21
-94.619516816083419
 72
     1
 10
135.01821869753093
 20
-94.619516816083419
 11
135.01821869753093
 21
-95.031767462782383
 72
     1
 10
135.01821869753093
 20
-95.031767462782383
 11
135.83653940960266
 21
-95.031767462782383
 72
     1
 10
135.83653940960266
 20
-95.031767462782383
 11
135.83653940960266
 21
-94.619516816083419
 97
        0
 75
     0
 76
     0
 98
        1
 10
0.0
 20
0.0
  0
HATCH
  5
73
100
AcDbEntity
  8
0
  6
CONTINUOUS
100
AcDbHatch
 10
0.0
 20
0.0
 30
0.0
210
0.0
220
0.0
230
1.0
  2

 70
     1
 71
     1
 91
        1
 92
        1
 93
        4
 72
     1
 10
130.96250341721114
 20
-101.07290058069954
 11
130.96250341721114
 21
-99.036378345447943
 72
     1
 10
130.96250341721114
 20
-99.036378345447943
 11
131.32759423809654
 21
-99.036378345447943
 72
     1
 10
131.32759423809654
 20
-99.036378345447943
 11
131.32759423809654
 21
-101.07290058069954
 72
     1
 10
131.32759423809654
 20
-101.07290058069954
 11
130.96250341721114
 21
-101.07290058069954
 97
        0
 75
     0
 76
     0
 98
        1
 10
0.0
 20
0.0
  0
HATCH
  5
74
100
AcDbEntity
  8
0
  6
CONTINUOUS
100
AcDbHatch
 10
0.0
 20
0.0
 30
0.0
210
0.0
220
0.0
230
1.0
  2

 70
     1
 71
     1
 91
        1
 92
        1
 93
        4
 72
     1
 10
130.96250341721114
 20
-98.676992068638938
 11
133.75773001461505
 21
-98.676992068638938
 72
     1
 10
133.75773001461505
 20
-98.676992068638938
 11
133.75773001461505
 21
-99.036378345447943
 72
     1
 10
133.75773001461505
 20
-99.036378345447943
 11
130.96250341721114
 21
-99.036378345447943
 72
     1
 10
130.96250341721114
 20
-99.036378345447943
 11
130.96250341721114
 21
-98.676992068638938
 97
        0
 75
     0
 76
     0
 98
        1
 10
0.0
 20
0.0
  0
HATCH
  5
75
100
AcDbEntity
  8
0
  6
CONTINUOUS
100
AcDbHatch
 10
0.0
 20
0.0
 30
0.0
210
0.0
220
0.0
230
1.0
  2

 70
     1
 71
     1
 91
        1
 92
        1
 93
        4
 72
     1
 10
140.64464089885985
 20
-98.277310817189075
 11
140.64464089885985
 21
-97.866123585743921
 72
     1
 10
140.64464089885985
 20
-97.866123585743921
 11
141.05702877243505
 21
-97.866123585743921
 72
     1
 10
141.05702877243505
 20
-97.866123585743921
 11
141.05702877243505
 21
-98.277310817189075
 72
     1
 10
141.05702877243505
 20
-98.277310817189075
 11
140.64464089885985
 21
-98.277310817189075
 97
        0
 75
     0
 76
     0
 98
        1
 10
0.0
 20
0.0
  0
HATCH
  5
76
100
AcDbEntity
  8
0
  6
CONTINUOUS
100
AcDbHatch
 10
0.0
 20
0.0
 30
0.0
210
0.0
220
0.0
230
1.0
  2

 70
     1
 71
     1
 91
        1
 92
        1
 93
        6
 72
     1
 10
140.24837965784815
 20
-101.46657793202031
 11
140.24837965784815
 21
-100.64872683302362
 72
     1
 10
140.24837965784815
 20
-100.64872683302362
 11
140.64464089885985
 21
-100.64872683302362
 72
     1
 10
140.64464089885985
 20
-100.64872683302362
 11
140.64464089885985
 21
-100.23753960157838
 72
     1
 10
140.64464089885985
 20
-100.23753960157838
 11
141.05702877243505
 21
-100.23753960157838
 72
     1
 10
141.05702877243505
 20
-100.23753960157838
 11
141.05702877243505
 21
-101.46657793202031
 72
     1
 10
141.05702877243505
 20
-101.46657793202031
 11
140.24837965784815
 21
-101.46657793202031
 97
        0
 75
     0
 76
     0
 98
        1
 10
0.0
 20
0.0
  0
HATCH
  5
77
100
AcDbEntity
  8
0
  6
CONTINUOUS
100
AcDbHatch
 10
0.0
 20
0.0
 30
0.0
210
0.0
220
0.0
230
1.0
  2

 70
     1
 71
     1
 91
        1
 92
        1
 93
        4
 72
     1
 10
140.24837965784815
 20
-99.091177958049471
 11
140.24837965784815
 21
-98.679990726604345
 72
     1
 10
140.24837965784815
 20
-98.679990726604345
 11
141.05702877243505
 21
-98.679990726604345
 72
     1
 10
141.05702877243505
 20
-98.679990726604345
 11
141.05702877243505
 21
-99.091177958049471
 72
     1
 10
141.05702877243505
 20
-99.091177958049471
 11
140.24837965784815
 21
-99.091177958049471
 97
        0
 75
     0
 76
     0
 98
        1
 10
0.0
 20
0.0
  0
HATCH
  5
78
100
AcDbEntity
  8
0
  6
CONTINUOUS
100
AcDbHatch
 10
0.0
 20
0.0
 30
0.0
210
0.0
220
0.0
230
1.0
  2

 70
     1
 71
     1
 91
        1
 92
        1
 93
        4
 72
     1
 10
139.83518417576767
 20
-99.48818631944475
 11
139.83518417576767
 21
-99.091177958049471
 72
     1
 10
139.83518417576767
 20
-99.091177958049471
 11
141.05702877243505
 21
-99.091177958049471
 72
     1
 10
141.05702877243505
 20
-99.091177958049471
 11
141.05702877243505
 21
-99.48818631944475
 72
     1
 10
141.05702877243505
 20
-99.48818631944475
 11
139.83518417576767
 21
-99.48818631944475
 97
        0
 75
     0
 76
     0
 98
        1
 10
0.0
 20
0.0
  0
HATCH
  5
79
100
AcDbEntity
  8
0
  6
CONTINUOUS
100
AcDbHatch
 10
0.0
 20
0.0
 30
0.0
210
0.0
220
0.0
230
1.0
  2

 70
     1
 71
     1
 91
        1
 92
        1
 93
        8
 72
     1
 10
140.64464089885985
 20
-96.236971417018211
 11
140.64464089885985
 21
-95.839963055622817
 72
     1
 10
140.64464089885985
 20
-95.839963055622817
 11
141.05702877243505
 21
-95.839963055622817
 72
     1
 10
141.05702877243505
 20
-95.839963055622817
 11
141.05702877243505
 21
-96.655248083488274
 72
     1
 10
141.05702877243505
 20
-96.655248083488274
 11
140.24837965784815
 21
-96.655248083488274
 72
     1
 10
140.24837965784815
 20
-96.655248083488274
 11
140.24837965784815
 21
-97.065017427928424
 72
     1
 10
140.24837965784815
 20
-97.065017427928424
 11
139.83518417576767
 21
-97.065017427928424
 72
     1
 10
139.83518417576767
 20
-97.065017427928424
 11
139.83518417576767
 21
-96.236971417018211
 72
     1
 10
139.83518417576767
 20
-96.236971417018211
 11
140.64464089885985
 21
-96.236971417018211
 97
        0
 75
     0
 76
     0
 98
        1
 10
0.0
 20
0.0
  0
HATCH
  5
7A
100
AcDbEntity
  8
0
  6
CONTINUOUS
100
AcDbHatch
 10
0.0
 20
0.0
 30
0.0
210
0.0
220
0.0
230
1.0
  2

 70
     1
 71
     1
 91
        1
 92
        1
 93
        4
 72
     1
 10
130.96766903798166
 20
-97.462025789323761
 11
130.96766903798166
 21
-97.065017427928424
 72
     1
 10
130.96766903798166
 20
-97.065017427928424
 11
131.36709883971628
 21
-97.065017427928424
 72
     1
 10
131.36709883971628
 20
-97.065017427928424
 11
131.36709883971628
 21
-97.462025789323761
 72
     1
 10
131.36709883971628
 20
-97.462025789323761
 11
130.96766903798166
 21
-97.462025789323761
 97
        0
 75
     0
 76
     0
 98
        1
 10
0.0
 20
0.0
  0
HATCH
  5
7B
100
AcDbEntity
  8
0
  6
CONTINUOUS
100
AcDbHatch
 10
0.0
 20
0.0
 30
0.0
210
0.0
220
0.0
230
1.0
  2

 70
     1
 71
     1
 91
        1
 92
        1
 93
        4
 72
     1
 10
132.17844487836544
 20
-98.277310817189075
 11
130.96766903798166
 21
-98.277310817189075
 72
     1
 10
130.96766903798166
 20
-98.277310817189075
 11
130.96766903798166
 21
-97.866123585743921
 72
     1
 10
130.96766903798166
 20
-97.866123585743921
 11
132.17844487836544
 21
-97.866123585743921
 72
     1
 10
132.17844487836544
 20
-97.866123585743921
 11
132.17844487836544
 21
-98.277310817189075
 97
        0
 75
     0
 76
     0
 98
        1
 10
0.0
 20
0.0
  0
HATCH
  5
7C
100
AcDbEntity
  8
0
  6
CONTINUOUS
100
AcDbHatch
 10
0.0
 20
0.0
 30
0.0
210
0.0
220
0.0
230
1.0
  2

 70
     1
 71
     1
 91
        1
 92
        1
 93
        4
 72
     1
 10
130.96766903798166
 20
-96.655248083488274
 11
130.96766903798166
 21
-96.236971417018211
 72
     1
 10
130.96766903798166
 20
-96.236971417018211
 11
131.36709883971628
 21
-96.236971417018211
 72
     1
 10
131.36709883971628
 20
-96.236971417018211
 11
131.36709883971628
 21
-96.655248083488274
 72
     1
 10
131.36709883971628
 20
-96.655248083488274
 11
130.96766903798166
 21
-96.655248083488274
 97
        0
 75
     0
 76
     0
 98
        1
 10
0.0
 20
0.0
  0
HATCH
  5
7D
100
AcDbEntity
  8
0
  6
CONTINUOUS
100
AcDbHatch
 10
0.0
 20
0.0
 30
0.0
210
0.0
220
0.0
230
1.0
  2

 70
     1
 71
     1
 91
        1
 92
        1
 93
        4
 72
     1
 10
130.96766903798166
 20
-95.839963055622817
 11
130.96766903798166
 21
-95.4358652592026
 72
     1
 10
130.96766903798166
 20
-95.4358652592026
 11
131.36709883971628
 21
-95.4358652592026
 72
     1
 10
131.36709883971628
 20
-95.4358652592026
 11
131.36709883971628
 21
-95.839963055622817
 72
     1
 10
131.36709883971628
 20
-95.839963055622817
 11
130.96766903798166
 21
-95.839963055622817
 97
        0
 75
     0
 76
     0
 98
        1
 10
0.0
 20
0.0
  0
HATCH
  5
7E
100
AcDbEntity
  8
0
  6
CONTINUOUS
100
AcDbHatch
 10
0.0
 20
0.0
 30
0.0
210
0.0
220
0.0
230
1.0
  2

 70
     1
 71
     1
 91
        1
 92
        1
 93
        4
 72
     1
 10
131.78629429301836
 20
-95.031767462782383
 11
130.96766903798166
 21
-95.031767462782383
 72
     1
 10
130.96766903798166
 20
-95.031767462782383
 11
130.96766903798166
 21
-94.619516816083419
 72
     1
 10
130.96766903798166
 20
-94.619516816083419
 11
131.78629429301836
 21
-94.619516816083419
 72
     1
 10
131.78629429301836
 20
-94.619516816083419
 11
131.78629429301836
 21
-95.031767462782383
 97
        0
 75
     0
 76
     0
 98
        1
 10
0.0
 20
0.0
  0
HATCH
  5
7F
100
AcDbEntity
  8
0
  6
CONTINUOUS
100
AcDbHatch
 10
0.0
 20
0.0
 30
0.0
210
0.0
220
0.0
230
1.0
  2

 70
     1
 71
     1
 91
        1
 92
        1
 93
        4
 72
     1
 10
131.76684413197432
 20
-99.481332783402038
 11
132.95338929985189
 21
-99.481332783402038
 72
     1
 10
132.95338929985189
 20
-99.481332783402038
 11
132.95338929985189
 21
-100.6450597749744
 72
     1
 10
132.95338929985189
 20
-100.6450597749744
 11
131.76684413197432
 21
-100.6450597749744
 72
     1
 10
131.76684413197432
 20
-100.6450597749744
 11
131.76684413197432
 21
-99.481332783402038
 97
        0
 75
     0
 76
     0
 98
        1
 10
0.0
 20
0.0
  0
HATCH
  5
80
100
AcDbEntity
  8
0
  6
CONTINUOUS
100
AcDbHatch
 10
0.0
 20
0.0
 30
0.0
210
0.0
220
0.0
230
1.0
  2

 70
     1
 71
     1
 91
        1
 92
        1
 93
        4
 72
     1
 10
130.96250341721114
 20
-101.07290058069954
 11
133.40404828188235
 21
-101.07290058069954
 72
     1
 10
133.40404828188235
 20
-101.07290058069954
 11
133.40404828188235
 21
-101.46651412196657
 72
     1
 10
133.40404828188235
 20
-101.46651412196657
 11
130.96250341721114
 21
-101.46651412196657
 72
     1
 10
130.96250341721114
 20
-101.46651412196657
 11
130.96250341721114
 21
-101.07290058069954
 97
        0
 75
     0
 76
     0
 98
        1
 10
0.0
 20
0.0
  0
HATCH
  5
81
100
AcDbEntity
  8
0
  6
CONTINUOUS
100
AcDbHatch
 10
0.0
 20
0.0
 30
0.0
210
0.0
220
0.0
230
1.0
  2

 70
     1
 71
     1
 91
        1
 92
        1
 93
        4
 72
     1
 10
133.40404828188235
 20
-101.46651412196657
 11
133.40404828188235
 21
-99.036378345447943
 72
     1
 10
133.40404828188235
 20
-99.036378345447943
 11
133.75773001461505
 21
-99.036378345447943
 72
     1
 10
133.75773001461505
 20
-99.036378345447943
 11
133.75773001461505
 21
-101.46651412196657
 72
     1
 10
133.75773001461505
 20
-101.46651412196657
 11
133.40404828188235
 21
-101.46651412196657
 97
        0
 75
     0
 76
     0
 98
        1
 10
0.0
 20
0.0
  0
HATCH
  5
82
100
AcDbEntity
  8
0
  6
CONTINUOUS
100
AcDbHatch
 10
0.0
 20
0.0
 30
0.0
210
0.0
220
0.0
230
1.0
  2

 70
     1
 71
     1
 91
        1
 92
        1
 93
        4
 72
     1
 10
139.03585533768759
 20
-92.193386980444998
 11
140.25152444513964
 21
-92.193386980444998
 72
     1
 10
140.25152444513964
 20
-92.193386980444998
 11
140.25152444513964
 21
-93.395738542082398
 72
     1
 10
140.25152444513964
 20
-93.395738542082398
 11
139.03585533768759
 21
-93.395738542082398
 72
     1
 10
139.03585533768759
 20
-93.395738542082398
 11
139.03585533768759
 21
-92.193386980444998
 97
        0
 75
     0
 76
     0
 98
        1
 10
0.0
 20
0.0
  0
HATCH
  5
83
100
AcDbEntity
  8
0
  6
CONTINUOUS
100
AcDbHatch
 10
0.0
 20
0.0
 30
0.0
210
0.0
220
0.0
230
1.0
  2

 70
     1
 71
     1
 91
        1
 92
        1
 93
        4
 72
     1
 10
140.70616492434942
 20
-91.43235835220257
 11
141.05702877243505
 21
-91.43235835220257
 72
     1
 10
141.05702877243505
 20
-91.43235835220257
 11
141.05702877243505
 21
-94.219502159531615
 72
     1
 10
141.05702877243505
 20
-94.219502159531615
 11
140.70616492434942
 21
-94.219502159531615
 72
     1
 10
140.70616492434942
 20
-94.219502159531615
 11
140.70616492434942
 21
-91.43235835220257
 97
        0
 75
     0
 76
     0
 98
        1
 10
0.0
 20
0.0
  0
HATCH
  5
84
100
AcDbEntity
  8
0
  6
CONTINUOUS
100
AcDbHatch
 10
0.0
 20
0.0
 30
0.0
210
0.0
220
0.0
230
1.0
  2

 70
     1
 71
     1
 91
        1
 92
        1
 93
        4
 72
     1
 10
138.63557404620946
 20
-91.788163944627613
 11
140.70616492434942
 21
-91.788163944627613
 72
     1
 10
140.70616492434942
 20
-91.788163944627613
 11
140.70616492434942
 21
-91.43235835220257
 72
     1
 10
140.70616492434942
 20
-91.43235835220257
 11
138.63557404620946
 21
-91.43235835220257
 72
     1
 10
138.63557404620946
 20
-91.43235835220257
 11
138.63557404620946
 21
-91.788163944627613
 97
        0
 75
     0
 76
     0
 98
        1
 10
0.0
 20
0.0
  0
HATCH
  5
85
100
AcDbEntity
  8
0
  6
CONTINUOUS
100
AcDbHatch
 10
0.0
 20
0.0
 30
0.0
210
0.0
220
0.0
230
1.0
  2

 70
     1
 71
     1
 91
        1
 92
        1
 93
        4
 72
     1
 10
138.25011798774915
 20
-93.853813078428175
 11
138.25011798774915
 21
-91.43235835220257
 72
     1
 10
138.25011798774915
 20
-91.43235835220257
 11
138.63557404620946
 21
-91.43235835220257
 72
     1
 10
138.63557404620946
 20
-91.43235835220257
 11
138.63557404620946
 21
-93.853813078428175
 72
     1
 10
138.63557404620946
 20
-93.853813078428175
 11
138.25011798774915
 21
-93.853813078428175
 97
        0
 75
     0
 76
     0
 98
        1
 10
0.0
 20
0.0
  0
HATCH
  5
86
100
AcDbEntity
  8
0
  6
CONTINUOUS
100
AcDbHatch
 10
0.0
 20
0.0
 30
0.0
210
0.0
220
0.0
230
1.0
  2

 70
     1
 71
     1
 91
        1
 92
        1
 93
        4
 72
     1
 10
138.25011798774915
 20
-93.853813078428175
 11
140.70616492434942
 21
-93.853813078428175
 72
     1
 10
140.70616492434942
 20
-93.853813078428175
 11
140.70616492434942
 21
-94.219502159531615
 72
     1
 10
140.70616492434942
 20
-94.219502159531615
 11
138.25011798774915
 21
-94.219502159531615
 72
     1
 10
138.25011798774915
 20
-94.219502159531615
 11
138.25011798774915
 21
-93.853813078428175
 97
        0
 75
     0
 76
     0
 98
        1
 10
0.0
 20
0.0
  0
HATCH
  5
87
100
AcDbEntity
  8
0
  6
CONTINUOUS
100
AcDbHatch
 10
0.0
 20
0.0
 30
0.0
210
0.0
220
0.0
230
1.0
  2

 70
     1
 71
     1
 91
        1
 92
        1
 93
        4
 72
     1
 10
131.74205482560029
 20
-92.198836636810981
 11
132.97596624543218
 21
-92.198836636810981
 72
     1
 10
132.97596624543218
 20
-92.198836636810981
 11
132.97596624543218
 21
-93.415728588783125
 72
     1
 10
132.97596624543218
 20
-93.415728588783125
 11
131.74205482560029
 21
-93.415728588783125
 72
     1
 10
131.74205482560029
 20
-93.415728588783125
 11
131.74205482560029
 21
-92.198836636810981
 97
        0
 75
     0
 76
     0
 98
        1
 10
0.0
 20
0.0
  0
HATCH
  5
88
100
AcDbEntity
  8
0
  6
CONTINUOUS
100
AcDbHatch
 10
0.0
 20
0.0
 30
0.0
210
0.0
220
0.0
230
1.0
  2

 70
     1
 71
     1
 91
        1
 92
        1
 93
        4
 72
     1
 10
131.34209733089619
 20
-94.224153312121317
 11
130.96766903798166
 21
-94.224153312121317
 72
     1
 10
130.96766903798166
 20
-94.224153312121317
 11
130.96766903798166
 21
-91.781859674247173
 72
     1
 10
130.96766903798166
 20
-91.781859674247173
 11
131.34209733089619
 21
-91.781859674247173
 72
     1
 10
131.34209733089619
 20
-91.781859674247173
 11
131.34209733089619
 21
-94.224153312121317
 97
        0
 75
     0
 76
     0
 98
        1
 10
0.0
 20
0.0
  0
HATCH
  5
89
100
AcDbEntity
  8
0
  6
CONTINUOUS
100
AcDbHatch
 10
0.0
 20
0.0
 30
0.0
210
0.0
220
0.0
230
1.0
  2

 70
     1
 71
     1
 91
        1
 92
        1
 93
        4
 72
     1
 10
133.75886176698077
 20
-94.224153312121317
 11
133.75886176698077
 21
-93.82419581741712
 72
     1
 10
133.75886176698077
 20
-93.82419581741712
 11
131.34209733089619
 21
-93.82419581741712
 72
     1
 10
131.34209733089619
 20
-93.82419581741712
 11
131.34209733089619
 21
-94.224153312121317
 72
     1
 10
131.34209733089619
 20
-94.224153312121317
 11
133.75886176698077
 21
-94.224153312121317
 97
        0
 75
     0
 76
     0
 98
        1
 10
0.0
 20
0.0
  0
HATCH
  5
8A
100
AcDbEntity
  8
0
  6
CONTINUOUS
100
AcDbHatch
 10
0.0
 20
0.0
 30
0.0
210
0.0
220
0.0
230
1.0
  2

 70
     1
 71
     1
 91
        1
 92
        1
 93
        4
 72
     1
 10
133.37592374013627
 20
-93.82419581741712
 11
133.37592374013627
 21
-91.441470317052193
 72
     1
 10
133.37592374013627
 20
-91.441470317052193
 11
133.75886176698077
 21
-91.441470317052193
 72
     1
 10
133.75886176698077
 20
-91.441470317052193
 11
133.75886176698077
 21
-93.82419581741712
 72
     1
 10
133.75886176698077
 20
-93.82419581741712
 11
133.37592374013627
 21
-93.82419581741712
 97
        0
 75
     0
 76
     0
 98
        1
 10
0.0
 20
0.0
  0
HATCH
  5
8B
100
AcDbEntity
  8
0
  6
CONTINUOUS
100
AcDbHatch
 10
0.0
 20
0.0
 30
0.0
210
0.0
220
0.0
230
1.0
  2

 70
     1
 71
     1
 91
        1
 92
        1
 93
        4
 72
     1
 10
130.96766903798166
 20
-91.441470317052193
 11
133.37592374013627
 21
-91.441470317052193
 72
     1
 10
133.37592374013627
 20
-91.441470317052193
 11
133.37592374013627
 21
-91.781859674247173
 72
     1
 10
133.37592374013627
 20
-91.781859674247173
 11
130.96766903798166
 21
-91.781859674247173
 72
     1
 10
130.96766903798166
 20
-91.781859674247173
 11
130.96766903798166
 21
-91.441470317052193
 97
        0
 75
     0
 76
     0
 98
        1
 10
0.0
 20
0.0
  0
LINE
  5
8C
100
AcDbEntity
  8
0
  6
CONTINUOUS
100
AcDbLine
 10
132.953389
 20
-100.64506
 30
0.0
 11
132.953389
 21
-99.481333
 31
0.0
  0
LINE
  5
8D
100
AcDbEntity
  8
0
  6
CONTINUOUS
100
AcDbLine
 10
132.953389
 20
-100.64506
 30
0.0
 11
131.766844
 21
-100.64506
 31
0.0
  0
LINE
  5
8E
100
AcDbEntity
  8
0
  6
CONTINUOUS
100
AcDbLine
 10
131.766844
 20
-99.481333
 30
0.0
 11
132.953389
 21
-99.481333
 31
0.0
  0
LINE
  5
8F
100
AcDbEntity
  8
0
  6
CONTINUOUS
100
AcDbLine
 10
131.766844
 20
-99.481333
 30
0.0
 11
131.766844
 21
-100.64506
 31
0.0
  0
LINE
  5
90
100
AcDbEntity
  8
0
  6
CONTINUOUS
100
AcDbLine
 10
133.75773
 20
-101.466514
 30
0.0
 11
130.962503
 21
-101.466514
 31
0.0
  0
LINE
  5
91
100
AcDbEntity
  8
0
  6
CONTINUOUS
100
AcDbLine
 10
140.251524
 20
-93.409056
 30
0.0
 11
140.251524
 21
-92.193387
 31
0.0
  0
LINE
  5
92
100
AcDbEntity
  8
0
  6
CONTINUOUS
100
AcDbLine
 10
140.251524
 20
-93.409056
 30
0.0
 11
139.035855
 21
-93.409056
 31
0.0
  0
LINE
  5
93
100
AcDbEntity
  8
0
  6
CONTINUOUS
100
AcDbLine
 10
139.035855
 20
-92.193387
 30
0.0
 11
140.251524
 21
-92.193387
 31
0.0
  0
LINE
  5
94
100
AcDbEntity
  8
0
  6
CONTINUOUS
100
AcDbLine
 10
139.035855
 20
-92.193387
 30
0.0
 11
139.035855
 21
-93.409056
 31
0.0
  0
LINE
  5
95
100
AcDbEntity
  8
0
  6
CONTINUOUS
100
AcDbLine
 10
138.635574
 20
-91.788164
 30
0.0
 11
140.706165
 21
-91.788164
 31
0.0
  0
LINE
  5
96
100
AcDbEntity
  8
0
  6
CONTINUOUS
100
AcDbLine
 10
141.057029
 20
-94.219502
 30
0.0
 11
138.250118
 21
-94.219502
 31
0.0
  0
LINE
  5
97
100
AcDbEntity
  8
0
  6
CONTINUOUS
100
AcDbLine
 10
138.250118
 20
-91.432358
 30
0.0
 11
141.057029
 21
-91.432358
 31
0.0
  0
LINE
  5
98
100
AcDbEntity
  8
0
  6
CONTINUOUS
100
AcDbLine
 10
138.250118
 20
-91.432358
 30
0.0
 11
138.250118
 21
-94.219502
 31
0.0
  0
LINE
  5
99
100
AcDbEntity
  8
0
  6
CONTINUOUS
100
AcDbLine
 10
132.975966
 20
-93.415729
 30
0.0
 11
132.975966
 21
-92.198837
 31
0.0
  0
LINE
  5
9A
100
AcDbEntity
  8
0
  6
CONTINUOUS
100
AcDbLine
 10
132.975966
 20
-93.415729
 30
0.0
 11
131.742055
 21
-93.415729
 31
0.0
  0
LINE
  5
9B
100
AcDbEntity
  8
0
  6
CONTINUOUS
100
AcDbLine
 10
131.742055
 20
-92.198837
 30
0.0
 11
132.975966
 21
-92.198837
 31
0.0
  0
LINE
  5
9C
100
AcDbEntity
  8
0
  6
CONTINUOUS
100
AcDbLine
 10
131.742055
 20
-92.198837
 30
0.0
 11
131.742055
 21
-93.415729
 31
0.0
  0
LINE
  5
9D
100
AcDbEntity
  8
0
  6
CONTINUOUS
100
AcDbLine
 10
133.758862
 20
-94.224153
 30
0.0
 11
133.758862
 21
-91.44147
 31
0.0
  0
LINE
  5
9E
100
AcDbEntity
  8
0
  6
CONTINUOUS
100
AcDbLine
 10
133.758862
 20
-94.224153
 30
0.0
 11
130.967669
 21
-94.224153
 31
0.0
  0
LINE
  5
9F
100
AcDbEntity
  8
0
  6
CONTINUOUS
100
AcDbLine
 10
130.967669
 20
-91.44147
 30
0.0
 11
133.758862
 21
-91.44147
 31
0.0
  0
POINT
  5
A0
100
AcDbEntity
  8
0
  6
CONTINUOUS
100
AcDbPoint
 10
34.201833
 20
-56.791442
 30
0.0
  0
POINT
  5
A1
100
AcDbEntity
  8
0
  6
CONTINUOUS
100
AcDbPoint
 10
34.201833
 20
-64.791442
 30
0.0
  0
POINT
  5
A2
100
AcDbEntity
  8
0
  6
CONTINUOUS
100
AcDbPoint
 10
34.201833
 20
-72.791442
 30
0.0
  0
POINT
  5
A3
100
AcDbEntity
  8
0
  6
CONTINUOUS
100
AcDbPoint
 10
23.001833
 20
-52.791442
 30
0.0
  0
POINT
  5
A4
100
AcDbEntity
  8
0
  6
CONTINUOUS
100
AcDbPoint
 10
23.001833
 20
-60.791442
 30
0.0
  0
POINT
  5
A5
100
AcDbEntity
  8
0
  6
CONTINUOUS
100
AcDbPoint
 10
23.001833
 20
-68.791442
 30
0.0
  0
LINE
  5
A6
100
AcDbEntity
  8
0
  6
CONTINUOUS
100
AcDbLine
 10
-128.298167
 20
86.908558
 30
0.0
 11
-128.298167
 21
66.908558
 31
0.0
  0
LINE
  5
A7
100
AcDbEntity
  8
0
  6
CONTINUOUS
100
AcDbLine
 10
-49.589996
 20
86.908558
 30
0.0
 11
-49.589996
 21
72.508558
 31
0.0
  0
LINE
  5
A8
100
AcDbEntity
  8
0
  6
CONTINUOUS
100
AcDbLine
 10
-69.589996
 20
86.908558
 30
0.0
 11
-69.589996
 21
72.508558
 31
0.0
  0
LINE
  5
A9
100
AcDbEntity
  8
0
  6
CONTINUOUS
100
AcDbLine
 10
-17.589996
 20
86.908558
 30
0.0
 11
-17.589996
 21
72.508558
 31
0.0
  0
LINE
  5
AA
100
AcDbEntity
  8
0
  6
CONTINUOUS
100
AcDbLine
 10
-69.589996
 20
77.308558
 30
0.0
 11
-17.589996
 21
77.308558
 31
0.0
  0
LINE
  5
AB
100
AcDbEntity
  8
0
  6
CONTINUOUS
100
AcDbLine
 10
-69.589996
 20
86.908558
 30
0.0
 11
-17.589996
 21
86.908558
 31
0.0
  0
LINE
  5
AC
100
AcDbEntity
  8
0
  6
CONTINUOUS
100
AcDbLine
 10
-69.589996
 20
82.108558
 30
0.0
 11
-17.589996
 21
82.108558
 31
0.0
  0
LINE
  5
AD
100
AcDbEntity
  8
0
  6
CONTINUOUS
100
AcDbLine
 10
-70.589996
 20
86.908558
 30
0.0
 11
-70.589996
 21
66.908558
 31
0.0
  0
LINE
  5
AE
100
AcDbEntity
  8
0
  6
CONTINUOUS
100
AcDbLine
 10
-70.589996
 20
81.908558
 30
0.0
 11
-128.298167
 21
81.908558
 31
0.0
  0
LINE
  5
AF
100
AcDbEntity
  8
0
  6
CONTINUOUS
100
AcDbLine
 10
-70.589996
 20
86.908558
 30
0.0
 11
-128.298167
 21
86.908558
 31
0.0
  0
LINE
  5
B0
100
AcDbEntity
  8
0
  6
CONTINUOUS
100
AcDbLine
 10
-123.399941
 20
80.773558
 30
0.0
 11
-123.399941
 21
77.746496
 31
0.0
  0
LINE
  5
B1
100
AcDbEntity
  8
0
  6
CONTINUOUS
100
AcDbLine
 10
-123.399941
 20
77.746496
 30
0.0
 11
-126.429941
 21
77.746496
 31
0.0
  0
LINE
  5
B2
100
AcDbEntity
  8
0
  6
CONTINUOUS
100
AcDbLine
 10
-123.399941
 20
80.773558
 30
0.0
 11
-126.429941
 21
80.773558
 31
0.0
  0
LINE
  5
B3
100
AcDbEntity
  8
0
  6
CONTINUOUS
100
AcDbLine
 10
-126.429941
 20
80.773558
 30
0.0
 11
-126.429941
 21
77.746496
 31
0.0
  0
LINE
  5
B4
100
AcDbEntity
  8
0
  6
CONTINUOUS
100
AcDbLine
 10
-123.399941
 20
85.923558
 30
0.0
 11
-126.429941
 21
85.923558
 31
0.0
  0
LINE
  5
B5
100
AcDbEntity
  8
0
  6
CONTINUOUS
100
AcDbLine
 10
-123.399941
 20
85.923558
 30
0.0
 11
-123.399941
 21
82.896496
 31
0.0
  0
LINE
  5
B6
100
AcDbEntity
  8
0
  6
CONTINUOUS
100
AcDbLine
 10
-126.429941
 20
85.923558
 30
0.0
 11
-126.429941
 21
82.896496
 31
0.0
  0
LINE
  5
B7
100
AcDbEntity
  8
0
  6
CONTINUOUS
100
AcDbLine
 10
-123.399941
 20
82.896496
 30
0.0
 11
-126.429941
 21
82.896496
 31
0.0
  0
LINE
  5
B8
100
AcDbEntity
  8
0
  6
CONTINUOUS
100
AcDbLine
 10
-70.589996
 20
66.908558
 30
0.0
 11
-128.298167
 21
66.908558
 31
0.0
  0
LINE
  5
B9
100
AcDbEntity
  8
0
  6
CONTINUOUS
100
AcDbLine
 10
-120.359446
 20
76.908558
 30
0.0
 11
-120.359446
 21
73.408558
 31
0.0
  0
LINE
  5
BA
100
AcDbEntity
  8
0
  6
CONTINUOUS
100
AcDbLine
 10
-120.359446
 20
73.408558
 30
0.0
 11
-128.298167
 21
73.408558
 31
0.0
  0
LINE
  5
BB
100
AcDbEntity
  8
0
  6
CONTINUOUS
100
AcDbLine
 10
-81.691546
 20
76.908558
 30
0.0
 11
-81.691546
 21
73.408558
 31
0.0
  0
LINE
  5
BC
100
AcDbEntity
  8
0
  6
CONTINUOUS
100
AcDbLine
 10
-89.130267
 20
73.408558
 30
0.0
 11
-81.691546
 21
73.408558
 31
0.0
  0
LINE
  5
BD
100
AcDbEntity
  8
0
  6
CONTINUOUS
100
AcDbLine
 10
-89.130267
 20
66.908558
 30
0.0
 11
-89.130267
 21
76.908558
 31
0.0
  0
LINE
  5
BE
100
AcDbEntity
  8
0
  6
CONTINUOUS
100
AcDbLine
 10
-70.589996
 20
76.908558
 30
0.0
 11
-128.298167
 21
76.908558
 31
0.0
  0
POINT
  5
BF
100
AcDbEntity
  8
0
  6
CONTINUOUS
100
AcDbPoint
 10
-87.130267
 20
68.408558
 30
0.0
  0
POINT
  5
C0
100
AcDbEntity
  8
0
  6
CONTINUOUS
100
AcDbPoint
 10
-126.298167
 20
68.408558
 30
0.0
  0
LINE
  5
C1
100
AcDbEntity
  8
0
  6
CONTINUOUS
100
AcDbLine
 10
142.201833
 20
87.908558
 30
0.0
 11
-129.298167
 21
87.908558
 31
0.0
  0
POINT
  5
C2
100
AcDbEntity
  8
0
  6
CONTINUOUS
100
AcDbPoint
 10
-68.589996
 20
77.808558
 30
0.0
  0
POINT
  5
C3
100
AcDbEntity
  8
0
  6
CONTINUOUS
100
AcDbPoint
 10
-48.589996
 20
77.808558
 30
0.0
  0
LINE
  5
C4
100
AcDbEntity
  8
0
  6
CONTINUOUS
100
AcDbLine
 10
-69.589996
 20
72.508558
 30
0.0
 11
-17.589996
 21
72.508558
 31
0.0
  0
POINT
  5
C5
100
AcDbEntity
  8
0
  6
CONTINUOUS
100
AcDbPoint
 10
-48.589996
 20
73.008558
 30
0.0
  0
POINT
  5
C6
100
AcDbEntity
  8
0
  6
CONTINUOUS
100
AcDbPoint
 10
-68.589996
 20
73.008558
 30
0.0
  0
POINT
  5
C7
100
AcDbEntity
  8
0
  6
CONTINUOUS
100
AcDbPoint
 10
-134.298167
 20
-96.591442
 30
0.0
  0
POINT
  5
C8
100
AcDbEntity
  8
0
  6
CONTINUOUS
100
AcDbPoint
 10
-140.298167
 20
-96.591442
 30
0.0
  0
LINE
  5
C9
100
AcDbEntity
  8
0
  6
CONTINUOUS
100
AcDbLine
 10
-141.298167
 20
-97.591442
 30
0.0
 11
-129.298189
 21
-97.591442
 31
0.0
  0
LINE
  5
CA
100
AcDbEntity
  8
0
  6
CONTINUOUS
100
AcDbLine
 10
-141.298167
 20
-92.591442
 30
0.0
 11
-129.298167
 21
-92.591442
 31
0.0
  0
POINT
  5
CB
100
AcDbEntity
  8
0
  6
CONTINUOUS
100
AcDbPoint
 10
-134.298167
 20
-76.591442
 30
0.0
  0
POINT
  5
CC
100
AcDbEntity
  8
0
  6
CONTINUOUS
100
AcDbPoint
 10
-134.298167
 20
-81.591442
 30
0.0
  0
POINT
  5
CD
100
AcDbEntity
  8
0
  6
CONTINUOUS
100
AcDbPoint
 10
-134.298167
 20
-86.591442
 30
0.0
  0
POINT
  5
CE
100
AcDbEntity
  8
0
  6
CONTINUOUS
100
AcDbPoint
 10
-134.298167
 20
-91.591442
 30
0.0
  0
POINT
  5
CF
100
AcDbEntity
  8
0
  6
CONTINUOUS
100
AcDbPoint
 10
-140.298167
 20
-76.591442
 30
0.0
  0
POINT
  5
D0
100
AcDbEntity
  8
0
  6
CONTINUOUS
100
AcDbPoint
 10
-140.298167
 20
-81.591442
 30
0.0
  0
POINT
  5
D1
100
AcDbEntity
  8
0
  6
CONTINUOUS
100
AcDbPoint
 10
-140.298167
 20
-91.591442
 30
0.0
  0
LINE
  5
D2
100
AcDbEntity
  8
0
  6
CONTINUOUS
100
AcDbLine
 10
-135.298167
 20
-97.591442
 30
0.0
 11
-135.298167
 21
-67.591442
 31
0.0
  0
POINT
  5
D3
100
AcDbEntity
  8
0
  6
CONTINUOUS
100
AcDbPoint
 10
-140.298167
 20
-71.591442
 30
0.0
  0
POINT
  5
D4
100
AcDbEntity
  8
0
  6
CONTINUOUS
100
AcDbPoint
 10
-134.298167
 20
-71.591442
 30
0.0
  0
LINE
  5
D5
100
AcDbEntity
  8
0
  6
CONTINUOUS
100
AcDbLine
 10
-141.298167
 20
-97.591442
 30
0.0
 11
-141.298167
 21
-67.591442
 31
0.0
  0
POINT
  5
D6
100
AcDbEntity
  8
0
  6
CONTINUOUS
100
AcDbPoint
 10
-140.298167
 20
-86.591442
 30
0.0
  0
LINE
  5
D7
100
AcDbEntity
  8
0
  6
CONTINUOUS
100
AcDbLine
 10
-141.298167
 20
-87.591442
 30
0.0
 11
-129.298167
 21
-87.591442
 31
0.0
  0
LINE
  5
D8
100
AcDbEntity
  8
0
  6
CONTINUOUS
100
AcDbLine
 10
-141.298167
 20
-82.591442
 30
0.0
 11
-129.298167
 21
-82.591442
 31
0.0
  0
LINE
  5
D9
100
AcDbEntity
  8
0
  6
CONTINUOUS
100
AcDbLine
 10
-141.298167
 20
-77.591442
 30
0.0
 11
-129.298167
 21
-77.591442
 31
0.0
  0
LINE
  5
DA
100
AcDbEntity
  8
0
  6
CONTINUOUS
100
AcDbLine
 10
-141.298167
 20
-72.591442
 30
0.0
 11
-129.298167
 21
-72.591442
 31
0.0
  0
LINE
  5
DB
100
AcDbEntity
  8
0
  6
CONTINUOUS
100
AcDbLine
 10
-141.298167
 20
-67.591442
 30
0.0
 11
-129.298167
 21
-67.591442
 31
0.0
  0
LINE
  5
DC
100
AcDbEntity
  8
0
  6
CONTINUOUS
100
AcDbLine
 10
-129.298167
 20
99.908558
 30
0.0
 11
-129.298167
 21
-97.591442
 31
0.0
  0
ARC
  5
DD
100
AcDbEntity
  8
0
  6
CONTINUOUS
100
AcDbCircle
 10
70.848465
 20
-93.691946
 30
0.0
 40
1.44
100
AcDbArc
 50
0.0
 51
131.810315
  0
LINE
  5
DE
100
AcDbEntity
  8
0
  6
CONTINUOUS
100
AcDbLine
 10
93.812592
 20
-92.838314
 30
0.0
 11
95.41104
 21
-93.120163
 31
0.0
  0
ARC
  5
DF
100
AcDbEntity
  8
0
  6
CONTINUOUS
100
AcDbCircle
 10
68.928465
 20
-93.691946
 30
0.0
 40
0.48
100
AcDbArc
 50
0.0
 51
180.0
  0
ARC
  5
E0
100
AcDbEntity
  8
0
  6
CONTINUOUS
100
AcDbCircle
 10
93.863893
 20
-92.547374
 30
0.0
 40
1.255428
100
AcDbArc
 50
90.0
 51
260.0
  0
ARC
  5
E1
100
AcDbEntity
  8
0
  6
CONTINUOUS
100
AcDbCircle
 10
70.848465
 20
-93.691946
 30
0.0
 40
0.48
100
AcDbArc
 50
0.0
 51
180.0
  0
LINE
  5
E2
100
AcDbEntity
  8
0
  6
CONTINUOUS
100
AcDbLine
 10
95.193037
 20
-92.251946
 30
0.0
 11
93.863893
 21
-92.251946
 31
0.0
  0
LINE
  5
E3
100
AcDbEntity
  8
0
  6
CONTINUOUS
100
AcDbLine
 10
68.448465
 20
-92.334301
 30
0.0
 11
68.448465
 21
-92.251946
 31
0.0
  0
ARC
  5
E4
100
AcDbEntity
  8
0
  6
CONTINUOUS
100
AcDbCircle
 10
93.863893
 20
-92.547374
 30
0.0
 40
0.295428
100
AcDbArc
 50
90.0
 51
260.0
  0
LINE
  5
E5
100
AcDbEntity
  8
0
  6
CONTINUOUS
100
AcDbLine
 10
77.808465
 20
-95.611946
 30
0.0
 11
76.848465
 21
-95.611946
 31
0.0
  0
LINE
  5
E6
100
AcDbEntity
  8
0
  6
CONTINUOUS
100
AcDbLine
 10
75.888465
 20
-95.611946
 30
0.0
 11
74.928465
 21
-95.611946
 31
0.0
  0
LINE
  5
E7
100
AcDbEntity
  8
0
  6
CONTINUOUS
100
AcDbLine
 10
73.968465
 20
-95.611946
 30
0.0
 11
73.008465
 21
-95.611946
 31
0.0
  0
ARC
  5
E8
100
AcDbEntity
  8
0
  6
CONTINUOUS
100
AcDbCircle
 10
95.193037
 20
-92.547374
 30
0.0
 40
1.255428
100
AcDbArc
 50
0.0
 51
90.0
  0
LINE
  5
E9
100
AcDbEntity
  8
0
  6
CONTINUOUS
100
AcDbLine
 10
73.008465
 20
-95.611946
 30
0.0
 11
73.008465
 21
-92.251946
 31
0.0
  0
ARC
  5
EA
100
AcDbEntity
  8
0
  6
CONTINUOUS
100
AcDbCircle
 10
95.193037
 20
-92.547374
 30
0.0
 40
0.295428
100
AcDbArc
 50
0.0
 51
90.0
  0
LINE
  5
EB
100
AcDbEntity
  8
0
  6
CONTINUOUS
100
AcDbLine
 10
74.928465
 20
-93.691946
 30
0.0
 11
74.928465
 21
-95.611946
 31
0.0
  0
LINE
  5
EC
100
AcDbEntity
  8
0
  6
CONTINUOUS
100
AcDbLine
 10
75.888465
 20
-93.691946
 30
0.0
 11
75.888465
 21
-95.611946
 31
0.0
  0
ARC
  5
ED
100
AcDbEntity
  8
0
  6
CONTINUOUS
100
AcDbCircle
 10
76.368465
 20
-93.691946
 30
0.0
 40
0.48
100
AcDbArc
 50
0.0
 51
180.0
  0
LINE
  5
EE
100
AcDbEntity
  8
0
  6
CONTINUOUS
100
AcDbLine
 10
76.848465
 20
-95.611946
 30
0.0
 11
76.848465
 21
-93.691946
 31
0.0
  0
LINE
  5
EF
100
AcDbEntity
  8
0
  6
CONTINUOUS
100
AcDbLine
 10
96.448465
 20
-92.547374
 30
0.0
 11
95.488465
 21
-92.547374
 31
0.0
  0
LINE
  5
F0
100
AcDbEntity
  8
0
  6
CONTINUOUS
100
AcDbLine
 10
77.808465
 20
-95.611946
 30
0.0
 11
77.808465
 21
-93.691946
 31
0.0
  0
ARC
  5
F1
100
AcDbEntity
  8
0
  6
CONTINUOUS
100
AcDbCircle
 10
76.368465
 20
-93.691946
 30
0.0
 40
1.44
100
AcDbArc
 50
0.0
 51
131.810315
  0
LINE
  5
F2
100
AcDbEntity
  8
0
  6
CONTINUOUS
100
AcDbLine
 10
73.968465
 20
-92.251946
 30
0.0
 11
73.008465
 21
-92.251946
 31
0.0
  0
LINE
  5
F3
100
AcDbEntity
  8
0
  6
CONTINUOUS
100
AcDbLine
 10
73.968465
 20
-92.334301
 30
0.0
 11
73.968465
 21
-92.251946
 31
0.0
  0
ARC
  5
F4
100
AcDbEntity
  8
0
  6
CONTINUOUS
100
AcDbCircle
 10
74.448465
 20
-93.691946
 30
0.0
 40
1.44
100
AcDbArc
 50
48.189685
 51
109.471221
  0
LINE
  5
F5
100
AcDbEntity
  8
0
  6
CONTINUOUS
100
AcDbLine
 10
73.968465
 20
-95.611946
 30
0.0
 11
73.968465
 21
-93.691946
 31
0.0
  0
LINE
  5
F6
100
AcDbEntity
  8
0
  6
CONTINUOUS
100
AcDbLine
 10
92.608465
 20
-94.356519
 30
0.0
 11
93.568465
 21
-94.356519
 31
0.0
  0
ARC
  5
F7
100
AcDbEntity
  8
0
  6
CONTINUOUS
100
AcDbCircle
 10
74.448465
 20
-93.691946
 30
0.0
 40
0.48
100
AcDbArc
 50
0.0
 51
180.0
  0
LINE
  5
F8
100
AcDbEntity
  8
0
  6
CONTINUOUS
100
AcDbLine
 10
104.905955
 20
-92.251946
 30
0.0
 11
107.785955
 21
-92.251946
 31
0.0
  0
LINE
  5
F9
100
AcDbEntity
  8
0
  6
CONTINUOUS
100
AcDbLine
 10
85.568465
 20
-91.291946
 30
0.0
 11
89.408465
 21
-91.291946
 31
0.0
  0
LINE
  5
FA
100
AcDbEntity
  8
0
  6
CONTINUOUS
100
AcDbLine
 10
89.408465
 20
-91.291946
 30
0.0
 11
89.408465
 21
-92.251946
 31
0.0
  0
LINE
  5
FB
100
AcDbEntity
  8
0
  6
CONTINUOUS
100
AcDbLine
 10
86.528465
 20
-92.251946
 30
0.0
 11
89.408465
 21
-92.251946
 31
0.0
  0
LINE
  5
FC
100
AcDbEntity
  8
0
  6
CONTINUOUS
100
AcDbLine
 10
89.408465
 20
-94.651946
 30
0.0
 11
89.408465
 21
-95.611946
 31
0.0
  0
LINE
  5
FD
100
AcDbEntity
  8
0
  6
CONTINUOUS
100
AcDbLine
 10
85.568465
 20
-95.611946
 30
0.0
 11
89.408465
 21
-95.611946
 31
0.0
  0
LINE
  5
FE
100
AcDbEntity
  8
0
  6
CONTINUOUS
100
AcDbLine
 10
137.274161
 20
-86.798131
 30
0.0
 11
140.794146
 21
-87.838126
 31
0.0
  0
LINE
  5
FF
100
AcDbEntity
  8
0
  6
CONTINUOUS
100
AcDbLine
 10
86.528465
 20
-94.651946
 30
0.0
 11
89.408465
 21
-94.651946
 31
0.0
  0
LINE
  5
100
100
AcDbEntity
  8
0
  6
CONTINUOUS
100
AcDbLine
 10
137.274166
 20
-84.478117
 30
0.0
 11
140.794157
 21
-83.438121
 31
0.0
  0
LINE
  5
101
100
AcDbEntity
  8
0
  6
CONTINUOUS
100
AcDbLine
 10
86.528465
 20
-93.931946
 30
0.0
 11
86.528465
 21
-94.651946
 31
0.0
  0
LINE
  5
102
100
AcDbEntity
  8
0
  6
CENTER
100
AcDbLine
 10
130.194164
 20
-85.638124
 30
0.0
 11
136.252104
 21
-85.638124
 31
0.0
  0
LINE
  5
103
100
AcDbEntity
  8
0
  6
CONTINUOUS
100
AcDbLine
 10
86.528465
 20
-93.931946
 30
0.0
 11
88.448465
 21
-93.931946
 31
0.0
  0
LINE
  5
104
100
AcDbEntity
  8
0
  6
CENTER
100
AcDbLine
 10
132.994156
 20
-82.838117
 30
0.0
 11
132.99415
 21
-88.438111
 31
0.0
  0
LINE
  5
105
100
AcDbEntity
  8
0
  6
CONTINUOUS
100
AcDbLine
 10
88.448465
 20
-92.971946
 30
0.0
 11
88.448465
 21
-93.931946
 31
0.0
  0
LINE
  5
106
100
AcDbEntity
  8
0
  6
CONTINUOUS
100
AcDbLine
 10
129.201833
 20
-73.591442
 30
0.0
 11
129.201833
 21
-97.591442
 31
0.0
  0
LINE
  5
107
100
AcDbEntity
  8
0
  6
CONTINUOUS
100
AcDbLine
 10
86.528465
 20
-92.971946
 30
0.0
 11
88.448465
 21
-92.971946
 31
0.0
  0
LINE
  5
108
100
AcDbEntity
  8
0
  6
CONTINUOUS
100
AcDbLine
 10
86.528465
 20
-92.251946
 30
0.0
 11
86.528465
 21
-92.971946
 31
0.0
  0
POINT
  5
109
100
AcDbEntity
  8
0
  6
CONTINUOUS
100
AcDbPoint
 10
130.001833
 20
-76.791442
 30
0.0
  0
LINE
  5
10A
100
AcDbEntity
  8
0
  6
CONTINUOUS
100
AcDbLine
 10
85.568465
 20
-91.291946
 30
0.0
 11
85.568465
 21
-95.611946
 31
0.0
  0
LINE
  5
10B
100
AcDbEntity
  8
0
  6
CONTINUOUS
100
AcDbLine
 10
83.735435
 20
-92.691946
 30
0.0
 11
84.776707
 21
-92.691946
 31
0.0
  0
ARC
  5
10C
100
AcDbEntity
  8
0
  6
CONTINUOUS
100
AcDbCircle
 10
82.928465
 20
-93.211946
 30
0.0
 40
0.96
100
AcDbArc
 50
32.797168
 51
180.0
  0
ARC
  5
10D
100
AcDbEntity
  8
0
  6
CONTINUOUS
100
AcDbCircle
 10
82.928465
 20
-93.211946
 30
0.0
 40
1.92
100
AcDbArc
 50
15.713861
 51
180.0
  0
LINE
  5
10E
100
AcDbEntity
  8
0
  6
CONTINUOUS
100
AcDbLine
 10
81.008465
 20
-93.691946
 30
0.0
 11
81.008465
 21
-93.211946
 31
0.0
  0
LINE
  5
10F
100
AcDbEntity
  8
0
  6
CONTINUOUS
100
AcDbLine
 10
81.968465
 20
-93.691946
 30
0.0
 11
81.968465
 21
-93.211946
 31
0.0
  0
POINT
  5
110
100
AcDbEntity
  8
0
  6
CONTINUOUS
100
AcDbPoint
 10
136.401833
 20
-80.791442
 30
0.0
  0
ARC
  5
111
100
AcDbEntity
  8
0
  6
CONTINUOUS
100
AcDbCircle
 10
82.928465
 20
-93.691946
 30
0.0
 40
0.96
100
AcDbArc
 50
180.0
 51
327.202832
  0
LINE
  5
112
100
AcDbEntity
  8
0
  6
CONTINUOUS
100
AcDbLine
 10
83.735435
 20
-94.211946
 30
0.0
 11
84.776707
 21
-94.211946
 31
0.0
  0
ARC
  5
113
100
AcDbEntity
  8
0
  6
CONTINUOUS
100
AcDbCircle
 10
82.928465
 20
-93.691946
 30
0.0
 40
1.92
100
AcDbArc
 50
180.0
 51
344.286139
  0
LINE
  5
114
100
AcDbEntity
  8
0
  6
CONTINUOUS
100
AcDbLine
 10
95.193037
 20
-95.611946
 30
0.0
 11
93.863893
 21
-95.611946
 31
0.0
  0
ARC
  5
115
100
AcDbEntity
  8
0
  6
CONTINUOUS
100
AcDbCircle
 10
93.863893
 20
-94.356519
 30
0.0
 40
1.255428
100
AcDbArc
 50
180.0
 51
270.0
  0
LINE
  5
116
100
AcDbEntity
  8
0
  6
CONTINUOUS
100
AcDbLine
 10
95.193037
 20
-91.291946
 30
0.0
 11
93.863893
 21
-91.291946
 31
0.0
  0
LINE
  5
117
100
AcDbEntity
  8
0
  6
CONTINUOUS
100
AcDbLine
 10
95.244337
 20
-94.065579
 30
0.0
 11
93.64589
 21
-93.783729
 31
0.0
  0
CIRCLE
  5
118
100
AcDbEntity
  8
0
  6
CONTINUOUS
100
AcDbCircle
 10
115.054701
 20
-95.143201
 30
0.0
 40
0.468745
  0
CIRCLE
  5
119
100
AcDbEntity
  8
0
  6
CONTINUOUS
100
AcDbCircle
 10
120.312191
 20
-95.143201
 30
0.0
 40
0.468745
  0
ARC
  5
11A
100
AcDbEntity
  8
0
  6
CONTINUOUS
100
AcDbCircle
 10
117.683446
 20
-94.171946
 30
0.0
 40
1.44
100
AcDbArc
 50
180.0
 51
0.0
  0
LINE
  5
11B
100
AcDbEntity
  8
0
  6
CONTINUOUS
100
AcDbLine
 10
119.123446
 20
-94.171946
 30
0.0
 11
119.123446
 21
-93.691946
 31
0.0
  0
ARC
  5
11C
100
AcDbEntity
  8
0
  6
CONTINUOUS
100
AcDbCircle
 10
117.683446
 20
-93.691946
 30
0.0
 40
1.44
100
AcDbArc
 50
0.0
 51
180.0
  0
LINE
  5
11D
100
AcDbEntity
  8
0
  6
CONTINUOUS
100
AcDbLine
 10
116.243446
 20
-94.171946
 30
0.0
 11
116.243446
 21
-93.691946
 31
0.0
  0
ARC
  5
11E
100
AcDbEntity
  8
0
  6
CONTINUOUS
100
AcDbCircle
 10
117.683446
 20
-93.691946
 30
0.0
 40
0.48
100
AcDbArc
 50
0.0
 51
180.0
  0
LINE
  5
11F
100
AcDbEntity
  8
0
  6
CONTINUOUS
100
AcDbLine
 10
117.203446
 20
-94.171946
 30
0.0
 11
117.203446
 21
-93.691946
 31
0.0
  0
LINE
  5
120
100
AcDbEntity
  8
0
  6
CONTINUOUS
100
AcDbLine
 10
118.163446
 20
-94.171946
 30
0.0
 11
118.163446
 21
-93.691946
 31
0.0
  0
ARC
  5
121
100
AcDbEntity
  8
0
  6
CONTINUOUS
100
AcDbCircle
 10
117.683446
 20
-94.171946
 30
0.0
 40
0.48
100
AcDbArc
 50
180.0
 51
0.0
  0
LINE
  5
122
100
AcDbEntity
  8
0
  6
CONTINUOUS
100
AcDbLine
 10
22.201833
 20
-89.591442
 30
0.0
 11
142.201833
 21
-89.591442
 31
0.0
  0
CIRCLE
  5
123
100
AcDbEntity
  8
0
  6
CONTINUOUS
100
AcDbCircle
 10
132.994164
 20
-85.638124
 30
0.0
 40
2.2
  0
CIRCLE
  5
124
100
AcDbEntity
  8
0
  6
CONTINUOUS
100
AcDbCircle
 10
132.994164
 20
-85.638124
 30
0.0
 40
1.16
  0
LINE
  5
125
100
AcDbEntity
  8
0
  6
CENTER
100
AcDbLine
 10
141.773576
 20
-85.638124
 30
0.0
 11
136.003642
 21
-85.638124
 31
0.0
  0
LINE
  5
126
100
AcDbEntity
  8
0
  6
CONTINUOUS
100
AcDbLine
 10
112.905955
 20
-94.171946
 30
0.0
 11
112.905955
 21
-93.691946
 31
0.0
  0
LINE
  5
127
100
AcDbEntity
  8
0
  6
CONTINUOUS
100
AcDbLine
 10
137.274168
 20
-84.478114
 30
0.0
 11
137.274168
 21
-86.798127
 31
0.0
  0
ARC
  5
128
100
AcDbEntity
  8
0
  6
CONTINUOUS
100
AcDbCircle
 10
112.425955
 20
-94.171946
 30
0.0
 40
0.48
100
AcDbArc
 50
180.0
 51
0.0
  0
LINE
  5
129
100
AcDbEntity
  8
0
  6
CONTINUOUS
100
AcDbLine
 10
36.371354
 20
-92.541382
 30
0.0
 11
36.554262
 21
-92.541382
 31
0.0
  0
LINE
  5
12A
100
AcDbEntity
  8
0
  6
CONTINUOUS
100
AcDbLine
 10
36.714093
 20
-91.936449
 30
0.0
 11
36.554262
 21
-92.541382
 31
0.0
  0
ARC
  5
12B
100
AcDbEntity
  8
0
  6
CONTINUOUS
100
AcDbCircle
 10
34.945616
 20
-96.174188
 30
0.0
 40
4.591943
100
AcDbArc
 50
67.34843
 51
127.109558
  0
LINE
  5
12C
100
AcDbEntity
  8
0
  6
CONTINUOUS
100
AcDbLine
 10
37.394848
 20
-94.11449
 30
0.0
 11
37.152819
 21
-94.873413
 31
0.0
  0
LINE
  5
12D
100
AcDbEntity
  8
0
  6
CONTINUOUS
100
AcDbLine
 10
37.152819
 20
-94.873413
 30
0.0
 11
39.536987
 21
-94.873413
 31
0.0
  0
LINE
  5
12E
100
AcDbEntity
  8
0
  6
CONTINUOUS
100
AcDbLine
 10
37.905294
 20
-92.486459
 30
0.0
 11
37.649714
 21
-93.287872
 31
0.0
  0
LINE
  5
12F
100
AcDbEntity
  8
0
  6
CONTINUOUS
100
AcDbLine
 10
39.536987
 20
-94.873413
 30
0.0
 11
39.313031
 21
-95.743294
 31
0.0
  0
LINE
  5
130
100
AcDbEntity
  8
0
  6
CONTINUOUS
100
AcDbLine
 10
37.394848
 20
-94.11449
 30
0.0
 11
39.548862
 21
-94.11449
 31
0.0
  0
LINE
  5
131
100
AcDbEntity
  8
0
  6
CONTINUOUS
100
AcDbLine
 10
39.760636
 20
-93.29193
 30
0.0
 11
39.548862
 21
-94.11449
 31
0.0
  0
LINE
  5
132
100
AcDbEntity
  8
0
  6
CONTINUOUS
100
AcDbLine
 10
37.662439
 20
-93.29193
 30
0.0
 11
39.760636
 21
-93.29193
 31
0.0
  0
LINE
  5
133
100
AcDbEntity
  8
0
  6
CONTINUOUS
100
AcDbLine
 10
37.905294
 20
-92.486459
 30
0.0
 11
40.276044
 21
-92.486459
 31
0.0
  0
LINE
  5
134
100
AcDbEntity
  8
0
  6
CONTINUOUS
100
AcDbLine
 10
36.372148
 20
-91.58542
 30
0.0
 11
40.508022
 21
-91.58542
 31
0.0
  0
LINE
  5
135
100
AcDbEntity
  8
0
  6
CONTINUOUS
100
AcDbLine
 10
35.046153
 20
-95.743294
 30
0.0
 11
39.313031
 21
-95.743294
 31
0.0
  0
LINE
  5
136
100
AcDbEntity
  8
0
  6
CONTINUOUS
100
AcDbLine
 10
40.508022
 20
-91.58542
 30
0.0
 11
40.276044
 21
-92.486459
 31
0.0
  0
LINE
  5
137
100
AcDbEntity
  8
0
  6
CONTINUOUS
100
AcDbLine
 10
36.103971
 20
-92.426333
 30
0.0
 11
35.323381
 21
-94.874
 31
0.0
  0
ARC
  5
138
100
AcDbEntity
  8
0
  6
CONTINUOUS
100
AcDbCircle
 10
34.489125
 20
-90.500944
 30
0.0
 40
4.464821
100
AcDbArc
 50
260.362524
 51
284.399957
  0
ARC
  5
139
100
AcDbEntity
  8
0
  6
CONTINUOUS
100
AcDbCircle
 10
33.921709
 20
-93.968675
 30
0.0
 40
0.951273
100
AcDbArc
 50
162.416328
 51
262.325075
  0
LINE
  5
13A
100
AcDbEntity
  8
0
  6
CONTINUOUS
100
AcDbLine
 10
35.926452
 20
-94.825495
 30
0.0
 11
35.599478
 21
-94.825495
 31
0.0
  0
ARC
  5
13B
100
AcDbEntity
  8
0
  6
CONTINUOUS
100
AcDbCircle
 10
34.95254
 20
-94.491229
 30
0.0
 40
2.10012
100
AcDbArc
 50
117.857976
 51
157.31529
  0
ARC
  5
13C
100
AcDbEntity
  8
0
  6
CONTINUOUS
100
AcDbCircle
 10
35.255764
 20
-94.765862
 30
0.0
 40
2.488544
100
AcDbArc
 50
63.365972
 51
121.0773
  0
LINE
  5
13D
100
AcDbEntity
  8
0
  6
CONTINUOUS
100
AcDbLine
 10
35.078241
 20
-95.642676
 30
0.0
 11
35.046153
 21
-95.743294
 31
0.0
  0
LINE
  5
13E
100
AcDbEntity
  8
0
  6
CONTINUOUS
100
AcDbLine
 10
36.372148
 20
-91.58542
 30
0.0
 11
36.307293
 21
-91.788783
 31
0.0
  0
ARC
  5
13F
100
AcDbEntity
  8
0
  6
CONTINUOUS
100
AcDbCircle
 10
33.712468
 20
-90.047887
 30
0.0
 40
5.683097
100
AcDbArc
 50
255.193608
 51
275.99673
  0
LINE
  5
140
100
AcDbEntity
  8
0
  6
CONTINUOUS
100
AcDbLine
 10
35.736978
 20
-95.542616
 30
0.0
 11
35.926452
 21
-94.825495
 31
0.0
  0
ARC
  5
141
100
AcDbEntity
  8
0
  6
CONTINUOUS
100
AcDbCircle
 10
33.999458
 20
-86.322236
 30
0.0
 40
9.382664
100
AcDbArc
 50
271.87342
 51
280.671869
  0
ARC
  5
142
100
AcDbEntity
  8
0
  6
CONTINUOUS
100
AcDbCircle
 10
32.71022
 20
-94.260733
 30
0.0
 40
1.358282
100
AcDbArc
 50
180.23137
 51
250.648328
  0
LINE
  5
143
100
AcDbEntity
  8
0
  6
CONTINUOUS
100
AcDbLine
 10
28.500266
 20
-96.041778
 30
0.0
 11
29.200651
 21
-94.751462
 31
0.0
  0
LINE
  5
144
100
AcDbEntity
  8
0
  6
CONTINUOUS
100
AcDbLine
 10
29.200651
 20
-94.751462
 30
0.0
 11
27.549443
 21
-94.751462
 31
0.0
  0
LINE
  5
145
100
AcDbEntity
  8
0
  6
CONTINUOUS
100
AcDbLine
 10
28.689925
 20
-93.805737
 30
0.0
 11
29.713993
 21
-93.805737
 31
0.0
  0
LINE
  5
146
100
AcDbEntity
  8
0
  6
CONTINUOUS
100
AcDbLine
 10
29.713993
 20
-93.805737
 30
0.0
 11
30.63683
 21
-92.105599
 31
0.0
  0
LINE
  5
147
100
AcDbEntity
  8
0
  6
CONTINUOUS
100
AcDbLine
 10
28.689925
 20
-93.805737
 30
0.0
 11
27.549443
 21
-94.751462
 31
0.0
  0
LINE
  5
148
100
AcDbEntity
  8
0
  6
CONTINUOUS
100
AcDbLine
 10
28.500266
 20
-96.041778
 30
0.0
 11
30.518684
 21
-96.041778
 31
0.0
  0
LINE
  5
149
100
AcDbEntity
  8
0
  6
CONTINUOUS
100
AcDbLine
 10
33.174263
 20
-90.383145
 30
0.0
 11
30.518684
 21
-96.041778
 31
0.0
  0
LINE
  5
14A
100
AcDbEntity
  8
0
  6
CONTINUOUS
100
AcDbLine
 10
30.63683
 20
-92.105599
 30
0.0
 11
25.890059
 21
-96.041778
 31
0.0
  0
LINE
  5
14B
100
AcDbEntity
  8
0
  6
CONTINUOUS
100
AcDbLine
 10
23.712212
 20
-96.041778
 30
0.0
 11
25.890059
 21
-96.041778
 31
0.0
  0
LINE
  5
14C
100
AcDbEntity
  8
0
  6
CONTINUOUS
100
AcDbLine
 10
23.712212
 20
-96.041778
 30
0.0
 11
30.981338
 21
-90.383145
 31
0.0
  0
LINE
  5
14D
100
AcDbEntity
  8
0
  6
CONTINUOUS
100
AcDbLine
 10
30.981338
 20
-90.383145
 30
0.0
 11
33.174263
 21
-90.383145
 31
0.0
  0
POINT
  5
14E
100
AcDbEntity
  8
0
  6
CONTINUOUS
100
AcDbPoint
 10
131.001833
 20
-52.791442
 30
0.0
  0
LINE
  5
14F
100
AcDbEntity
  8
0
  6
CONTINUOUS
100
AcDbLine
 10
130.201833
 20
-49.591442
 30
0.0
 11
130.201833
 21
-57.591442
 31
0.0
  0
POINT
  5
150
100
AcDbEntity
  8
0
  6
CONTINUOUS
100
AcDbPoint
 10
67.201833
 20
-80.791442
 30
0.0
  0
LINE
  5
151
100
AcDbEntity
  8
0
  6
CONTINUOUS
100
AcDbLine
 10
52.201833
 20
-81.591442
 30
0.0
 11
52.201833
 21
-89.591442
 31
0.0
  0
LINE
  5
152
100
AcDbEntity
  8
0
  6
CONTINUOUS
100
AcDbLine
 10
59.201833
 20
-73.591442
 30
0.0
 11
59.201833
 21
-81.591442
 31
0.0
  0
LINE
  5
153
100
AcDbEntity
  8
0
  6
CONTINUOUS
100
AcDbLine
 10
22.201833
 20
-49.591442
 30
0.0
 11
22.201833
 21
-73.591442
 31
0.0
  0
POINT
  5
154
100
AcDbEntity
  8
0
  6
CONTINUOUS
100
AcDbPoint
 10
23.001833
 20
-76.791442
 30
0.0
  0
POINT
  5
155
100
AcDbEntity
  8
0
  6
CONTINUOUS
100
AcDbPoint
 10
23.001833
 20
-84.791442
 30
0.0
  0
POINT
  5
156
100
AcDbEntity
  8
0
  6
CONTINUOUS
100
AcDbPoint
 10
34.201833
 20
-80.791442
 30
0.0
  0
POINT
  5
157
100
AcDbEntity
  8
0
  6
CONTINUOUS
100
AcDbPoint
 10
75.001833
 20
-84.791442
 30
0.0
  0
POINT
  5
158
100
AcDbEntity
  8
0
  6
CONTINUOUS
100
AcDbPoint
 10
92.201833
 20
-80.791442
 30
0.0
  0
POINT
  5
159
100
AcDbEntity
  8
0
  6
CONTINUOUS
100
AcDbPoint
 10
75.001833
 20
-76.791442
 30
0.0
  0
POINT
  5
15A
100
AcDbEntity
  8
0
  6
CONTINUOUS
100
AcDbPoint
 10
92.201833
 20
-72.791442
 30
0.0
  0
POINT
  5
15B
100
AcDbEntity
  8
0
  6
CONTINUOUS
100
AcDbPoint
 10
75.001833
 20
-68.791442
 30
0.0
  0
POINT
  5
15C
100
AcDbEntity
  8
0
  6
CONTINUOUS
100
AcDbPoint
 10
92.201833
 20
-64.791442
 30
0.0
  0
POINT
  5
15D
100
AcDbEntity
  8
0
  6
CONTINUOUS
100
AcDbPoint
 10
75.001833
 20
-60.791442
 30
0.0
  0
POINT
  5
15E
100
AcDbEntity
  8
0
  6
CONTINUOUS
100
AcDbPoint
 10
92.201833
 20
-56.791442
 30
0.0
  0
POINT
  5
15F
100
AcDbEntity
  8
0
  6
CONTINUOUS
100
AcDbPoint
 10
75.001833
 20
-52.791442
 30
0.0
  0
LINE
  5
160
100
AcDbEntity
  8
0
  6
CONTINUOUS
100
AcDbLine
 10
74.201833
 20
-49.591442
 30
0.0
 11
74.201833
 21
-89.591442
 31
0.0
  0
LINE
  5
161
100
AcDbEntity
  8
0
  6
CONTINUOUS
100
AcDbLine
 10
22.201833
 20
-49.591442
 30
0.0
 11
142.201833
 21
-49.591442
 31
0.0
  0
LINE
  5
162
100
AcDbEntity
  8
0
  6
CONTINUOUS
100
AcDbLine
 10
22.201833
 20
-57.591442
 30
0.0
 11
74.201833
 21
-57.591442
 31
0.0
  0
LINE
  5
163
100
AcDbEntity
  8
0
  6
CONTINUOUS
100
AcDbLine
 10
22.201833
 20
-65.591442
 30
0.0
 11
74.201833
 21
-65.591442
 31
0.0
  0
LINE
  5
164
100
AcDbEntity
  8
0
  6
CONTINUOUS
100
AcDbLine
 10
22.201833
 20
-73.591442
 30
0.0
 11
142.201833
 21
-73.591442
 31
0.0
  0
LINE
  5
165
100
AcDbEntity
  8
0
  6
CONTINUOUS
100
AcDbLine
 10
22.201833
 20
-81.591442
 30
0.0
 11
142.201833
 21
-81.591442
 31
0.0
  0
LINE
  5
166
100
AcDbEntity
  8
0
  6
CONTINUOUS
100
AcDbLine
 10
44.928465
 20
-95.611946
 30
0.0
 11
45.940394
 21
-95.611946
 31
0.0
  0
LINE
  5
167
100
AcDbEntity
  8
0
  6
CONTINUOUS
100
AcDbLine
 10
46.368465
 20
-91.291946
 30
0.0
 11
47.328465
 21
-91.291946
 31
0.0
  0
LINE
  5
168
100
AcDbEntity
  8
0
  6
CONTINUOUS
100
AcDbLine
 10
47.328465
 20
-91.291946
 30
0.0
 11
48.768465
 21
-95.611946
 31
0.0
  0
LINE
  5
169
100
AcDbEntity
  8
0
  6
CONTINUOUS
100
AcDbLine
 10
46.368465
 20
-91.291946
 30
0.0
 11
44.928465
 21
-95.611946
 31
0.0
  0
LINE
  5
16A
100
AcDbEntity
  8
0
  6
CONTINUOUS
100
AcDbLine
 10
46.848465
 20
-92.887733
 30
0.0
 11
46.580394
 21
-93.691946
 31
0.0
  0
LINE
  5
16B
100
AcDbEntity
  8
0
  6
CONTINUOUS
100
AcDbLine
 10
46.848465
 20
-92.887733
 30
0.0
 11
47.116536
 21
-93.691946
 31
0.0
  0
LINE
  5
16C
100
AcDbEntity
  8
0
  6
CONTINUOUS
100
AcDbLine
 10
46.260394
 20
-94.651946
 30
0.0
 11
47.436536
 21
-94.651946
 31
0.0
  0
LINE
  5
16D
100
AcDbEntity
  8
0
  6
CONTINUOUS
100
AcDbLine
 10
46.580394
 20
-93.691946
 30
0.0
 11
47.116536
 21
-93.691946
 31
0.0
  0
LINE
  5
16E
100
AcDbEntity
  8
0
  6
CONTINUOUS
100
AcDbLine
 10
46.260394
 20
-94.651946
 30
0.0
 11
45.940394
 21
-95.611946
 31
0.0
  0
LINE
  5
16F
100
AcDbEntity
  8
0
  6
CONTINUOUS
100
AcDbLine
 10
47.436536
 20
-94.651946
 30
0.0
 11
47.756536
 21
-95.611946
 31
0.0
  0
LINE
  5
170
100
AcDbEntity
  8
0
  6
CONTINUOUS
100
AcDbLine
 10
47.756536
 20
-95.611946
 30
0.0
 11
48.768465
 21
-95.611946
 31
0.0
  0
ELLIPSE
  5
171
100
AcDbEntity
  8
0
  6
CONTINUOUS
100
AcDbEllipse
 10
50.928465
 20
-93.931946
 30
0.0
 11
0.0
 21
1.6800000000000068
 31
0.0
210
0.0
220
0.0
230
1.0
 40
0.857143
 41
5.0021406818206833
 42
4.4226372789486312
  0
LINE
  5
172
100
AcDbEntity
  8
0
  6
CONTINUOUS
100
AcDbLine
 10
51.286236
 20
-93.451946
 30
0.0
 11
52.308438
 21
-93.451946
 31
0.0
  0
LINE
  5
173
100
AcDbEntity
  8
0
  6
CONTINUOUS
100
AcDbLine
 10
51.286236
 20
-94.411946
 30
0.0
 11
52.308438
 21
-94.411946
 31
0.0
  0
ELLIPSE
  5
174
100
AcDbEntity
  8
0
  6
CONTINUOUS
100
AcDbEllipse
 10
50.928465
 20
-93.931946
 30
0.0
 11
0.0
 21
0.7199999999999989
 31
0.0
210
0.0
220
0.0
230
1.0
 40
0.666667
 41
5.4421166366115523
 42
3.9826613241577093
  0
LINE
  5
175
100
AcDbEntity
  8
0
  6
CONTINUOUS
100
AcDbLine
 10
56.688465
 20
-94.171946
 30
0.0
 11
56.688465
 21
-92.251946
 31
0.0
  0
LINE
  5
176
100
AcDbEntity
  8
0
  6
CONTINUOUS
100
AcDbLine
 10
59.568465
 20
-95.611946
 30
0.0
 11
59.568465
 21
-92.251946
 31
0.0
  0
LINE
  5
177
100
AcDbEntity
  8
0
  6
CONTINUOUS
100
AcDbLine
 10
60.288465
 20
-95.611946
 30
0.0
 11
60.288465
 21
-92.251946
 31
0.0
  0
LINE
  5
178
100
AcDbEntity
  8
0
  6
CONTINUOUS
100
AcDbLine
 10
63.168465
 20
-93.211946
 30
0.0
 11
63.168465
 21
-92.251946
 31
0.0
  0
LINE
  5
179
100
AcDbEntity
  8
0
  6
CONTINUOUS
100
AcDbLine
 10
67.488465
 20
-95.611946
 30
0.0
 11
67.488465
 21
-92.251946
 31
0.0
  0
LINE
  5
17A
100
AcDbEntity
  8
0
  6
CONTINUOUS
100
AcDbLine
 10
72.288465
 20
-95.611946
 30
0.0
 11
72.288465
 21
-93.691946
 31
0.0
  0
LINE
  5
17B
100
AcDbEntity
  8
0
  6
CONTINUOUS
100
AcDbLine
 10
56.688465
 20
-92.251946
 30
0.0
 11
57.648465
 21
-92.251946
 31
0.0
  0
LINE
  5
17C
100
AcDbEntity
  8
0
  6
CONTINUOUS
100
AcDbLine
 10
58.608465
 20
-95.611946
 30
0.0
 11
59.568465
 21
-95.611946
 31
0.0
  0
LINE
  5
17D
100
AcDbEntity
  8
0
  6
CONTINUOUS
100
AcDbLine
 10
54.886236
 20
-94.411946
 30
0.0
 11
55.908438
 21
-94.411946
 31
0.0
  0
LINE
  5
17E
100
AcDbEntity
  8
0
  6
CONTINUOUS
100
AcDbLine
 10
54.886236
 20
-93.451946
 30
0.0
 11
55.908438
 21
-93.451946
 31
0.0
  0
ELLIPSE
  5
17F
100
AcDbEntity
  8
0
  6
CONTINUOUS
100
AcDbEllipse
 10
54.528465
 20
-93.931946
 30
0.0
 11
0.0
 21
0.7199999999999989
 31
0.0
210
0.0
220
0.0
230
1.0
 40
0.666667
 41
5.4421166366115523
 42
3.9826613241577093
  0
ELLIPSE
  5
180
100
AcDbEntity
  8
0
  6
CONTINUOUS
100
AcDbEllipse
 10
54.528465
 20
-93.931946
 30
0.0
 11
0.0
 21
1.6800000000000068
 31
0.0
210
0.0
220
0.0
230
1.0
 40
0.857143
 41
5.0021406818206833
 42
4.4226372789486312
  0
LINE
  5
181
100
AcDbEntity
  8
0
  6
CONTINUOUS
100
AcDbLine
 10
57.648465
 20
-94.171946
 30
0.0
 11
57.648465
 21
-92.251946
 31
0.0
  0
LINE
  5
182
100
AcDbEntity
  8
0
  6
CONTINUOUS
100
AcDbLine
 10
58.608465
 20
-94.171946
 30
0.0
 11
58.608465
 21
-92.251946
 31
0.0
  0
ARC
  5
183
100
AcDbEntity
  8
0
  6
CONTINUOUS
100
AcDbCircle
 10
58.128465
 20
-94.171946
 30
0.0
 40
1.44
100
AcDbArc
 50
180.0
 51
289.471221
  0
ARC
  5
184
100
AcDbEntity
  8
0
  6
CONTINUOUS
100
AcDbCircle
 10
58.128465
 20
-94.171946
 30
0.0
 40
0.48
100
AcDbArc
 50
180.0
 51
0.0
  0
LINE
  5
185
100
AcDbEntity
  8
0
  6
CONTINUOUS
100
AcDbLine
 10
58.608465
 20
-95.611946
 30
0.0
 11
58.608465
 21
-95.529591
 31
0.0
  0
LINE
  5
186
100
AcDbEntity
  8
0
  6
CONTINUOUS
100
AcDbLine
 10
58.608465
 20
-92.251946
 30
0.0
 11
59.568465
 21
-92.251946
 31
0.0
  0
LINE
  5
187
100
AcDbEntity
  8
0
  6
CONTINUOUS
100
AcDbLine
 10
61.248465
 20
-95.611946
 30
0.0
 11
61.248465
 21
-93.691946
 31
0.0
  0
ARC
  5
188
100
AcDbEntity
  8
0
  6
CONTINUOUS
100
AcDbCircle
 10
63.168465
 20
-96.331946
 30
0.0
 40
4.08
100
AcDbArc
 50
90.0
 51
118.072487
  0
ARC
  5
189
100
AcDbEntity
  8
0
  6
CONTINUOUS
100
AcDbCircle
 10
63.168465
 20
-97.291946
 30
0.0
 40
4.08
100
AcDbArc
 50
90.0
 51
118.072487
  0
LINE
  5
18A
100
AcDbEntity
  8
0
  6
CONTINUOUS
100
AcDbLine
 10
61.248465
 20
-92.251946
 30
0.0
 11
60.288465
 21
-92.251946
 31
0.0
  0
LINE
  5
18B
100
AcDbEntity
  8
0
  6
CONTINUOUS
100
AcDbLine
 10
61.248465
 20
-95.611946
 30
0.0
 11
60.288465
 21
-95.611946
 31
0.0
  0
LINE
  5
18C
100
AcDbEntity
  8
0
  6
CONTINUOUS
100
AcDbLine
 10
61.248465
 20
-92.731946
 30
0.0
 11
61.248465
 21
-92.251946
 31
0.0
  0
ARC
  5
18D
100
AcDbEntity
  8
0
  6
CONTINUOUS
100
AcDbCircle
 10
93.863893
 20
-94.356519
 30
0.0
 40
0.295428
100
AcDbArc
 50
180.0
 51
270.0
  0
ELLIPSE
  5
18E
100
AcDbEntity
  8
0
  6
CONTINUOUS
100
AcDbEllipse
 10
65.328465
 20
-93.931946
 30
0.0
 11
0.0
 21
0.7199999999999989
 31
0.0
210
0.0
220
0.0
230
1.0
 40
0.666667
 41
0.0
 42
6.2831853071795862
  0
LINE
  5
18F
100
AcDbEntity
  8
0
  6
CONTINUOUS
100
AcDbLine
 10
95.193037
 20
-94.651946
 30
0.0
 11
93.863893
 21
-94.651946
 31
0.0
  0
ELLIPSE
  5
190
100
AcDbEntity
  8
0
  6
CONTINUOUS
100
AcDbEllipse
 10
65.328465
 20
-93.931946
 30
0.0
 11
0.0
 21
1.6800000000000068
 31
0.0
210
0.0
220
0.0
230
1.0
 40
0.857143
 41
0.0
 42
6.2831853071795862
  0
ARC
  5
191
100
AcDbEntity
  8
0
  6
CONTINUOUS
100
AcDbCircle
 10
95.193037
 20
-94.356519
 30
0.0
 40
0.295428
100
AcDbArc
 50
270.0
 51
80.0
  0
LINE
  5
192
100
AcDbEntity
  8
0
  6
CONTINUOUS
100
AcDbLine
 10
68.448465
 20
-95.611946
 30
0.0
 11
68.448465
 21
-93.691946
 31
0.0
  0
ARC
  5
193
100
AcDbEntity
  8
0
  6
CONTINUOUS
100
AcDbCircle
 10
95.193037
 20
-94.356519
 30
0.0
 40
1.255428
100
AcDbArc
 50
270.0
 51
80.0
  0
LINE
  5
194
100
AcDbEntity
  8
0
  6
CONTINUOUS
100
AcDbLine
 10
71.328465
 20
-95.611946
 30
0.0
 11
71.328465
 21
-93.691946
 31
0.0
  0
LINE
  5
195
100
AcDbEntity
  8
0
  6
CONTINUOUS
100
AcDbLine
 10
98.128465
 20
-94.171946
 30
0.0
 11
98.128465
 21
-93.691946
 31
0.0
  0
LINE
  5
196
100
AcDbEntity
  8
0
  6
CONTINUOUS
100
AcDbLine
 10
70.368465
 20
-93.691946
 30
0.0
 11
70.368465
 21
-95.611946
 31
0.0
  0
LINE
  5
197
100
AcDbEntity
  8
0
  6
CONTINUOUS
100
AcDbLine
 10
99.088465
 20
-94.171946
 30
0.0
 11
99.088465
 21
-93.691946
 31
0.0
  0
LINE
  5
198
100
AcDbEntity
  8
0
  6
CONTINUOUS
100
AcDbLine
 10
69.408465
 20
-93.691946
 30
0.0
 11
69.408465
 21
-95.611946
 31
0.0
  0
ARC
  5
199
100
AcDbEntity
  8
0
  6
CONTINUOUS
100
AcDbCircle
 10
98.608465
 20
-93.691946
 30
0.0
 40
0.48
100
AcDbArc
 50
0.0
 51
180.0
  0
LINE
  5
19A
100
AcDbEntity
  8
0
  6
CONTINUOUS
100
AcDbLine
 10
72.288465
 20
-95.611946
 30
0.0
 11
71.328465
 21
-95.611946
 31
0.0
  0
ARC
  5
19B
100
AcDbEntity
  8
0
  6
CONTINUOUS
100
AcDbCircle
 10
98.608465
 20
-94.171946
 30
0.0
 40
0.48
100
AcDbArc
 50
180.0
 51
0.0
  0
LINE
  5
19C
100
AcDbEntity
  8
0
  6
CONTINUOUS
100
AcDbLine
 10
68.448465
 20
-92.251946
 30
0.0
 11
67.488465
 21
-92.251946
 31
0.0
  0
LINE
  5
19D
100
AcDbEntity
  8
0
  6
CONTINUOUS
100
AcDbLine
 10
100.048465
 20
-94.171946
 30
0.0
 11
100.048465
 21
-93.691946
 31
0.0
  0
LINE
  5
19E
100
AcDbEntity
  8
0
  6
CONTINUOUS
100
AcDbLine
 10
68.448465
 20
-95.611946
 30
0.0
 11
67.488465
 21
-95.611946
 31
0.0
  0
LINE
  5
19F
100
AcDbEntity
  8
0
  6
CONTINUOUS
100
AcDbLine
 10
98.128465
 20
-95.529591
 30
0.0
 11
98.128465
 21
-97.091442
 31
0.0
  0
LINE
  5
1A0
100
AcDbEntity
  8
0
  6
CONTINUOUS
100
AcDbLine
 10
70.368465
 20
-95.611946
 30
0.0
 11
69.408465
 21
-95.611946
 31
0.0
  0
LINE
  5
1A1
100
AcDbEntity
  8
0
  6
CONTINUOUS
100
AcDbLine
 10
97.168465
 20
-92.251946
 30
0.0
 11
97.168465
 21
-97.091442
 31
0.0
  0
LINE
  5
1A2
100
AcDbEntity
  8
0
  6
CONTINUOUS
100
AcDbLine
 10
98.128465
 20
-92.251946
 30
0.0
 11
97.168465
 21
-92.251946
 31
0.0
  0
LINE
  5
1A3
100
AcDbEntity
  8
0
  6
CONTINUOUS
100
AcDbLine
 10
98.128465
 20
-92.334301
 30
0.0
 11
98.128465
 21
-92.251946
 31
0.0
  0
ARC
  5
1A4
100
AcDbEntity
  8
0
  6
CONTINUOUS
100
AcDbCircle
 10
98.608465
 20
-94.171946
 30
0.0
 40
1.44
100
AcDbArc
 50
250.528779
 51
0.0
  0
ARC
  5
1A5
100
AcDbEntity
  8
0
  6
CONTINUOUS
100
AcDbCircle
 10
98.608465
 20
-93.691946
 30
0.0
 40
1.44
100
AcDbArc
 50
0.0
 51
109.471221
  0
CIRCLE
  5
1A6
100
AcDbEntity
  8
0
  6
CONTINUOUS
100
AcDbCircle
 10
101.23721
 20
-95.143201
 30
0.0
 40
0.468745
  0
LINE
  5
1A7
100
AcDbEntity
  8
0
  6
CONTINUOUS
100
AcDbLine
 10
104.905955
 20
-95.611946
 30
0.0
 11
107.785955
 21
-95.611946
 31
0.0
  0
LINE
  5
1A8
100
AcDbEntity
  8
0
  6
CONTINUOUS
100
AcDbLine
 10
106.432355
 20
-93.211946
 30
0.0
 11
104.905955
 21
-94.651946
 31
0.0
  0
LINE
  5
1A9
100
AcDbEntity
  8
0
  6
CONTINUOUS
100
AcDbLine
 10
106.259555
 20
-94.651946
 30
0.0
 11
107.785955
 21
-93.211946
 31
0.0
  0
LINE
  5
1AA
100
AcDbEntity
  8
0
  6
CONTINUOUS
100
AcDbLine
 10
104.905955
 20
-93.211946
 30
0.0
 11
106.432355
 21
-93.211946
 31
0.0
  0
LINE
  5
1AB
100
AcDbEntity
  8
0
  6
CONTINUOUS
100
AcDbLine
 10
106.259555
 20
-94.651946
 30
0.0
 11
107.785955
 21
-94.651946
 31
0.0
  0
LINE
  5
1AC
100
AcDbEntity
  8
0
  6
CONTINUOUS
100
AcDbLine
 10
104.905955
 20
-92.251946
 30
0.0
 11
104.905955
 21
-93.211946
 31
0.0
  0
LINE
  5
1AD
100
AcDbEntity
  8
0
  6
CONTINUOUS
100
AcDbLine
 10
104.905955
 20
-94.651946
 30
0.0
 11
104.905955
 21
-95.611946
 31
0.0
  0
LINE
  5
1AE
100
AcDbEntity
  8
0
  6
CONTINUOUS
100
AcDbLine
 10
107.785955
 20
-92.251946
 30
0.0
 11
107.785955
 21
-93.211946
 31
0.0
  0
LINE
  5
1AF
100
AcDbEntity
  8
0
  6
CONTINUOUS
100
AcDbLine
 10
107.785955
 20
-94.651946
 30
0.0
 11
107.785955
 21
-95.611946
 31
0.0
  0
ARC
  5
1B0
100
AcDbEntity
  8
0
  6
CONTINUOUS
100
AcDbCircle
 10
112.425955
 20
-94.171946
 30
0.0
 40
1.44
100
AcDbArc
 50
180.0
 51
0.0
  0
LINE
  5
1B1
100
AcDbEntity
  8
0
  6
CONTINUOUS
100
AcDbLine
 10
113.865955
 20
-94.171946
 30
0.0
 11
113.865955
 21
-93.691946
 31
0.0
  0
ARC
  5
1B2
100
AcDbEntity
  8
0
  6
CONTINUOUS
100
AcDbCircle
 10
112.425955
 20
-93.691946
 30
0.0
 40
1.44
100
AcDbArc
 50
0.0
 51
180.0
  0
LINE
  5
1B3
100
AcDbEntity
  8
0
  6
CONTINUOUS
100
AcDbLine
 10
110.985955
 20
-94.171946
 30
0.0
 11
110.985955
 21
-93.691946
 31
0.0
  0
ARC
  5
1B4
100
AcDbEntity
  8
0
  6
CONTINUOUS
100
AcDbCircle
 10
112.425955
 20
-93.691946
 30
0.0
 40
0.48
100
AcDbArc
 50
0.0
 51
180.0
  0
LINE
  5
1B5
100
AcDbEntity
  8
0
  6
CONTINUOUS
100
AcDbLine
 10
111.945955
 20
-94.171946
 30
0.0
 11
111.945955
 21
-93.691946
 31
0.0
  0
ARC
  5
1B6
100
AcDbEntity
  8
0
  6
CONTINUOUS
100
AcDbCircle
 10
68.928465
 20
-93.691946
 30
0.0
 40
1.44
100
AcDbArc
 50
48.189685
 51
109.471221
  0
LINE
  5
1B7
100
AcDbEntity
  8
0
  6
CONTINUOUS
100
AcDbLine
 10
140.794157
 20
-83.438121
 30
0.0
 11
140.794157
 21
-87.838126
 31
0.0
  0
LINE
  5
1B8
100
AcDbEntity
  8
0
  6
CONTINUOUS
100
AcDbLine
 10
74.201833
 20
-65.591442
 30
0.0
 11
142.201833
 21
-65.591442
 31
0.0
  0
LINE
  5
1B9
100
AcDbEntity
  8
0
  6
CONTINUOUS
100
AcDbLine
 10
74.201833
 20
-57.591442
 30
0.0
 11
142.201833
 21
-57.591442
 31
0.0
  0
POINT
  5
1BA
100
AcDbEntity
  8
0
  6
CONTINUOUS
100
AcDbPoint
 10
55.201833
 20
-73.591442
 30
0.0
  0
POINT
  5
1BB
100
AcDbEntity
  8
0
  6
CONTINUOUS
100
AcDbPoint
 10
142.201833
 20
-60.791442
 30
0.0
  0
LINE
  5
1BC
100
AcDbEntity
  8
0
  6
CONTINUOUS
100
AcDbLine
 10
142.201833
 20
-49.591442
 30
0.0
 11
142.201833
 21
-89.591442
 31
0.0
  0
LINE
  5
1BD
100
AcDbEntity
  8
0
  6
CONTINUOUS
100
AcDbLine
 10
129.201833
 20
-97.591442
 30
0.0
 11
-129.298167
 21
-97.591442
 31
0.0
  0
LINE
  5
1BE
100
AcDbEntity
  8
0
  6
CONTINUOUS
100
AcDbLine
 10
142.201833
 20
99.908558
 30
0.0
 11
142.201833
 21
-89.591442
 31
0.0
  0
POINT
  5
1BF
100
AcDbEntity
  8
0
  6
CONTINUOUS
100
AcDbPoint
 10
148.701833
 20
104.908558
 30
0.0
  0
POINT
  5
1C0
100
AcDbEntity
  8
0
  6
CONTINUOUS
100
AcDbPoint
 10
-148.298167
 20
104.908558
 30
0.0
  0
POINT
  5
1C1
100
AcDbEntity
  8
0
  6
CONTINUOUS
100
AcDbPoint
 10
-148.298167
 20
-105.091442
 30
0.0
  0
POINT
  5
1C2
100
AcDbEntity
  8
0
  6
CONTINUOUS
100
AcDbPoint
 10
148.701833
 20
-105.091442
 30
0.0
  0
POINT
  5
1C3
100
AcDbEntity
  8
0
  6
CONTINUOUS
100
AcDbPoint
 10
92.201833
 20
-88.791442
 30
0.0
  0
POINT
  5
1C4
100
AcDbEntity
  8
0
  6
CONTINUOUS
100
AcDbPoint
 10
52.789754
 20
-88.994381
 30
0.0
  0
LINE
  5
1C5
100
AcDbEntity
  8
0
  6
CONTINUOUS
100
AcDbLine
 10
-129.298167
 20
99.908558
 30
0.0
 11
142.201833
 21
99.908558
 31
0.0
  0
LINE
  5
1C6
100
AcDbEntity
  8
0
  6
CONTINUOUS
100
AcDbLine
 10
22.201833
 20
-73.591442
 30
0.0
 11
22.201833
 21
-97.591442
 31
0.0
  0
POINT
  5
1C7
100
AcDbEntity
  8
0
  6
CONTINUOUS
100
AcDbPoint
 10
136.201833
 20
-56.791442
 30
0.0
  0
ENDSEC
  0
SECTION
  2
OBJECTS
  0
DICTIONARY
  5
19
100
AcDbDictionary
  3
ACAD_GROUP
350
1A
  3
ACAD_MLINESTYLE
350
1B
  3
DWGPROPS
350
1C8
  0
DICTIONARY
  5
1A
102
{ACAD_REACTORS
330
19
102
}
100
AcDbDictionary
  0
DICTIONARY
  5
1B
102
{ACAD_REACTORS
330
19
102
}
100
AcDbDictionary
  3
STANDARD
350
1C
  0
MLINESTYLE
  5
1C
102
{ACAD_REACTORS
330
1B
102
}
100
AcDbMlineStyle
  2
STANDARD
 70
     0
  3

 62
     0
 51
90.0
 52
90.0
 71
     2
 49
0.5
 62
   256
  6
BYLAYER
 49
-0.5
 62
   256
  6
BYLAYER
  0
XRECORD
  5
1C8
100
AcDbXrecord
  1
DWGPROPS COOKIE
  2

  3

  4

  6

  7

  8
Tomek
  9

300
=
301
=
302
=
303
=
304
=
305
=
306
=
307
=
308
=
309
=
 40
0.0
 41
2459990.5225
 42
2459990.5225
  1

 90
        0
  0
ENDSEC
  0
EOF
